M48
; DRILL file {KiCad (5.1.2)-2} date 08/01/2021 22:33:24
; FORMAT={-:-/ absolute / metric / decimal}
; #@! TF.CreationDate,2021-01-08T22:33:24+00:00
; #@! TF.GenerationSoftware,Kicad,Pcbnew,(5.1.2)-2
FMAT,2
METRIC
T1C0.600
T2C0.800
T3C0.900
T4C1.000
T5C3.200
%
G90
G05
T1
X8.52Y47.0
X7.25Y52.25
X7.25Y57.5
X8.52Y57.5
X9.79Y57.5
X7.25Y36.5
X8.52Y36.5
X9.79Y36.5
X7.25Y41.75
X8.52Y41.75
X9.79Y41.75
X7.25Y47.0
X9.79Y47.0
X8.52Y52.25
X9.79Y52.25
T2
X43.5Y45.5
X43.5Y37.88
X82.75Y55.0
X82.75Y50.0
X46.5Y45.5
X46.5Y37.88
X14.0Y30.0
X19.0Y30.0
X12.63Y47.0
X20.25Y47.0
X73.5Y45.5
X73.5Y37.88
X49.25Y54.75
X49.25Y49.75
X76.75Y66.87
X76.75Y59.25
X83.25Y45.47
X83.25Y37.85
X27.5Y33.75
X30.0Y33.75
X49.75Y45.5
X49.75Y37.88
X12.63Y41.75
X20.25Y41.75
X43.5Y66.87
X43.5Y59.25
X34.5Y45.5
X34.5Y37.88
X80.0Y66.9
X80.0Y59.28
X40.75Y66.87
X40.75Y59.25
X174.75Y26.37
X174.75Y18.75
X72.0Y27.0
X72.0Y19.38
X135.5Y30.0
X140.5Y30.0
X98.13Y25.5
X105.75Y25.5
X110.13Y26.74
X110.13Y24.2
X110.13Y21.66
X110.13Y19.12
X110.13Y16.58
X110.13Y14.04
X110.13Y11.5
X117.75Y26.74
X117.75Y24.2
X117.75Y21.66
X117.75Y19.12
X117.75Y16.58
X117.75Y14.04
X117.75Y11.5
X35.63Y56.25
X35.63Y48.63
X38.17Y56.25
X38.17Y48.63
X40.71Y56.25
X40.71Y48.63
X43.25Y56.25
X43.25Y48.63
X69.25Y44.25
X69.25Y39.25
X12.63Y26.74
X12.63Y24.2
X12.63Y21.66
X12.63Y19.12
X12.63Y16.58
X12.63Y14.04
X12.63Y11.5
X20.25Y26.74
X20.25Y24.2
X20.25Y21.66
X20.25Y19.12
X20.25Y16.58
X20.25Y14.04
X20.25Y11.5
X162.13Y26.74
X162.13Y24.2
X162.13Y21.66
X162.13Y19.12
X162.13Y16.58
X162.13Y14.04
X162.13Y11.5
X169.75Y26.74
X169.75Y24.2
X169.75Y21.66
X169.75Y19.12
X169.75Y16.58
X169.75Y14.04
X169.75Y11.5
X53.0Y66.9
X53.0Y59.28
X32.5Y55.0
X32.5Y50.0
X61.75Y45.47
X61.75Y37.85
X37.75Y43.0
X37.75Y40.5
X65.0Y45.5
X65.0Y37.88
X65.0Y66.87
X65.0Y59.25
X56.0Y45.47
X56.0Y37.85
X25.5Y41.5
X28.0Y41.5
X83.25Y66.9
X83.25Y59.28
X12.63Y52.25
X20.25Y52.25
X40.75Y45.5
X40.75Y37.88
X49.75Y66.87
X49.75Y59.25
X76.75Y45.5
X76.75Y37.88
X69.13Y56.25
X69.13Y48.63
X71.67Y56.25
X71.67Y48.63
X74.21Y56.25
X74.21Y48.63
X76.75Y56.25
X76.75Y48.63
X85.88Y56.25
X85.88Y48.63
X88.42Y56.25
X88.42Y48.63
X90.96Y56.25
X90.96Y48.63
X93.5Y56.25
X93.5Y48.63
X69.25Y65.5
X69.25Y60.5
X34.5Y66.87
X34.5Y59.25
X153.5Y34.25
X153.5Y26.63
X56.0Y66.9
X56.0Y59.28
X75.63Y26.74
X75.63Y24.2
X75.63Y21.66
X75.63Y19.12
X75.63Y16.58
X75.63Y14.04
X75.63Y11.5
X83.25Y26.74
X83.25Y24.2
X83.25Y21.66
X83.25Y19.12
X83.25Y16.58
X83.25Y14.04
X83.25Y11.5
X44.5Y30.0
X49.5Y30.0
X66.0Y54.75
X66.0Y49.75
X87.42Y41.75
X89.96Y41.75
X92.5Y41.75
X53.0Y45.47
X53.0Y37.85
X77.0Y30.0
X82.0Y30.0
X12.6Y36.5
X20.22Y36.5
X87.42Y63.0
X89.96Y63.0
X92.5Y63.0
X73.5Y66.87
X73.5Y59.25
X37.75Y64.25
X37.75Y61.75
X80.0Y45.47
X80.0Y37.85
X99.25Y54.83
X99.25Y52.29
X99.25Y49.75
X61.75Y66.9
X61.75Y59.28
X58.75Y45.5
X58.75Y37.88
X174.75Y36.62
X174.75Y29.0
X12.63Y57.5
X20.25Y57.5
X46.5Y66.87
X46.5Y59.25
X52.38Y56.25
X52.38Y48.63
X54.92Y56.25
X54.92Y48.63
X57.46Y56.25
X57.46Y48.63
X60.0Y56.25
X60.0Y48.63
X111.5Y30.0
X116.5Y30.0
X58.75Y66.87
X58.75Y59.25
X120.75Y26.75
X128.37Y26.75
X129.0Y20.62
X129.0Y13.0
X134.13Y26.74
X134.13Y24.2
X134.13Y21.66
X134.13Y19.12
X134.13Y16.58
X134.13Y14.04
X134.13Y11.5
X141.75Y26.74
X141.75Y24.2
X141.75Y21.66
X141.75Y19.12
X141.75Y16.58
X141.75Y14.04
X141.75Y11.5
X163.5Y30.0
X168.5Y30.0
X43.13Y26.74
X43.13Y24.2
X43.13Y21.66
X43.13Y19.12
X43.13Y16.58
X43.13Y14.04
X43.13Y11.5
X50.75Y26.74
X50.75Y24.2
X50.75Y21.66
X50.75Y19.12
X50.75Y16.58
X50.75Y14.04
X50.75Y11.5
T3
X26.21Y5.0
X28.75Y5.0
X52.25Y5.0
X54.79Y5.0
X104.25Y5.0
X106.79Y5.0
X32.71Y5.0
X35.25Y5.0
X97.75Y5.0
X100.29Y5.0
X6.75Y5.0
X9.29Y5.0
X169.21Y5.0
X171.75Y5.0
X162.71Y5.0
X165.25Y5.0
X58.75Y5.0
X61.29Y5.0
X65.25Y5.0
X67.79Y5.0
X123.75Y5.0
X126.29Y5.0
X13.21Y5.0
X15.75Y5.0
X110.75Y5.0
X113.29Y5.0
X71.75Y5.0
X74.29Y5.0
X39.21Y5.0
X41.75Y5.0
X156.21Y5.0
X158.75Y5.0
X175.71Y5.0
X178.25Y5.0
X117.25Y5.0
X119.79Y5.0
X19.71Y5.0
X22.25Y5.0
X149.71Y5.0
X152.25Y5.0
X130.25Y5.0
X132.79Y5.0
X143.21Y5.0
X145.75Y5.0
X78.21Y5.0
X80.75Y5.0
X84.75Y5.0
X87.29Y5.0
T4
X25.5Y65.0
X25.5Y62.5
X25.5Y60.0
X25.5Y57.5
X25.5Y55.0
X25.5Y52.5
X25.5Y50.0
T5
X4.0Y68.0
X181.0Y12.0
X4.0Y12.0
X181.0Y68.0
T0
M30
