G04 #@! TF.GenerationSoftware,KiCad,Pcbnew,(5.1.2)-2*
G04 #@! TF.CreationDate,2021-01-08T22:33:22+00:00*
G04 #@! TF.ProjectId,dmeter,646d6574-6572-42e6-9b69-6361645f7063,1*
G04 #@! TF.SameCoordinates,PX365c040PY7fcad80*
G04 #@! TF.FileFunction,Legend,Bot*
G04 #@! TF.FilePolarity,Positive*
%FSLAX46Y46*%
G04 Gerber Fmt 4.6, Leading zero omitted, Abs format (unit mm)*
G04 Created by KiCad (PCBNEW (5.1.2)-2) date 2021-01-08 22:33:22*
%MOMM*%
%LPD*%
G04 APERTURE LIST*
%ADD10C,0.100000*%
%ADD11C,0.150000*%
%ADD12C,0.300000*%
%ADD13C,0.400000*%
%ADD14C,1.542000*%
%ADD15C,1.702000*%
%ADD16O,1.702000X1.702000*%
%ADD17C,3.302000*%
%ADD18R,1.702000X2.502000*%
%ADD19O,1.702000X2.502000*%
%ADD20R,2.502000X1.702000*%
%ADD21O,2.502000X1.702000*%
%ADD22O,1.002000X1.602000*%
%ADD23R,1.002000X1.602000*%
%ADD24R,1.852000X1.852000*%
%ADD25C,1.852000*%
%ADD26R,1.902000X1.902000*%
%ADD27C,1.902000*%
%ADD28R,1.702000X1.702000*%
G04 APERTURE END LIST*
D10*
D11*
X120002200Y-32007200D02*
X120002200Y-64007200D01*
X228002200Y-64007200D01*
X228002200Y-32007200D01*
X120002200Y-32007200D01*
D10*
D11*
X-47000000Y124000000D02*
X-47000000Y-66007200D01*
X230002200Y-66007200D01*
X230002200Y124000000D01*
X-47000000Y124000000D01*
D10*
D11*
X-45000000Y122000000D02*
X-45000000Y-64007200D01*
X228002200Y-64007200D01*
X228002200Y122000000D01*
X-45000000Y122000000D01*
D10*
D11*
X3000000Y122000000D02*
X3000000Y124000000D01*
D10*
D11*
X53000000Y122000000D02*
X53000000Y124000000D01*
D10*
D11*
X103000000Y122000000D02*
X103000000Y124000000D01*
D10*
D11*
X153000000Y122000000D02*
X153000000Y124000000D01*
D10*
D11*
X203000000Y122000000D02*
X203000000Y124000000D01*
D10*
D11*
X-20934524Y122411905D02*
X-21677381Y122411905D01*
X-21305953Y122411905D02*
X-21305953Y123711905D01*
X-21429762Y123526191D01*
X-21553572Y123402381D01*
X-21677381Y123340477D01*
D10*
D11*
X28322619Y123588096D02*
X28384523Y123650000D01*
X28508333Y123711905D01*
X28817857Y123711905D01*
X28941666Y123650000D01*
X29003571Y123588096D01*
X29065476Y123464286D01*
X29065476Y123340477D01*
X29003571Y123154762D01*
X28260714Y122411905D01*
X29065476Y122411905D01*
D10*
D11*
X78260714Y123711905D02*
X79065476Y123711905D01*
X78632142Y123216667D01*
X78817857Y123216667D01*
X78941666Y123154762D01*
X79003571Y123092858D01*
X79065476Y122969048D01*
X79065476Y122659524D01*
X79003571Y122535715D01*
X78941666Y122473810D01*
X78817857Y122411905D01*
X78446428Y122411905D01*
X78322619Y122473810D01*
X78260714Y122535715D01*
D10*
D11*
X128941666Y123278572D02*
X128941666Y122411905D01*
X128632142Y123773810D02*
X128322619Y122845239D01*
X129127380Y122845239D01*
D10*
D11*
X179003571Y123711905D02*
X178384523Y123711905D01*
X178322619Y123092858D01*
X178384523Y123154762D01*
X178508333Y123216667D01*
X178817857Y123216667D01*
X178941666Y123154762D01*
X179003571Y123092858D01*
X179065476Y122969048D01*
X179065476Y122659524D01*
X179003571Y122535715D01*
X178941666Y122473810D01*
X178817857Y122411905D01*
X178508333Y122411905D01*
X178384523Y122473810D01*
X178322619Y122535715D01*
D10*
D11*
X228941666Y123711905D02*
X228694047Y123711905D01*
X228570238Y123650000D01*
X228508333Y123588096D01*
X228384523Y123402381D01*
X228322619Y123154762D01*
X228322619Y122659524D01*
X228384523Y122535715D01*
X228446428Y122473810D01*
X228570238Y122411905D01*
X228817857Y122411905D01*
X228941666Y122473810D01*
X229003571Y122535715D01*
X229065476Y122659524D01*
X229065476Y122969048D01*
X229003571Y123092858D01*
X228941666Y123154762D01*
X228817857Y123216667D01*
X228570238Y123216667D01*
X228446428Y123154762D01*
X228384523Y123092858D01*
X228322619Y122969048D01*
D10*
D11*
X3000000Y-64007200D02*
X3000000Y-66007200D01*
D10*
D11*
X53000000Y-64007200D02*
X53000000Y-66007200D01*
D10*
D11*
X103000000Y-64007200D02*
X103000000Y-66007200D01*
D10*
D11*
X153000000Y-64007200D02*
X153000000Y-66007200D01*
D10*
D11*
X203000000Y-64007200D02*
X203000000Y-66007200D01*
D10*
D11*
X-20934524Y-65595295D02*
X-21677381Y-65595295D01*
X-21305953Y-65595295D02*
X-21305953Y-64295295D01*
X-21429762Y-64481009D01*
X-21553572Y-64604819D01*
X-21677381Y-64666723D01*
D10*
D11*
X28322619Y-64419104D02*
X28384523Y-64357200D01*
X28508333Y-64295295D01*
X28817857Y-64295295D01*
X28941666Y-64357200D01*
X29003571Y-64419104D01*
X29065476Y-64542914D01*
X29065476Y-64666723D01*
X29003571Y-64852438D01*
X28260714Y-65595295D01*
X29065476Y-65595295D01*
D10*
D11*
X78260714Y-64295295D02*
X79065476Y-64295295D01*
X78632142Y-64790533D01*
X78817857Y-64790533D01*
X78941666Y-64852438D01*
X79003571Y-64914342D01*
X79065476Y-65038152D01*
X79065476Y-65347676D01*
X79003571Y-65471485D01*
X78941666Y-65533390D01*
X78817857Y-65595295D01*
X78446428Y-65595295D01*
X78322619Y-65533390D01*
X78260714Y-65471485D01*
D10*
D11*
X128941666Y-64728628D02*
X128941666Y-65595295D01*
X128632142Y-64233390D02*
X128322619Y-65161961D01*
X129127380Y-65161961D01*
D10*
D11*
X179003571Y-64295295D02*
X178384523Y-64295295D01*
X178322619Y-64914342D01*
X178384523Y-64852438D01*
X178508333Y-64790533D01*
X178817857Y-64790533D01*
X178941666Y-64852438D01*
X179003571Y-64914342D01*
X179065476Y-65038152D01*
X179065476Y-65347676D01*
X179003571Y-65471485D01*
X178941666Y-65533390D01*
X178817857Y-65595295D01*
X178508333Y-65595295D01*
X178384523Y-65533390D01*
X178322619Y-65471485D01*
D10*
D11*
X228941666Y-64295295D02*
X228694047Y-64295295D01*
X228570238Y-64357200D01*
X228508333Y-64419104D01*
X228384523Y-64604819D01*
X228322619Y-64852438D01*
X228322619Y-65347676D01*
X228384523Y-65471485D01*
X228446428Y-65533390D01*
X228570238Y-65595295D01*
X228817857Y-65595295D01*
X228941666Y-65533390D01*
X229003571Y-65471485D01*
X229065476Y-65347676D01*
X229065476Y-65038152D01*
X229003571Y-64914342D01*
X228941666Y-64852438D01*
X228817857Y-64790533D01*
X228570238Y-64790533D01*
X228446428Y-64852438D01*
X228384523Y-64914342D01*
X228322619Y-65038152D01*
D10*
D11*
X-47000000Y74000000D02*
X-45000000Y74000000D01*
D10*
D11*
X-47000000Y24000000D02*
X-45000000Y24000000D01*
D10*
D11*
X-47000000Y-26000000D02*
X-45000000Y-26000000D01*
D10*
D11*
X-46309524Y98783334D02*
X-45690477Y98783334D01*
X-46433334Y98411905D02*
X-46000000Y99711905D01*
X-45566667Y98411905D01*
D10*
D11*
X-45907143Y49092858D02*
X-45721429Y49030953D01*
X-45659524Y48969048D01*
X-45597620Y48845239D01*
X-45597620Y48659524D01*
X-45659524Y48535715D01*
X-45721429Y48473810D01*
X-45845239Y48411905D01*
X-46340477Y48411905D01*
X-46340477Y49711905D01*
X-45907143Y49711905D01*
X-45783334Y49650000D01*
X-45721429Y49588096D01*
X-45659524Y49464286D01*
X-45659524Y49340477D01*
X-45721429Y49216667D01*
X-45783334Y49154762D01*
X-45907143Y49092858D01*
X-46340477Y49092858D01*
D10*
D11*
X-45597620Y-1464285D02*
X-45659524Y-1526190D01*
X-45845239Y-1588095D01*
X-45969048Y-1588095D01*
X-46154762Y-1526190D01*
X-46278572Y-1402380D01*
X-46340477Y-1278571D01*
X-46402381Y-1030952D01*
X-46402381Y-845238D01*
X-46340477Y-597619D01*
X-46278572Y-473809D01*
X-46154762Y-350000D01*
X-45969048Y-288095D01*
X-45845239Y-288095D01*
X-45659524Y-350000D01*
X-45597620Y-411904D01*
D10*
D11*
X-46340477Y-51588095D02*
X-46340477Y-50288095D01*
X-46030953Y-50288095D01*
X-45845239Y-50350000D01*
X-45721429Y-50473809D01*
X-45659524Y-50597619D01*
X-45597620Y-50845238D01*
X-45597620Y-51030952D01*
X-45659524Y-51278571D01*
X-45721429Y-51402380D01*
X-45845239Y-51526190D01*
X-46030953Y-51588095D01*
X-46340477Y-51588095D01*
D10*
D11*
X230002200Y74000000D02*
X228002200Y74000000D01*
D10*
D11*
X230002200Y24000000D02*
X228002200Y24000000D01*
D10*
D11*
X230002200Y-26000000D02*
X228002200Y-26000000D01*
D10*
D11*
X228692676Y98783334D02*
X229311723Y98783334D01*
X228568866Y98411905D02*
X229002200Y99711905D01*
X229435533Y98411905D01*
D10*
D11*
X229095057Y49092858D02*
X229280771Y49030953D01*
X229342676Y48969048D01*
X229404580Y48845239D01*
X229404580Y48659524D01*
X229342676Y48535715D01*
X229280771Y48473810D01*
X229156961Y48411905D01*
X228661723Y48411905D01*
X228661723Y49711905D01*
X229095057Y49711905D01*
X229218866Y49650000D01*
X229280771Y49588096D01*
X229342676Y49464286D01*
X229342676Y49340477D01*
X229280771Y49216667D01*
X229218866Y49154762D01*
X229095057Y49092858D01*
X228661723Y49092858D01*
D10*
D11*
X229404580Y-1464285D02*
X229342676Y-1526190D01*
X229156961Y-1588095D01*
X229033152Y-1588095D01*
X228847438Y-1526190D01*
X228723628Y-1402380D01*
X228661723Y-1278571D01*
X228599819Y-1030952D01*
X228599819Y-845238D01*
X228661723Y-597619D01*
X228723628Y-473809D01*
X228847438Y-350000D01*
X229033152Y-288095D01*
X229156961Y-288095D01*
X229342676Y-350000D01*
X229404580Y-411904D01*
D10*
D11*
X228661723Y-51588095D02*
X228661723Y-50288095D01*
X228971247Y-50288095D01*
X229156961Y-50350000D01*
X229280771Y-50473809D01*
X229342676Y-50597619D01*
X229404580Y-50845238D01*
X229404580Y-51030952D01*
X229342676Y-51278571D01*
X229280771Y-51402380D01*
X229156961Y-51526190D01*
X228971247Y-51588095D01*
X228661723Y-51588095D01*
D10*
D11*
X143434342Y-59785771D02*
X143434342Y-58285771D01*
X143791485Y-58285771D01*
X144005771Y-58357200D01*
X144148628Y-58500057D01*
X144220057Y-58642914D01*
X144291485Y-58928628D01*
X144291485Y-59142914D01*
X144220057Y-59428628D01*
X144148628Y-59571485D01*
X144005771Y-59714342D01*
X143791485Y-59785771D01*
X143434342Y-59785771D01*
X145577200Y-59785771D02*
X145577200Y-59000057D01*
X145505771Y-58857200D01*
X145362914Y-58785771D01*
X145077200Y-58785771D01*
X144934342Y-58857200D01*
X145577200Y-59714342D02*
X145434342Y-59785771D01*
X145077200Y-59785771D01*
X144934342Y-59714342D01*
X144862914Y-59571485D01*
X144862914Y-59428628D01*
X144934342Y-59285771D01*
X145077200Y-59214342D01*
X145434342Y-59214342D01*
X145577200Y-59142914D01*
X146077200Y-58785771D02*
X146648628Y-58785771D01*
X146291485Y-58285771D02*
X146291485Y-59571485D01*
X146362914Y-59714342D01*
X146505771Y-59785771D01*
X146648628Y-59785771D01*
X147720057Y-59714342D02*
X147577200Y-59785771D01*
X147291485Y-59785771D01*
X147148628Y-59714342D01*
X147077200Y-59571485D01*
X147077200Y-59000057D01*
X147148628Y-58857200D01*
X147291485Y-58785771D01*
X147577200Y-58785771D01*
X147720057Y-58857200D01*
X147791485Y-59000057D01*
X147791485Y-59142914D01*
X147077200Y-59285771D01*
X148434342Y-59642914D02*
X148505771Y-59714342D01*
X148434342Y-59785771D01*
X148362914Y-59714342D01*
X148434342Y-59642914D01*
X148434342Y-59785771D01*
X148434342Y-58857200D02*
X148505771Y-58928628D01*
X148434342Y-59000057D01*
X148362914Y-58928628D01*
X148434342Y-58857200D01*
X148434342Y-59000057D01*
X150220057Y-58428628D02*
X150291485Y-58357200D01*
X150434342Y-58285771D01*
X150791485Y-58285771D01*
X150934342Y-58357200D01*
X151005771Y-58428628D01*
X151077200Y-58571485D01*
X151077200Y-58714342D01*
X151005771Y-58928628D01*
X150148628Y-59785771D01*
X151077200Y-59785771D01*
X152005771Y-58285771D02*
X152148628Y-58285771D01*
X152291485Y-58357200D01*
X152362914Y-58428628D01*
X152434342Y-58571485D01*
X152505771Y-58857200D01*
X152505771Y-59214342D01*
X152434342Y-59500057D01*
X152362914Y-59642914D01*
X152291485Y-59714342D01*
X152148628Y-59785771D01*
X152005771Y-59785771D01*
X151862914Y-59714342D01*
X151791485Y-59642914D01*
X151720057Y-59500057D01*
X151648628Y-59214342D01*
X151648628Y-58857200D01*
X151720057Y-58571485D01*
X151791485Y-58428628D01*
X151862914Y-58357200D01*
X152005771Y-58285771D01*
X153077200Y-58428628D02*
X153148628Y-58357200D01*
X153291485Y-58285771D01*
X153648628Y-58285771D01*
X153791485Y-58357200D01*
X153862914Y-58428628D01*
X153934342Y-58571485D01*
X153934342Y-58714342D01*
X153862914Y-58928628D01*
X153005771Y-59785771D01*
X153934342Y-59785771D01*
X155362914Y-59785771D02*
X154505771Y-59785771D01*
X154934342Y-59785771D02*
X154934342Y-58285771D01*
X154791485Y-58500057D01*
X154648628Y-58642914D01*
X154505771Y-58714342D01*
X156005771Y-59214342D02*
X157148628Y-59214342D01*
X158148628Y-58285771D02*
X158291485Y-58285771D01*
X158434342Y-58357200D01*
X158505771Y-58428628D01*
X158577200Y-58571485D01*
X158648628Y-58857200D01*
X158648628Y-59214342D01*
X158577200Y-59500057D01*
X158505771Y-59642914D01*
X158434342Y-59714342D01*
X158291485Y-59785771D01*
X158148628Y-59785771D01*
X158005771Y-59714342D01*
X157934342Y-59642914D01*
X157862914Y-59500057D01*
X157791485Y-59214342D01*
X157791485Y-58857200D01*
X157862914Y-58571485D01*
X157934342Y-58428628D01*
X158005771Y-58357200D01*
X158148628Y-58285771D01*
X160077200Y-59785771D02*
X159220057Y-59785771D01*
X159648628Y-59785771D02*
X159648628Y-58285771D01*
X159505771Y-58500057D01*
X159362914Y-58642914D01*
X159220057Y-58714342D01*
X160720057Y-59214342D02*
X161862914Y-59214342D01*
X162862914Y-58285771D02*
X163005771Y-58285771D01*
X163148628Y-58357200D01*
X163220057Y-58428628D01*
X163291485Y-58571485D01*
X163362914Y-58857200D01*
X163362914Y-59214342D01*
X163291485Y-59500057D01*
X163220057Y-59642914D01*
X163148628Y-59714342D01*
X163005771Y-59785771D01*
X162862914Y-59785771D01*
X162720057Y-59714342D01*
X162648628Y-59642914D01*
X162577200Y-59500057D01*
X162505771Y-59214342D01*
X162505771Y-58857200D01*
X162577200Y-58571485D01*
X162648628Y-58428628D01*
X162720057Y-58357200D01*
X162862914Y-58285771D01*
X164220057Y-58928628D02*
X164077200Y-58857200D01*
X164005771Y-58785771D01*
X163934342Y-58642914D01*
X163934342Y-58571485D01*
X164005771Y-58428628D01*
X164077200Y-58357200D01*
X164220057Y-58285771D01*
X164505771Y-58285771D01*
X164648628Y-58357200D01*
X164720057Y-58428628D01*
X164791485Y-58571485D01*
X164791485Y-58642914D01*
X164720057Y-58785771D01*
X164648628Y-58857200D01*
X164505771Y-58928628D01*
X164220057Y-58928628D01*
X164077200Y-59000057D01*
X164005771Y-59071485D01*
X163934342Y-59214342D01*
X163934342Y-59500057D01*
X164005771Y-59642914D01*
X164077200Y-59714342D01*
X164220057Y-59785771D01*
X164505771Y-59785771D01*
X164648628Y-59714342D01*
X164720057Y-59642914D01*
X164791485Y-59500057D01*
X164791485Y-59214342D01*
X164720057Y-59071485D01*
X164648628Y-59000057D01*
X164505771Y-58928628D01*
D10*
D11*
X120002200Y-60507200D02*
X228002200Y-60507200D01*
D10*
D11*
X121434342Y-62585771D02*
X121434342Y-61085771D01*
X122291485Y-62585771D02*
X121648628Y-61728628D01*
X122291485Y-61085771D02*
X121434342Y-61942914D01*
X122934342Y-62585771D02*
X122934342Y-61585771D01*
X122934342Y-61085771D02*
X122862914Y-61157200D01*
X122934342Y-61228628D01*
X123005771Y-61157200D01*
X122934342Y-61085771D01*
X122934342Y-61228628D01*
X124505771Y-62442914D02*
X124434342Y-62514342D01*
X124220057Y-62585771D01*
X124077200Y-62585771D01*
X123862914Y-62514342D01*
X123720057Y-62371485D01*
X123648628Y-62228628D01*
X123577200Y-61942914D01*
X123577200Y-61728628D01*
X123648628Y-61442914D01*
X123720057Y-61300057D01*
X123862914Y-61157200D01*
X124077200Y-61085771D01*
X124220057Y-61085771D01*
X124434342Y-61157200D01*
X124505771Y-61228628D01*
X125791485Y-62585771D02*
X125791485Y-61800057D01*
X125720057Y-61657200D01*
X125577200Y-61585771D01*
X125291485Y-61585771D01*
X125148628Y-61657200D01*
X125791485Y-62514342D02*
X125648628Y-62585771D01*
X125291485Y-62585771D01*
X125148628Y-62514342D01*
X125077200Y-62371485D01*
X125077200Y-62228628D01*
X125148628Y-62085771D01*
X125291485Y-62014342D01*
X125648628Y-62014342D01*
X125791485Y-61942914D01*
X127148628Y-62585771D02*
X127148628Y-61085771D01*
X127148628Y-62514342D02*
X127005771Y-62585771D01*
X126720057Y-62585771D01*
X126577200Y-62514342D01*
X126505771Y-62442914D01*
X126434342Y-62300057D01*
X126434342Y-61871485D01*
X126505771Y-61728628D01*
X126577200Y-61657200D01*
X126720057Y-61585771D01*
X127005771Y-61585771D01*
X127148628Y-61657200D01*
X129005771Y-61800057D02*
X129505771Y-61800057D01*
X129720057Y-62585771D02*
X129005771Y-62585771D01*
X129005771Y-61085771D01*
X129720057Y-61085771D01*
X130362914Y-62442914D02*
X130434342Y-62514342D01*
X130362914Y-62585771D01*
X130291485Y-62514342D01*
X130362914Y-62442914D01*
X130362914Y-62585771D01*
X131077200Y-62585771D02*
X131077200Y-61085771D01*
X131434342Y-61085771D01*
X131648628Y-61157200D01*
X131791485Y-61300057D01*
X131862914Y-61442914D01*
X131934342Y-61728628D01*
X131934342Y-61942914D01*
X131862914Y-62228628D01*
X131791485Y-62371485D01*
X131648628Y-62514342D01*
X131434342Y-62585771D01*
X131077200Y-62585771D01*
X132577200Y-62442914D02*
X132648628Y-62514342D01*
X132577200Y-62585771D01*
X132505771Y-62514342D01*
X132577200Y-62442914D01*
X132577200Y-62585771D01*
X133220057Y-62157200D02*
X133934342Y-62157200D01*
X133077200Y-62585771D02*
X133577200Y-61085771D01*
X134077200Y-62585771D01*
X134577200Y-62442914D02*
X134648628Y-62514342D01*
X134577200Y-62585771D01*
X134505771Y-62514342D01*
X134577200Y-62442914D01*
X134577200Y-62585771D01*
X137577200Y-62585771D02*
X137577200Y-61085771D01*
X137720057Y-62014342D02*
X138148628Y-62585771D01*
X138148628Y-61585771D02*
X137577200Y-62157200D01*
X138791485Y-62585771D02*
X138791485Y-61585771D01*
X138791485Y-61085771D02*
X138720057Y-61157200D01*
X138791485Y-61228628D01*
X138862914Y-61157200D01*
X138791485Y-61085771D01*
X138791485Y-61228628D01*
X140148628Y-62514342D02*
X140005771Y-62585771D01*
X139720057Y-62585771D01*
X139577200Y-62514342D01*
X139505771Y-62442914D01*
X139434342Y-62300057D01*
X139434342Y-61871485D01*
X139505771Y-61728628D01*
X139577200Y-61657200D01*
X139720057Y-61585771D01*
X140005771Y-61585771D01*
X140148628Y-61657200D01*
X141434342Y-62585771D02*
X141434342Y-61800057D01*
X141362914Y-61657200D01*
X141220057Y-61585771D01*
X140934342Y-61585771D01*
X140791485Y-61657200D01*
X141434342Y-62514342D02*
X141291485Y-62585771D01*
X140934342Y-62585771D01*
X140791485Y-62514342D01*
X140720057Y-62371485D01*
X140720057Y-62228628D01*
X140791485Y-62085771D01*
X140934342Y-62014342D01*
X141291485Y-62014342D01*
X141434342Y-61942914D01*
X142791485Y-62585771D02*
X142791485Y-61085771D01*
X142791485Y-62514342D02*
X142648628Y-62585771D01*
X142362914Y-62585771D01*
X142220057Y-62514342D01*
X142148628Y-62442914D01*
X142077200Y-62300057D01*
X142077200Y-61871485D01*
X142148628Y-61728628D01*
X142220057Y-61657200D01*
X142362914Y-61585771D01*
X142648628Y-61585771D01*
X142791485Y-61657200D01*
X145077200Y-63157200D02*
X145005771Y-63085771D01*
X144862914Y-62871485D01*
X144791485Y-62728628D01*
X144720057Y-62514342D01*
X144648628Y-62157200D01*
X144648628Y-61871485D01*
X144720057Y-61514342D01*
X144791485Y-61300057D01*
X144862914Y-61157200D01*
X145005771Y-60942914D01*
X145077200Y-60871485D01*
X146362914Y-61085771D02*
X145648628Y-61085771D01*
X145577200Y-61800057D01*
X145648628Y-61728628D01*
X145791485Y-61657200D01*
X146148628Y-61657200D01*
X146291485Y-61728628D01*
X146362914Y-61800057D01*
X146434342Y-61942914D01*
X146434342Y-62300057D01*
X146362914Y-62442914D01*
X146291485Y-62514342D01*
X146148628Y-62585771D01*
X145791485Y-62585771D01*
X145648628Y-62514342D01*
X145577200Y-62442914D01*
X147077200Y-62442914D02*
X147148628Y-62514342D01*
X147077200Y-62585771D01*
X147005771Y-62514342D01*
X147077200Y-62442914D01*
X147077200Y-62585771D01*
X148577200Y-62585771D02*
X147720057Y-62585771D01*
X148148628Y-62585771D02*
X148148628Y-61085771D01*
X148005771Y-61300057D01*
X147862914Y-61442914D01*
X147720057Y-61514342D01*
X149220057Y-62442914D02*
X149291485Y-62514342D01*
X149220057Y-62585771D01*
X149148628Y-62514342D01*
X149220057Y-62442914D01*
X149220057Y-62585771D01*
X149862914Y-61228628D02*
X149934342Y-61157200D01*
X150077200Y-61085771D01*
X150434342Y-61085771D01*
X150577200Y-61157200D01*
X150648628Y-61228628D01*
X150720057Y-61371485D01*
X150720057Y-61514342D01*
X150648628Y-61728628D01*
X149791485Y-62585771D01*
X150720057Y-62585771D01*
X151220057Y-63157200D02*
X151291485Y-63085771D01*
X151434342Y-62871485D01*
X151505771Y-62728628D01*
X151577200Y-62514342D01*
X151648628Y-62157200D01*
X151648628Y-61871485D01*
X151577200Y-61514342D01*
X151505771Y-61300057D01*
X151434342Y-61157200D01*
X151291485Y-60942914D01*
X151220057Y-60871485D01*
X152362914Y-62014342D02*
X153505771Y-62014342D01*
X154148628Y-61228628D02*
X154220057Y-61157200D01*
X154362914Y-61085771D01*
X154720057Y-61085771D01*
X154862914Y-61157200D01*
X154934342Y-61228628D01*
X155005771Y-61371485D01*
X155005771Y-61514342D01*
X154934342Y-61728628D01*
X154077200Y-62585771D01*
X155005771Y-62585771D01*
D10*
D11*
X120002200Y-57507200D02*
X228002200Y-57507200D01*
D10*
D12*
X207411485Y-59785771D02*
X206911485Y-59071485D01*
X206554342Y-59785771D02*
X206554342Y-58285771D01*
X207125771Y-58285771D01*
X207268628Y-58357200D01*
X207340057Y-58428628D01*
X207411485Y-58571485D01*
X207411485Y-58785771D01*
X207340057Y-58928628D01*
X207268628Y-59000057D01*
X207125771Y-59071485D01*
X206554342Y-59071485D01*
X208625771Y-59714342D02*
X208482914Y-59785771D01*
X208197200Y-59785771D01*
X208054342Y-59714342D01*
X207982914Y-59571485D01*
X207982914Y-59000057D01*
X208054342Y-58857200D01*
X208197200Y-58785771D01*
X208482914Y-58785771D01*
X208625771Y-58857200D01*
X208697200Y-59000057D01*
X208697200Y-59142914D01*
X207982914Y-59285771D01*
X209197200Y-58785771D02*
X209554342Y-59785771D01*
X209911485Y-58785771D01*
X210482914Y-59642914D02*
X210554342Y-59714342D01*
X210482914Y-59785771D01*
X210411485Y-59714342D01*
X210482914Y-59642914D01*
X210482914Y-59785771D01*
X210482914Y-58857200D02*
X210554342Y-58928628D01*
X210482914Y-59000057D01*
X210411485Y-58928628D01*
X210482914Y-58857200D01*
X210482914Y-59000057D01*
X213125771Y-59785771D02*
X212268628Y-59785771D01*
X212697200Y-59785771D02*
X212697200Y-58285771D01*
X212554342Y-58500057D01*
X212411485Y-58642914D01*
X212268628Y-58714342D01*
D10*
D11*
X121362914Y-59714342D02*
X121577200Y-59785771D01*
X121934342Y-59785771D01*
X122077200Y-59714342D01*
X122148628Y-59642914D01*
X122220057Y-59500057D01*
X122220057Y-59357200D01*
X122148628Y-59214342D01*
X122077200Y-59142914D01*
X121934342Y-59071485D01*
X121648628Y-59000057D01*
X121505771Y-58928628D01*
X121434342Y-58857200D01*
X121362914Y-58714342D01*
X121362914Y-58571485D01*
X121434342Y-58428628D01*
X121505771Y-58357200D01*
X121648628Y-58285771D01*
X122005771Y-58285771D01*
X122220057Y-58357200D01*
X122862914Y-59785771D02*
X122862914Y-58785771D01*
X122862914Y-58285771D02*
X122791485Y-58357200D01*
X122862914Y-58428628D01*
X122934342Y-58357200D01*
X122862914Y-58285771D01*
X122862914Y-58428628D01*
X123434342Y-58785771D02*
X124220057Y-58785771D01*
X123434342Y-59785771D01*
X124220057Y-59785771D01*
X125362914Y-59714342D02*
X125220057Y-59785771D01*
X124934342Y-59785771D01*
X124791485Y-59714342D01*
X124720057Y-59571485D01*
X124720057Y-59000057D01*
X124791485Y-58857200D01*
X124934342Y-58785771D01*
X125220057Y-58785771D01*
X125362914Y-58857200D01*
X125434342Y-59000057D01*
X125434342Y-59142914D01*
X124720057Y-59285771D01*
X126077200Y-59642914D02*
X126148628Y-59714342D01*
X126077200Y-59785771D01*
X126005771Y-59714342D01*
X126077200Y-59642914D01*
X126077200Y-59785771D01*
X126077200Y-58857200D02*
X126148628Y-58928628D01*
X126077200Y-59000057D01*
X126005771Y-58928628D01*
X126077200Y-58857200D01*
X126077200Y-59000057D01*
X127862914Y-59357200D02*
X128577200Y-59357200D01*
X127720057Y-59785771D02*
X128220057Y-58285771D01*
X128720057Y-59785771D01*
X129862914Y-58785771D02*
X129862914Y-59785771D01*
X129505771Y-58214342D02*
X129148628Y-59285771D01*
X130077200Y-59285771D01*
D10*
D11*
X206434342Y-62585771D02*
X206434342Y-61085771D01*
X207791485Y-62585771D02*
X207791485Y-61085771D01*
X207791485Y-62514342D02*
X207648628Y-62585771D01*
X207362914Y-62585771D01*
X207220057Y-62514342D01*
X207148628Y-62442914D01*
X207077200Y-62300057D01*
X207077200Y-61871485D01*
X207148628Y-61728628D01*
X207220057Y-61657200D01*
X207362914Y-61585771D01*
X207648628Y-61585771D01*
X207791485Y-61657200D01*
X208505771Y-62442914D02*
X208577200Y-62514342D01*
X208505771Y-62585771D01*
X208434342Y-62514342D01*
X208505771Y-62442914D01*
X208505771Y-62585771D01*
X208505771Y-61657200D02*
X208577200Y-61728628D01*
X208505771Y-61800057D01*
X208434342Y-61728628D01*
X208505771Y-61657200D01*
X208505771Y-61800057D01*
X211148628Y-62585771D02*
X210291485Y-62585771D01*
X210720057Y-62585771D02*
X210720057Y-61085771D01*
X210577200Y-61300057D01*
X210434342Y-61442914D01*
X210291485Y-61514342D01*
X212862914Y-61014342D02*
X211577200Y-62942914D01*
X214148628Y-62585771D02*
X213291485Y-62585771D01*
X213720057Y-62585771D02*
X213720057Y-61085771D01*
X213577200Y-61300057D01*
X213434342Y-61442914D01*
X213291485Y-61514342D01*
D10*
D11*
X120002200Y-53507200D02*
X228002200Y-53507200D01*
D10*
D13*
X121714580Y-54211961D02*
X122857438Y-54211961D01*
X122036009Y-56211961D02*
X122286009Y-54211961D01*
X123274104Y-56211961D02*
X123440771Y-54878628D01*
X123524104Y-54211961D02*
X123416961Y-54307200D01*
X123500295Y-54402438D01*
X123607438Y-54307200D01*
X123524104Y-54211961D01*
X123500295Y-54402438D01*
X124107438Y-54878628D02*
X124869342Y-54878628D01*
X124476485Y-54211961D02*
X124262200Y-55926247D01*
X124333628Y-56116723D01*
X124512200Y-56211961D01*
X124702676Y-56211961D01*
X125655057Y-56211961D02*
X125476485Y-56116723D01*
X125405057Y-55926247D01*
X125619342Y-54211961D01*
X127190771Y-56116723D02*
X126988390Y-56211961D01*
X126607438Y-56211961D01*
X126428866Y-56116723D01*
X126357438Y-55926247D01*
X126452676Y-55164342D01*
X126571723Y-54973866D01*
X126774104Y-54878628D01*
X127155057Y-54878628D01*
X127333628Y-54973866D01*
X127405057Y-55164342D01*
X127381247Y-55354819D01*
X126405057Y-55545295D01*
X128155057Y-56021485D02*
X128238390Y-56116723D01*
X128131247Y-56211961D01*
X128047914Y-56116723D01*
X128155057Y-56021485D01*
X128131247Y-56211961D01*
X128286009Y-54973866D02*
X128369342Y-55069104D01*
X128262200Y-55164342D01*
X128178866Y-55069104D01*
X128286009Y-54973866D01*
X128262200Y-55164342D01*
X130607438Y-56211961D02*
X130857438Y-54211961D01*
X131333628Y-54211961D01*
X131607438Y-54307200D01*
X131774104Y-54497676D01*
X131845533Y-54688152D01*
X131893152Y-55069104D01*
X131857438Y-55354819D01*
X131714580Y-55735771D01*
X131595533Y-55926247D01*
X131381247Y-56116723D01*
X131083628Y-56211961D01*
X130607438Y-56211961D01*
X133631247Y-54878628D02*
X133464580Y-56211961D01*
X133250295Y-54116723D02*
X132595533Y-55545295D01*
X133833628Y-55545295D01*
X136036009Y-56211961D02*
X136286009Y-54211961D01*
X136762200Y-54211961D01*
X137036009Y-54307200D01*
X137202676Y-54497676D01*
X137274104Y-54688152D01*
X137321723Y-55069104D01*
X137286009Y-55354819D01*
X137143152Y-55735771D01*
X137024104Y-55926247D01*
X136809819Y-56116723D01*
X136512200Y-56211961D01*
X136036009Y-56211961D01*
X138893152Y-56211961D02*
X139024104Y-55164342D01*
X138952676Y-54973866D01*
X138774104Y-54878628D01*
X138393152Y-54878628D01*
X138190771Y-54973866D01*
X138905057Y-56116723D02*
X138702676Y-56211961D01*
X138226485Y-56211961D01*
X138047914Y-56116723D01*
X137976485Y-55926247D01*
X138000295Y-55735771D01*
X138119342Y-55545295D01*
X138321723Y-55450057D01*
X138797914Y-55450057D01*
X139000295Y-55354819D01*
X139845533Y-56211961D02*
X140012200Y-54878628D01*
X139988390Y-55069104D02*
X140095533Y-54973866D01*
X140297914Y-54878628D01*
X140583628Y-54878628D01*
X140762200Y-54973866D01*
X140833628Y-55164342D01*
X140702676Y-56211961D01*
X140833628Y-55164342D02*
X140952676Y-54973866D01*
X141155057Y-54878628D01*
X141440771Y-54878628D01*
X141619342Y-54973866D01*
X141690771Y-55164342D01*
X141559819Y-56211961D01*
X143369342Y-56211961D02*
X143500295Y-55164342D01*
X143428866Y-54973866D01*
X143250295Y-54878628D01*
X142869342Y-54878628D01*
X142666961Y-54973866D01*
X143381247Y-56116723D02*
X143178866Y-56211961D01*
X142702676Y-56211961D01*
X142524104Y-56116723D01*
X142452676Y-55926247D01*
X142476485Y-55735771D01*
X142595533Y-55545295D01*
X142797914Y-55450057D01*
X143274104Y-55450057D01*
X143476485Y-55354819D01*
X145345533Y-54878628D02*
X145143152Y-56497676D01*
X145024104Y-56688152D01*
X144916961Y-56783390D01*
X144714580Y-56878628D01*
X144428866Y-56878628D01*
X144250295Y-56783390D01*
X145190771Y-56116723D02*
X144988390Y-56211961D01*
X144607438Y-56211961D01*
X144428866Y-56116723D01*
X144345533Y-56021485D01*
X144274104Y-55831009D01*
X144345533Y-55259580D01*
X144464580Y-55069104D01*
X144571723Y-54973866D01*
X144774104Y-54878628D01*
X145155057Y-54878628D01*
X145333628Y-54973866D01*
X146905057Y-56116723D02*
X146702676Y-56211961D01*
X146321723Y-56211961D01*
X146143152Y-56116723D01*
X146071723Y-55926247D01*
X146166961Y-55164342D01*
X146286009Y-54973866D01*
X146488390Y-54878628D01*
X146869342Y-54878628D01*
X147047914Y-54973866D01*
X147119342Y-55164342D01*
X147095533Y-55354819D01*
X146119342Y-55545295D01*
X147845533Y-56211961D02*
X148012200Y-54878628D01*
X147964580Y-55259580D02*
X148083628Y-55069104D01*
X148190771Y-54973866D01*
X148393152Y-54878628D01*
X148583628Y-54878628D01*
X151559819Y-56211961D02*
X150607438Y-56211961D01*
X150857438Y-54211961D01*
X152357438Y-55164342D02*
X153024104Y-55164342D01*
X153178866Y-56211961D02*
X152226485Y-56211961D01*
X152476485Y-54211961D01*
X153428866Y-54211961D01*
X154036009Y-56211961D02*
X154286009Y-54211961D01*
X154762200Y-54211961D01*
X155036009Y-54307200D01*
X155202676Y-54497676D01*
X155274104Y-54688152D01*
X155321723Y-55069104D01*
X155286009Y-55354819D01*
X155143152Y-55735771D01*
X155024104Y-55926247D01*
X154809819Y-56116723D01*
X154512200Y-56211961D01*
X154036009Y-56211961D01*
X157559819Y-56211961D02*
X157809819Y-54211961D01*
X158297914Y-55640533D01*
X159143152Y-54211961D01*
X158893152Y-56211961D01*
X160619342Y-56116723D02*
X160416961Y-56211961D01*
X160036009Y-56211961D01*
X159857438Y-56116723D01*
X159786009Y-55926247D01*
X159881247Y-55164342D01*
X160000295Y-54973866D01*
X160202676Y-54878628D01*
X160583628Y-54878628D01*
X160762200Y-54973866D01*
X160833628Y-55164342D01*
X160809819Y-55354819D01*
X159833628Y-55545295D01*
X161440771Y-54878628D02*
X162202676Y-54878628D01*
X161809819Y-54211961D02*
X161595533Y-55926247D01*
X161666961Y-56116723D01*
X161845533Y-56211961D01*
X162036009Y-56211961D01*
X163476485Y-56116723D02*
X163274104Y-56211961D01*
X162893152Y-56211961D01*
X162714580Y-56116723D01*
X162643152Y-55926247D01*
X162738390Y-55164342D01*
X162857438Y-54973866D01*
X163059819Y-54878628D01*
X163440771Y-54878628D01*
X163619342Y-54973866D01*
X163690771Y-55164342D01*
X163666961Y-55354819D01*
X162690771Y-55545295D01*
X164416961Y-56211961D02*
X164583628Y-54878628D01*
X164536009Y-55259580D02*
X164655057Y-55069104D01*
X164762200Y-54973866D01*
X164964580Y-54878628D01*
X165155057Y-54878628D01*
X167976485Y-55164342D02*
X168250295Y-55259580D01*
X168333628Y-55354819D01*
X168405057Y-55545295D01*
X168369342Y-55831009D01*
X168250295Y-56021485D01*
X168143152Y-56116723D01*
X167940771Y-56211961D01*
X167178866Y-56211961D01*
X167428866Y-54211961D01*
X168095533Y-54211961D01*
X168274104Y-54307200D01*
X168357438Y-54402438D01*
X168428866Y-54592914D01*
X168405057Y-54783390D01*
X168286009Y-54973866D01*
X168178866Y-55069104D01*
X167976485Y-55164342D01*
X167309819Y-55164342D01*
X169178866Y-56211961D02*
X169345533Y-54878628D01*
X169297914Y-55259580D02*
X169416961Y-55069104D01*
X169524104Y-54973866D01*
X169726485Y-54878628D01*
X169916961Y-54878628D01*
X170416961Y-56211961D02*
X170583628Y-54878628D01*
X170666961Y-54211961D02*
X170559819Y-54307200D01*
X170643152Y-54402438D01*
X170750295Y-54307200D01*
X170666961Y-54211961D01*
X170643152Y-54402438D01*
X172226485Y-56211961D02*
X172476485Y-54211961D01*
X172238390Y-56116723D02*
X172036009Y-56211961D01*
X171655057Y-56211961D01*
X171476485Y-56116723D01*
X171393152Y-56021485D01*
X171321723Y-55831009D01*
X171393152Y-55259580D01*
X171512200Y-55069104D01*
X171619342Y-54973866D01*
X171821723Y-54878628D01*
X172202676Y-54878628D01*
X172381247Y-54973866D01*
X174202676Y-54878628D02*
X174000295Y-56497676D01*
X173881247Y-56688152D01*
X173774104Y-56783390D01*
X173571723Y-56878628D01*
X173286009Y-56878628D01*
X173107438Y-56783390D01*
X174047914Y-56116723D02*
X173845533Y-56211961D01*
X173464580Y-56211961D01*
X173286009Y-56116723D01*
X173202676Y-56021485D01*
X173131247Y-55831009D01*
X173202676Y-55259580D01*
X173321723Y-55069104D01*
X173428866Y-54973866D01*
X173631247Y-54878628D01*
X174012200Y-54878628D01*
X174190771Y-54973866D01*
X175762200Y-56116723D02*
X175559819Y-56211961D01*
X175178866Y-56211961D01*
X175000295Y-56116723D01*
X174928866Y-55926247D01*
X175024104Y-55164342D01*
X175143152Y-54973866D01*
X175345533Y-54878628D01*
X175726485Y-54878628D01*
X175905057Y-54973866D01*
X175976485Y-55164342D01*
X175952676Y-55354819D01*
X174976485Y-55545295D01*
D10*
D11*
X121934342Y-51600057D02*
X121434342Y-51600057D01*
X121434342Y-52385771D02*
X121434342Y-50885771D01*
X122148628Y-50885771D01*
X122720057Y-52385771D02*
X122720057Y-51385771D01*
X122720057Y-50885771D02*
X122648628Y-50957200D01*
X122720057Y-51028628D01*
X122791485Y-50957200D01*
X122720057Y-50885771D01*
X122720057Y-51028628D01*
X123648628Y-52385771D02*
X123505771Y-52314342D01*
X123434342Y-52171485D01*
X123434342Y-50885771D01*
X124791485Y-52314342D02*
X124648628Y-52385771D01*
X124362914Y-52385771D01*
X124220057Y-52314342D01*
X124148628Y-52171485D01*
X124148628Y-51600057D01*
X124220057Y-51457200D01*
X124362914Y-51385771D01*
X124648628Y-51385771D01*
X124791485Y-51457200D01*
X124862914Y-51600057D01*
X124862914Y-51742914D01*
X124148628Y-51885771D01*
X125505771Y-52242914D02*
X125577200Y-52314342D01*
X125505771Y-52385771D01*
X125434342Y-52314342D01*
X125505771Y-52242914D01*
X125505771Y-52385771D01*
X125505771Y-51457200D02*
X125577200Y-51528628D01*
X125505771Y-51600057D01*
X125434342Y-51528628D01*
X125505771Y-51457200D01*
X125505771Y-51600057D01*
X128005771Y-52385771D02*
X128005771Y-50885771D01*
X128005771Y-52314342D02*
X127862914Y-52385771D01*
X127577200Y-52385771D01*
X127434342Y-52314342D01*
X127362914Y-52242914D01*
X127291485Y-52100057D01*
X127291485Y-51671485D01*
X127362914Y-51528628D01*
X127434342Y-51457200D01*
X127577200Y-51385771D01*
X127862914Y-51385771D01*
X128005771Y-51457200D01*
X128720057Y-52385771D02*
X128720057Y-51385771D01*
X128720057Y-51528628D02*
X128791485Y-51457200D01*
X128934342Y-51385771D01*
X129148628Y-51385771D01*
X129291485Y-51457200D01*
X129362914Y-51600057D01*
X129362914Y-52385771D01*
X129362914Y-51600057D02*
X129434342Y-51457200D01*
X129577200Y-51385771D01*
X129791485Y-51385771D01*
X129934342Y-51457200D01*
X130005771Y-51600057D01*
X130005771Y-52385771D01*
X131291485Y-52314342D02*
X131148628Y-52385771D01*
X130862914Y-52385771D01*
X130720057Y-52314342D01*
X130648628Y-52171485D01*
X130648628Y-51600057D01*
X130720057Y-51457200D01*
X130862914Y-51385771D01*
X131148628Y-51385771D01*
X131291485Y-51457200D01*
X131362914Y-51600057D01*
X131362914Y-51742914D01*
X130648628Y-51885771D01*
X131791485Y-51385771D02*
X132362914Y-51385771D01*
X132005771Y-50885771D02*
X132005771Y-52171485D01*
X132077200Y-52314342D01*
X132220057Y-52385771D01*
X132362914Y-52385771D01*
X133434342Y-52314342D02*
X133291485Y-52385771D01*
X133005771Y-52385771D01*
X132862914Y-52314342D01*
X132791485Y-52171485D01*
X132791485Y-51600057D01*
X132862914Y-51457200D01*
X133005771Y-51385771D01*
X133291485Y-51385771D01*
X133434342Y-51457200D01*
X133505771Y-51600057D01*
X133505771Y-51742914D01*
X132791485Y-51885771D01*
X134148628Y-52385771D02*
X134148628Y-51385771D01*
X134148628Y-51671485D02*
X134220057Y-51528628D01*
X134291485Y-51457200D01*
X134434342Y-51385771D01*
X134577200Y-51385771D01*
X135077200Y-52242914D02*
X135148628Y-52314342D01*
X135077200Y-52385771D01*
X135005771Y-52314342D01*
X135077200Y-52242914D01*
X135077200Y-52385771D01*
X135791485Y-52385771D02*
X135791485Y-50885771D01*
X135934342Y-51814342D02*
X136362914Y-52385771D01*
X136362914Y-51385771D02*
X135791485Y-51957200D01*
X137005771Y-52385771D02*
X137005771Y-51385771D01*
X137005771Y-50885771D02*
X136934342Y-50957200D01*
X137005771Y-51028628D01*
X137077200Y-50957200D01*
X137005771Y-50885771D01*
X137005771Y-51028628D01*
X138362914Y-52314342D02*
X138220057Y-52385771D01*
X137934342Y-52385771D01*
X137791485Y-52314342D01*
X137720057Y-52242914D01*
X137648628Y-52100057D01*
X137648628Y-51671485D01*
X137720057Y-51528628D01*
X137791485Y-51457200D01*
X137934342Y-51385771D01*
X138220057Y-51385771D01*
X138362914Y-51457200D01*
X139648628Y-52385771D02*
X139648628Y-51600057D01*
X139577200Y-51457200D01*
X139434342Y-51385771D01*
X139148628Y-51385771D01*
X139005771Y-51457200D01*
X139648628Y-52314342D02*
X139505771Y-52385771D01*
X139148628Y-52385771D01*
X139005771Y-52314342D01*
X138934342Y-52171485D01*
X138934342Y-52028628D01*
X139005771Y-51885771D01*
X139148628Y-51814342D01*
X139505771Y-51814342D01*
X139648628Y-51742914D01*
X141005771Y-52385771D02*
X141005771Y-50885771D01*
X141005771Y-52314342D02*
X140862914Y-52385771D01*
X140577200Y-52385771D01*
X140434342Y-52314342D01*
X140362914Y-52242914D01*
X140291485Y-52100057D01*
X140291485Y-51671485D01*
X140362914Y-51528628D01*
X140434342Y-51457200D01*
X140577200Y-51385771D01*
X140862914Y-51385771D01*
X141005771Y-51457200D01*
X141362914Y-52528628D02*
X142505771Y-52528628D01*
X142862914Y-51385771D02*
X142862914Y-52885771D01*
X142862914Y-51457200D02*
X143005771Y-51385771D01*
X143291485Y-51385771D01*
X143434342Y-51457200D01*
X143505771Y-51528628D01*
X143577200Y-51671485D01*
X143577200Y-52100057D01*
X143505771Y-52242914D01*
X143434342Y-52314342D01*
X143291485Y-52385771D01*
X143005771Y-52385771D01*
X142862914Y-52314342D01*
X144862914Y-52314342D02*
X144720057Y-52385771D01*
X144434342Y-52385771D01*
X144291485Y-52314342D01*
X144220057Y-52242914D01*
X144148628Y-52100057D01*
X144148628Y-51671485D01*
X144220057Y-51528628D01*
X144291485Y-51457200D01*
X144434342Y-51385771D01*
X144720057Y-51385771D01*
X144862914Y-51457200D01*
X145505771Y-52385771D02*
X145505771Y-50885771D01*
X145505771Y-51457200D02*
X145648628Y-51385771D01*
X145934342Y-51385771D01*
X146077200Y-51457200D01*
X146148628Y-51528628D01*
X146220057Y-51671485D01*
X146220057Y-52100057D01*
X146148628Y-52242914D01*
X146077200Y-52314342D01*
X145934342Y-52385771D01*
X145648628Y-52385771D01*
X145505771Y-52314342D01*
D10*
D11*
X120002200Y-47507200D02*
X228002200Y-47507200D01*
D10*
D11*
X121362914Y-49614342D02*
X121577200Y-49685771D01*
X121934342Y-49685771D01*
X122077200Y-49614342D01*
X122148628Y-49542914D01*
X122220057Y-49400057D01*
X122220057Y-49257200D01*
X122148628Y-49114342D01*
X122077200Y-49042914D01*
X121934342Y-48971485D01*
X121648628Y-48900057D01*
X121505771Y-48828628D01*
X121434342Y-48757200D01*
X121362914Y-48614342D01*
X121362914Y-48471485D01*
X121434342Y-48328628D01*
X121505771Y-48257200D01*
X121648628Y-48185771D01*
X122005771Y-48185771D01*
X122220057Y-48257200D01*
X122862914Y-49685771D02*
X122862914Y-48185771D01*
X123505771Y-49685771D02*
X123505771Y-48900057D01*
X123434342Y-48757200D01*
X123291485Y-48685771D01*
X123077200Y-48685771D01*
X122934342Y-48757200D01*
X122862914Y-48828628D01*
X124791485Y-49614342D02*
X124648628Y-49685771D01*
X124362914Y-49685771D01*
X124220057Y-49614342D01*
X124148628Y-49471485D01*
X124148628Y-48900057D01*
X124220057Y-48757200D01*
X124362914Y-48685771D01*
X124648628Y-48685771D01*
X124791485Y-48757200D01*
X124862914Y-48900057D01*
X124862914Y-49042914D01*
X124148628Y-49185771D01*
X126077200Y-49614342D02*
X125934342Y-49685771D01*
X125648628Y-49685771D01*
X125505771Y-49614342D01*
X125434342Y-49471485D01*
X125434342Y-48900057D01*
X125505771Y-48757200D01*
X125648628Y-48685771D01*
X125934342Y-48685771D01*
X126077200Y-48757200D01*
X126148628Y-48900057D01*
X126148628Y-49042914D01*
X125434342Y-49185771D01*
X126577200Y-48685771D02*
X127148628Y-48685771D01*
X126791485Y-48185771D02*
X126791485Y-49471485D01*
X126862914Y-49614342D01*
X127005771Y-49685771D01*
X127148628Y-49685771D01*
X127648628Y-49542914D02*
X127720057Y-49614342D01*
X127648628Y-49685771D01*
X127577200Y-49614342D01*
X127648628Y-49542914D01*
X127648628Y-49685771D01*
X127648628Y-48757200D02*
X127720057Y-48828628D01*
X127648628Y-48900057D01*
X127577200Y-48828628D01*
X127648628Y-48757200D01*
X127648628Y-48900057D01*
D10*
D12*
X122411485Y-46542914D02*
X122340057Y-46614342D01*
X122125771Y-46685771D01*
X121982914Y-46685771D01*
X121768628Y-46614342D01*
X121625771Y-46471485D01*
X121554342Y-46328628D01*
X121482914Y-46042914D01*
X121482914Y-45828628D01*
X121554342Y-45542914D01*
X121625771Y-45400057D01*
X121768628Y-45257200D01*
X121982914Y-45185771D01*
X122125771Y-45185771D01*
X122340057Y-45257200D01*
X122411485Y-45328628D01*
X123268628Y-46685771D02*
X123125771Y-46614342D01*
X123054342Y-46542914D01*
X122982914Y-46400057D01*
X122982914Y-45971485D01*
X123054342Y-45828628D01*
X123125771Y-45757200D01*
X123268628Y-45685771D01*
X123482914Y-45685771D01*
X123625771Y-45757200D01*
X123697200Y-45828628D01*
X123768628Y-45971485D01*
X123768628Y-46400057D01*
X123697200Y-46542914D01*
X123625771Y-46614342D01*
X123482914Y-46685771D01*
X123268628Y-46685771D01*
X124411485Y-45685771D02*
X124411485Y-47185771D01*
X124411485Y-45757200D02*
X124554342Y-45685771D01*
X124840057Y-45685771D01*
X124982914Y-45757200D01*
X125054342Y-45828628D01*
X125125771Y-45971485D01*
X125125771Y-46400057D01*
X125054342Y-46542914D01*
X124982914Y-46614342D01*
X124840057Y-46685771D01*
X124554342Y-46685771D01*
X124411485Y-46614342D01*
X125625771Y-45685771D02*
X125982914Y-46685771D01*
X126340057Y-45685771D02*
X125982914Y-46685771D01*
X125840057Y-47042914D01*
X125768628Y-47114342D01*
X125625771Y-47185771D01*
X126911485Y-46685771D02*
X126911485Y-45685771D01*
X126911485Y-45971485D02*
X126982914Y-45828628D01*
X127054342Y-45757200D01*
X127197200Y-45685771D01*
X127340057Y-45685771D01*
X127840057Y-46685771D02*
X127840057Y-45685771D01*
X127840057Y-45185771D02*
X127768628Y-45257200D01*
X127840057Y-45328628D01*
X127911485Y-45257200D01*
X127840057Y-45185771D01*
X127840057Y-45328628D01*
X129197200Y-45685771D02*
X129197200Y-46900057D01*
X129125771Y-47042914D01*
X129054342Y-47114342D01*
X128911485Y-47185771D01*
X128697200Y-47185771D01*
X128554342Y-47114342D01*
X129197200Y-46614342D02*
X129054342Y-46685771D01*
X128768628Y-46685771D01*
X128625771Y-46614342D01*
X128554342Y-46542914D01*
X128482914Y-46400057D01*
X128482914Y-45971485D01*
X128554342Y-45828628D01*
X128625771Y-45757200D01*
X128768628Y-45685771D01*
X129054342Y-45685771D01*
X129197200Y-45757200D01*
X129911485Y-46685771D02*
X129911485Y-45185771D01*
X130554342Y-46685771D02*
X130554342Y-45900057D01*
X130482914Y-45757200D01*
X130340057Y-45685771D01*
X130125771Y-45685771D01*
X129982914Y-45757200D01*
X129911485Y-45828628D01*
X131054342Y-45685771D02*
X131625771Y-45685771D01*
X131268628Y-45185771D02*
X131268628Y-46471485D01*
X131340057Y-46614342D01*
X131482914Y-46685771D01*
X131625771Y-46685771D01*
X134482914Y-45542914D02*
X134340057Y-45471485D01*
X134054342Y-45471485D01*
X133911485Y-45542914D01*
X133768628Y-45685771D01*
X133697200Y-45828628D01*
X133697200Y-46114342D01*
X133768628Y-46257200D01*
X133911485Y-46400057D01*
X134054342Y-46471485D01*
X134340057Y-46471485D01*
X134482914Y-46400057D01*
X134197200Y-44971485D02*
X133840057Y-45042914D01*
X133482914Y-45257200D01*
X133268628Y-45614342D01*
X133197200Y-45971485D01*
X133268628Y-46328628D01*
X133482914Y-46685771D01*
X133840057Y-46900057D01*
X134197200Y-46971485D01*
X134554342Y-46900057D01*
X134911485Y-46685771D01*
X135125771Y-46328628D01*
X135197200Y-45971485D01*
X135125771Y-45614342D01*
X134911485Y-45257200D01*
X134554342Y-45042914D01*
X134197200Y-44971485D01*
X136911485Y-45328628D02*
X136982914Y-45257200D01*
X137125771Y-45185771D01*
X137482914Y-45185771D01*
X137625771Y-45257200D01*
X137697200Y-45328628D01*
X137768628Y-45471485D01*
X137768628Y-45614342D01*
X137697200Y-45828628D01*
X136840057Y-46685771D01*
X137768628Y-46685771D01*
X138697200Y-45185771D02*
X138840057Y-45185771D01*
X138982914Y-45257200D01*
X139054342Y-45328628D01*
X139125771Y-45471485D01*
X139197200Y-45757200D01*
X139197200Y-46114342D01*
X139125771Y-46400057D01*
X139054342Y-46542914D01*
X138982914Y-46614342D01*
X138840057Y-46685771D01*
X138697200Y-46685771D01*
X138554342Y-46614342D01*
X138482914Y-46542914D01*
X138411485Y-46400057D01*
X138340057Y-46114342D01*
X138340057Y-45757200D01*
X138411485Y-45471485D01*
X138482914Y-45328628D01*
X138554342Y-45257200D01*
X138697200Y-45185771D01*
X139768628Y-45328628D02*
X139840057Y-45257200D01*
X139982914Y-45185771D01*
X140340057Y-45185771D01*
X140482914Y-45257200D01*
X140554342Y-45328628D01*
X140625771Y-45471485D01*
X140625771Y-45614342D01*
X140554342Y-45828628D01*
X139697200Y-46685771D01*
X140625771Y-46685771D01*
X142054342Y-46685771D02*
X141197200Y-46685771D01*
X141625771Y-46685771D02*
X141625771Y-45185771D01*
X141482914Y-45400057D01*
X141340057Y-45542914D01*
X141197200Y-45614342D01*
X143625771Y-45185771D02*
X144482914Y-45185771D01*
X144054342Y-46685771D02*
X144054342Y-45185771D01*
X145625771Y-46685771D02*
X145625771Y-45900057D01*
X145554342Y-45757200D01*
X145411485Y-45685771D01*
X145125771Y-45685771D01*
X144982914Y-45757200D01*
X145625771Y-46614342D02*
X145482914Y-46685771D01*
X145125771Y-46685771D01*
X144982914Y-46614342D01*
X144911485Y-46471485D01*
X144911485Y-46328628D01*
X144982914Y-46185771D01*
X145125771Y-46114342D01*
X145482914Y-46114342D01*
X145625771Y-46042914D01*
X146340057Y-46685771D02*
X146340057Y-45685771D01*
X146340057Y-45971485D02*
X146411485Y-45828628D01*
X146482914Y-45757200D01*
X146625771Y-45685771D01*
X146768628Y-45685771D01*
X147482914Y-46685771D02*
X147340057Y-46614342D01*
X147268628Y-46542914D01*
X147197200Y-46400057D01*
X147197200Y-45971485D01*
X147268628Y-45828628D01*
X147340057Y-45757200D01*
X147482914Y-45685771D01*
X147697200Y-45685771D01*
X147840057Y-45757200D01*
X147911485Y-45828628D01*
X147982914Y-45971485D01*
X147982914Y-46400057D01*
X147911485Y-46542914D01*
X147840057Y-46614342D01*
X147697200Y-46685771D01*
X147482914Y-46685771D01*
X148411485Y-45685771D02*
X148982914Y-45685771D01*
X148625771Y-45185771D02*
X148625771Y-46471485D01*
X148697200Y-46614342D01*
X148840057Y-46685771D01*
X148982914Y-46685771D01*
X150554342Y-46614342D02*
X150768628Y-46685771D01*
X151125771Y-46685771D01*
X151268628Y-46614342D01*
X151340057Y-46542914D01*
X151411485Y-46400057D01*
X151411485Y-46257200D01*
X151340057Y-46114342D01*
X151268628Y-46042914D01*
X151125771Y-45971485D01*
X150840057Y-45900057D01*
X150697200Y-45828628D01*
X150625771Y-45757200D01*
X150554342Y-45614342D01*
X150554342Y-45471485D01*
X150625771Y-45328628D01*
X150697200Y-45257200D01*
X150840057Y-45185771D01*
X151197200Y-45185771D01*
X151411485Y-45257200D01*
X151911485Y-45685771D02*
X152268628Y-46685771D01*
X152625771Y-45685771D02*
X152268628Y-46685771D01*
X152125771Y-47042914D01*
X152054342Y-47114342D01*
X151911485Y-47185771D01*
X153125771Y-46614342D02*
X153268628Y-46685771D01*
X153554342Y-46685771D01*
X153697200Y-46614342D01*
X153768628Y-46471485D01*
X153768628Y-46400057D01*
X153697200Y-46257200D01*
X153554342Y-46185771D01*
X153340057Y-46185771D01*
X153197200Y-46114342D01*
X153125771Y-45971485D01*
X153125771Y-45900057D01*
X153197200Y-45757200D01*
X153340057Y-45685771D01*
X153554342Y-45685771D01*
X153697200Y-45757200D01*
X154197200Y-45685771D02*
X154768628Y-45685771D01*
X154411485Y-45185771D02*
X154411485Y-46471485D01*
X154482914Y-46614342D01*
X154625771Y-46685771D01*
X154768628Y-46685771D01*
X155840057Y-46614342D02*
X155697200Y-46685771D01*
X155411485Y-46685771D01*
X155268628Y-46614342D01*
X155197200Y-46471485D01*
X155197200Y-45900057D01*
X155268628Y-45757200D01*
X155411485Y-45685771D01*
X155697200Y-45685771D01*
X155840057Y-45757200D01*
X155911485Y-45900057D01*
X155911485Y-46042914D01*
X155197200Y-46185771D01*
X156554342Y-46685771D02*
X156554342Y-45685771D01*
X156554342Y-45828628D02*
X156625771Y-45757200D01*
X156768628Y-45685771D01*
X156982914Y-45685771D01*
X157125771Y-45757200D01*
X157197200Y-45900057D01*
X157197200Y-46685771D01*
X157197200Y-45900057D02*
X157268628Y-45757200D01*
X157411485Y-45685771D01*
X157625771Y-45685771D01*
X157768628Y-45757200D01*
X157840057Y-45900057D01*
X157840057Y-46685771D01*
X158482914Y-46614342D02*
X158625771Y-46685771D01*
X158911485Y-46685771D01*
X159054342Y-46614342D01*
X159125771Y-46471485D01*
X159125771Y-46400057D01*
X159054342Y-46257200D01*
X158911485Y-46185771D01*
X158697200Y-46185771D01*
X158554342Y-46114342D01*
X158482914Y-45971485D01*
X158482914Y-45900057D01*
X158554342Y-45757200D01*
X158697200Y-45685771D01*
X158911485Y-45685771D01*
X159054342Y-45757200D01*
D10*
D11*
X140002200Y-57507200D02*
X140002200Y-60507200D01*
D10*
D11*
X204002200Y-57507200D02*
X204002200Y-64007200D01*
%LPC*%
D14*
X92500000Y41750000D03*
X89960000Y41750000D03*
X87420000Y41750000D03*
X92500000Y63000000D03*
X89960000Y63000000D03*
X87420000Y63000000D03*
X99250000Y49750000D03*
X99250000Y52290000D03*
X99250000Y54830000D03*
D15*
X20250000Y47000000D03*
D16*
X12630000Y47000000D03*
D15*
X20250000Y52250000D03*
D16*
X12630000Y52250000D03*
D15*
X20250000Y57500000D03*
D16*
X12630000Y57500000D03*
D15*
X20250000Y41750000D03*
D16*
X12630000Y41750000D03*
D15*
X12600000Y36500000D03*
D16*
X20220000Y36500000D03*
D15*
X80000000Y37850000D03*
D16*
X80000000Y45470000D03*
D15*
X76750000Y45500000D03*
D16*
X76750000Y37880000D03*
D15*
X80000000Y66900000D03*
D16*
X80000000Y59280000D03*
D15*
X76750000Y59250000D03*
D16*
X76750000Y66870000D03*
D15*
X65000000Y45500000D03*
D16*
X65000000Y37880000D03*
D15*
X65000000Y59250000D03*
D16*
X65000000Y66870000D03*
D15*
X83250000Y37850000D03*
D16*
X83250000Y45470000D03*
D15*
X61750000Y37850000D03*
D16*
X61750000Y45470000D03*
D15*
X73500000Y45500000D03*
D16*
X73500000Y37880000D03*
D15*
X61750000Y66900000D03*
D16*
X61750000Y59280000D03*
D15*
X73500000Y59250000D03*
D16*
X73500000Y66870000D03*
D15*
X53000000Y37850000D03*
D16*
X53000000Y45470000D03*
D15*
X53000000Y66900000D03*
D16*
X53000000Y59280000D03*
D15*
X46500000Y45500000D03*
D16*
X46500000Y37880000D03*
D15*
X46500000Y59250000D03*
D16*
X46500000Y66870000D03*
D15*
X49750000Y45500000D03*
D16*
X49750000Y37880000D03*
D15*
X83250000Y66900000D03*
D16*
X83250000Y59280000D03*
D15*
X49750000Y59250000D03*
D16*
X49750000Y66870000D03*
D15*
X34500000Y45500000D03*
D16*
X34500000Y37880000D03*
D15*
X34500000Y59250000D03*
D16*
X34500000Y66870000D03*
D15*
X174750000Y29000000D03*
D16*
X174750000Y36620000D03*
D15*
X174750000Y18750000D03*
D16*
X174750000Y26370000D03*
D15*
X120750000Y26750000D03*
D16*
X128370000Y26750000D03*
D15*
X72000000Y27000000D03*
D16*
X72000000Y19380000D03*
D15*
X105750000Y25500000D03*
D16*
X98130000Y25500000D03*
D15*
X129000000Y13000000D03*
D16*
X129000000Y20620000D03*
D15*
X153500000Y34250000D03*
D16*
X153500000Y26630000D03*
D17*
X181000000Y68000000D03*
X4000000Y68000000D03*
X181000000Y12000000D03*
X4000000Y12000000D03*
D18*
X93500000Y56250000D03*
D19*
X85880000Y48630000D03*
X90960000Y56250000D03*
X88420000Y48630000D03*
X88420000Y56250000D03*
X90960000Y48630000D03*
X85880000Y56250000D03*
X93500000Y48630000D03*
D15*
X168500000Y30000000D03*
X163500000Y30000000D03*
X140500000Y30000000D03*
X135500000Y30000000D03*
X116500000Y30000000D03*
X111500000Y30000000D03*
X82000000Y30000000D03*
X77000000Y30000000D03*
X49500000Y30000000D03*
X44500000Y30000000D03*
X19000000Y30000000D03*
X14000000Y30000000D03*
X82750000Y55000000D03*
X82750000Y50000000D03*
X66000000Y54750000D03*
X66000000Y49750000D03*
X49250000Y54750000D03*
X49250000Y49750000D03*
X32500000Y55000000D03*
X32500000Y50000000D03*
D20*
X169750000Y11500000D03*
D21*
X162130000Y26740000D03*
X169750000Y14040000D03*
X162130000Y24200000D03*
X169750000Y16580000D03*
X162130000Y21660000D03*
X169750000Y19120000D03*
X162130000Y19120000D03*
X169750000Y21660000D03*
X162130000Y16580000D03*
X169750000Y24200000D03*
X162130000Y14040000D03*
X169750000Y26740000D03*
X162130000Y11500000D03*
D20*
X20250000Y11500000D03*
D21*
X12630000Y26740000D03*
X20250000Y14040000D03*
X12630000Y24200000D03*
X20250000Y16580000D03*
X12630000Y21660000D03*
X20250000Y19120000D03*
X12630000Y19120000D03*
X20250000Y21660000D03*
X12630000Y16580000D03*
X20250000Y24200000D03*
X12630000Y14040000D03*
X20250000Y26740000D03*
X12630000Y11500000D03*
D20*
X141750000Y11500000D03*
D21*
X134130000Y26740000D03*
X141750000Y14040000D03*
X134130000Y24200000D03*
X141750000Y16580000D03*
X134130000Y21660000D03*
X141750000Y19120000D03*
X134130000Y19120000D03*
X141750000Y21660000D03*
X134130000Y16580000D03*
X141750000Y24200000D03*
X134130000Y14040000D03*
X141750000Y26740000D03*
X134130000Y11500000D03*
D20*
X117750000Y11500000D03*
D21*
X110130000Y26740000D03*
X117750000Y14040000D03*
X110130000Y24200000D03*
X117750000Y16580000D03*
X110130000Y21660000D03*
X117750000Y19120000D03*
X110130000Y19120000D03*
X117750000Y21660000D03*
X110130000Y16580000D03*
X117750000Y24200000D03*
X110130000Y14040000D03*
X117750000Y26740000D03*
X110130000Y11500000D03*
D20*
X83250000Y11500000D03*
D21*
X75630000Y26740000D03*
X83250000Y14040000D03*
X75630000Y24200000D03*
X83250000Y16580000D03*
X75630000Y21660000D03*
X83250000Y19120000D03*
X75630000Y19120000D03*
X83250000Y21660000D03*
X75630000Y16580000D03*
X83250000Y24200000D03*
X75630000Y14040000D03*
X83250000Y26740000D03*
X75630000Y11500000D03*
D20*
X50750000Y11500000D03*
D21*
X43130000Y26740000D03*
X50750000Y14040000D03*
X43130000Y24200000D03*
X50750000Y16580000D03*
X43130000Y21660000D03*
X50750000Y19120000D03*
X43130000Y19120000D03*
X50750000Y21660000D03*
X43130000Y16580000D03*
X50750000Y24200000D03*
X43130000Y14040000D03*
X50750000Y26740000D03*
X43130000Y11500000D03*
D19*
X76750000Y48630000D03*
X69130000Y56250000D03*
X74210000Y48630000D03*
X71670000Y56250000D03*
X71670000Y48630000D03*
X74210000Y56250000D03*
X69130000Y48630000D03*
D18*
X76750000Y56250000D03*
D19*
X60000000Y48630000D03*
X52380000Y56250000D03*
X57460000Y48630000D03*
X54920000Y56250000D03*
X54920000Y48630000D03*
X57460000Y56250000D03*
X52380000Y48630000D03*
D18*
X60000000Y56250000D03*
D19*
X43250000Y48630000D03*
X35630000Y56250000D03*
X40710000Y48630000D03*
X38170000Y56250000D03*
X38170000Y48630000D03*
X40710000Y56250000D03*
X35630000Y48630000D03*
D18*
X43250000Y56250000D03*
D22*
X8520000Y47000000D03*
X9790000Y47000000D03*
D23*
X7250000Y47000000D03*
D22*
X8520000Y52250000D03*
X9790000Y52250000D03*
D23*
X7250000Y52250000D03*
D22*
X8520000Y57500000D03*
X9790000Y57500000D03*
D23*
X7250000Y57500000D03*
D22*
X8520000Y41750000D03*
X9790000Y41750000D03*
D23*
X7250000Y41750000D03*
D22*
X8520000Y36500000D03*
X9790000Y36500000D03*
D23*
X7250000Y36500000D03*
D24*
X25500000Y50000000D03*
D25*
X25500000Y52500000D03*
X25500000Y55000000D03*
X25500000Y57500000D03*
X25500000Y60000000D03*
X25500000Y62500000D03*
X25500000Y65000000D03*
D26*
X178250000Y5000000D03*
D27*
X175710000Y5000000D03*
D26*
X171750000Y5000000D03*
D27*
X169210000Y5000000D03*
D26*
X165250000Y5000000D03*
D27*
X162710000Y5000000D03*
D26*
X158750000Y5000000D03*
D27*
X156210000Y5000000D03*
D26*
X152250000Y5000000D03*
D27*
X149710000Y5000000D03*
D26*
X145750000Y5000000D03*
D27*
X143210000Y5000000D03*
D26*
X97750000Y5000000D03*
D27*
X100290000Y5000000D03*
D26*
X104250000Y5000000D03*
D27*
X106790000Y5000000D03*
D26*
X110750000Y5000000D03*
D27*
X113290000Y5000000D03*
D26*
X117250000Y5000000D03*
D27*
X119790000Y5000000D03*
D26*
X123750000Y5000000D03*
D27*
X126290000Y5000000D03*
D26*
X130250000Y5000000D03*
D27*
X132790000Y5000000D03*
D26*
X52250000Y5000000D03*
D27*
X54790000Y5000000D03*
D26*
X58750000Y5000000D03*
D27*
X61290000Y5000000D03*
D26*
X65250000Y5000000D03*
D27*
X67790000Y5000000D03*
D26*
X71750000Y5000000D03*
D27*
X74290000Y5000000D03*
D26*
X78210000Y5000000D03*
D27*
X80750000Y5000000D03*
D26*
X84750000Y5000000D03*
D27*
X87290000Y5000000D03*
D26*
X41750000Y5000000D03*
D27*
X39210000Y5000000D03*
D26*
X35250000Y5000000D03*
D27*
X32710000Y5000000D03*
D26*
X28750000Y5000000D03*
D27*
X26210000Y5000000D03*
D26*
X22250000Y5000000D03*
D27*
X19710000Y5000000D03*
D26*
X15750000Y5000000D03*
D27*
X13210000Y5000000D03*
D26*
X9290000Y5000000D03*
D27*
X6750000Y5000000D03*
D16*
X58750000Y37880000D03*
D28*
X58750000Y45500000D03*
D16*
X58750000Y66870000D03*
D28*
X58750000Y59250000D03*
D16*
X56000000Y45470000D03*
D28*
X56000000Y37850000D03*
D16*
X56000000Y59280000D03*
D28*
X56000000Y66900000D03*
D16*
X43500000Y37880000D03*
D28*
X43500000Y45500000D03*
D16*
X43500000Y66870000D03*
D28*
X43500000Y59250000D03*
D16*
X40750000Y37880000D03*
D28*
X40750000Y45500000D03*
D16*
X40750000Y66870000D03*
D28*
X40750000Y59250000D03*
D15*
X69250000Y39250000D03*
X69250000Y44250000D03*
X69250000Y65500000D03*
X69250000Y60500000D03*
X37750000Y40500000D03*
X37750000Y43000000D03*
X37750000Y64250000D03*
X37750000Y61750000D03*
D28*
X30000000Y33750000D03*
D15*
X27500000Y33750000D03*
D28*
X25500000Y41500000D03*
D15*
X28000000Y41500000D03*
M02*
