M48
; DRILL file {KiCad (5.1.2)-2} date 08/02/2021 23:51:55
; FORMAT={-:-/ absolute / metric / decimal}
; #@! TF.CreationDate,2021-02-08T23:51:55+00:00
; #@! TF.GenerationSoftware,Kicad,Pcbnew,(5.1.2)-2
FMAT,2
METRIC
T1C0.600
T2C0.762
T3C0.800
T4C0.900
T5C1.000
T6C1.100
T7C1.200
T8C1.400
T9C1.500
T10C2.800
T11C3.200
T12C3.500
%
G90
G05
T1
X92.96Y59.75
X94.23Y59.75
X95.5Y59.75
X72.75Y31.75
X74.02Y31.75
X75.29Y31.75
X47.46Y21.25
X48.73Y21.25
X50.0Y21.25
X67.0Y36.5
X68.27Y36.5
X69.54Y36.5
X42.0Y20.5
X43.27Y20.5
X44.54Y20.5
X94.25Y31.75
X95.52Y31.75
X96.79Y31.75
X66.96Y32.25
X68.23Y32.25
X69.5Y32.25
X88.75Y31.75
X90.02Y31.75
X91.29Y31.75
X67.75Y59.0
X69.02Y59.0
X70.29Y59.0
T2
X36.75Y65.0
X39.25Y65.0
X41.75Y65.0
X3.9Y16.25
X3.9Y10.75
X8.1Y16.25
X8.1Y10.75
X104.25Y65.0
X104.25Y62.5
X106.75Y65.0
X106.75Y62.5
X109.25Y65.0
X109.25Y62.5
X126.75Y65.0
X129.25Y65.0
X131.75Y65.0
X81.75Y65.0
X81.75Y62.5
X84.25Y65.0
X84.25Y62.5
X86.75Y65.0
X86.75Y62.5
X59.25Y65.0
X61.75Y65.0
X64.25Y65.0
T3
X113.75Y45.75
X118.75Y45.75
X67.25Y9.25
X74.87Y9.25
X55.0Y45.75
X60.0Y45.75
X54.75Y34.5
X59.75Y34.5
X67.28Y22.25
X74.9Y22.25
X79.0Y45.75
X84.0Y45.75
X88.28Y46.0
X95.9Y46.0
X88.25Y52.5
X95.87Y52.5
X124.5Y20.25
X129.5Y20.25
X101.78Y26.75
X109.4Y26.75
X88.28Y39.5
X95.9Y39.5
X32.53Y36.5
X40.15Y36.5
X112.38Y42.62
X112.38Y40.08
X112.38Y37.54
X112.38Y35.0
X120.0Y42.62
X120.0Y40.08
X120.0Y37.54
X120.0Y35.0
X36.5Y30.62
X36.5Y23.0
X88.25Y55.5
X95.87Y55.5
X33.75Y50.25
X38.75Y50.25
X123.0Y26.75
X130.62Y26.75
X101.78Y15.75
X109.4Y15.75
X32.5Y42.75
X40.12Y42.75
X67.28Y55.5
X74.9Y55.5
X43.25Y10.25
X48.25Y10.25
X77.75Y56.5
X77.75Y53.96
X77.75Y51.42
X77.75Y48.88
X85.37Y56.5
X85.37Y53.96
X85.37Y51.42
X85.37Y48.88
X67.25Y42.75
X74.87Y42.75
X67.25Y52.5
X74.87Y52.5
X68.5Y49.25
X73.5Y49.25
X123.03Y30.0
X130.65Y30.0
X42.78Y13.5
X50.4Y13.5
X68.5Y26.75
X71.04Y26.75
X73.58Y26.75
X67.28Y15.75
X74.9Y15.75
X88.25Y21.5
X95.87Y21.5
X32.5Y33.5
X40.12Y33.5
X88.25Y18.25
X95.87Y18.25
X68.5Y6.0
X73.5Y6.0
X43.75Y50.0
X48.75Y50.0
X67.28Y19.0
X74.9Y19.0
X32.53Y45.75
X40.15Y45.75
X112.38Y25.87
X112.38Y23.33
X112.38Y20.79
X112.38Y18.25
X120.0Y25.87
X120.0Y23.33
X120.0Y20.79
X120.0Y18.25
X88.38Y6.25
X96.0Y6.25
X124.5Y23.5
X129.5Y23.5
X77.75Y28.0
X77.75Y25.46
X77.75Y22.92
X77.75Y20.38
X77.75Y17.84
X77.75Y15.3
X77.75Y12.76
X77.75Y10.22
X85.37Y28.0
X85.37Y25.46
X85.37Y22.92
X85.37Y20.38
X85.37Y17.84
X85.37Y15.3
X85.37Y12.76
X85.37Y10.22
X31.75Y30.65
X31.75Y23.03
X124.5Y33.25
X129.5Y33.25
X53.38Y14.62
X53.38Y12.08
X53.38Y9.54
X53.38Y7.0
X61.0Y14.62
X61.0Y12.08
X61.0Y9.54
X61.0Y7.0
X88.25Y36.25
X95.87Y36.25
X101.78Y36.0
X109.4Y36.0
X14.0Y49.0
X16.0Y49.0
X123.03Y36.5
X130.65Y36.5
X123.03Y43.0
X130.65Y43.0
X53.75Y42.5
X61.37Y42.5
X27.75Y61.75
X27.75Y59.75
X44.25Y33.0
X49.25Y33.0
X123.0Y46.25
X130.62Y46.25
X42.75Y25.0
X50.37Y25.0
X76.63Y39.5
X84.25Y39.5
X113.75Y29.0
X118.75Y29.0
X53.78Y55.5
X61.4Y55.5
X42.75Y7.0
X50.37Y7.0
X53.75Y39.25
X61.37Y39.25
X13.63Y60.0
X21.25Y60.0
X32.5Y18.5
X37.5Y18.5
X101.75Y42.25
X109.37Y42.25
X32.5Y39.5
X40.12Y39.5
X27.75Y67.5
X27.75Y65.5
X101.75Y39.0
X109.37Y39.0
X103.0Y31.5
X108.0Y31.5
X79.0Y7.0
X84.0Y7.0
X53.38Y31.37
X53.38Y28.83
X53.38Y26.29
X53.38Y23.75
X61.0Y31.37
X61.0Y28.83
X61.0Y26.29
X61.0Y23.75
X88.28Y42.75
X95.9Y42.75
X88.25Y28.0
X95.87Y28.0
X128.75Y52.25
X128.75Y50.25
X43.13Y46.87
X43.13Y44.33
X43.13Y41.79
X43.13Y39.25
X50.75Y46.87
X50.75Y44.33
X50.75Y41.79
X50.75Y39.25
X88.28Y24.75
X95.9Y24.75
X76.63Y36.25
X84.25Y36.25
X104.25Y19.0
X106.75Y19.0
X123.0Y17.0
X130.62Y17.0
X54.75Y17.75
X59.75Y17.75
X104.25Y23.5
X106.75Y23.5
X123.0Y39.75
X130.62Y39.75
X67.25Y12.5
X74.87Y12.5
X101.78Y45.25
X109.4Y45.25
X14.0Y54.75
X16.0Y54.75
X53.75Y52.25
X61.37Y52.25
X32.5Y68.37
X32.5Y60.75
X53.75Y49.0
X61.37Y49.0
X128.75Y58.0
X128.75Y56.0
X89.5Y49.25
X94.5Y49.25
X42.78Y28.25
X50.4Y28.25
X89.67Y13.75
X92.21Y13.75
X94.75Y13.75
X67.25Y46.0
X74.87Y46.0
X44.0Y16.75
X49.0Y16.75
X35.38Y61.0
X43.0Y61.0
T4
X17.71Y65.0
X20.25Y65.0
T5
X139.0Y23.5
X139.0Y21.0
X139.0Y18.5
X139.0Y16.0
X139.0Y13.5
X139.0Y11.0
X139.0Y8.5
X139.0Y61.5
X139.0Y59.0
X139.0Y56.5
X139.0Y39.5
X139.0Y37.0
X139.0Y34.5
X139.0Y32.0
X139.0Y29.5
X21.17Y34.5
X23.71Y34.5
X26.25Y34.5
X139.0Y50.5
X139.0Y48.0
X139.0Y45.5
X3.67Y34.5
X6.21Y34.5
X8.75Y34.5
T6
X16.25Y16.41
X16.25Y6.25
X19.75Y16.45
X19.75Y6.29
X12.75Y16.41
X12.75Y6.25
X13.25Y44.75
X13.25Y34.59
X16.75Y44.7
X16.75Y34.54
X23.25Y16.45
X23.25Y6.29
T7
X5.0Y26.5
X10.0Y26.5
X18.25Y26.5
X23.25Y26.5
T8
X4.0Y59.5
T9
X33.25Y10.0
X108.5Y9.0
X124.75Y9.0
T10
X28.0Y10.0
X33.25Y4.5
X38.5Y10.0
X103.25Y9.0
X108.5Y3.5
X113.75Y9.0
X119.5Y9.0
X124.75Y3.5
X130.0Y9.0
T11
X4.0Y4.0
X146.0Y4.0
X4.0Y66.0
X146.0Y66.0
T12
X23.71Y51.16
X6.21Y51.16
T0
M30
