M48
; DRILL file {KiCad (5.1.2)-2} date 08/01/2021 22:00:02
; FORMAT={-:-/ absolute / metric / decimal}
; #@! TF.CreationDate,2021-01-08T22:00:02+00:00
; #@! TF.GenerationSoftware,Kicad,Pcbnew,(5.1.2)-2
FMAT,2
METRIC
T1C0.800
T2C1.000
T3C1.200
T4C1.500
T5C1.600
T6C2.800
T7C1.600
T8C2.400
T9C3.200
%
G90
G05
T1
X174.5Y34.75
X174.5Y27.13
X207.0Y32.75
X207.0Y30.25
X190.75Y13.22
X190.75Y5.6
X81.0Y31.75
X81.0Y29.25
X203.75Y13.22
X203.75Y5.6
X168.0Y34.75
X168.0Y27.13
X17.5Y34.37
X17.5Y26.75
X197.13Y24.25
X197.13Y16.63
X199.67Y24.25
X199.67Y16.63
X202.21Y24.25
X202.21Y16.63
X204.75Y24.25
X204.75Y16.63
X168.0Y13.22
X168.0Y5.6
X194.0Y23.0
X194.0Y18.0
X177.75Y10.75
X177.75Y8.25
X85.25Y13.62
X85.25Y6.0
X200.5Y35.25
X200.5Y27.63
X194.0Y13.25
X194.0Y5.63
X28.0Y19.5
X28.0Y17.0
X174.5Y13.22
X174.5Y5.6
X14.25Y31.75
X14.25Y29.25
X181.0Y34.75
X181.0Y27.13
X10.88Y24.0
X10.88Y16.38
X13.42Y24.0
X13.42Y16.38
X15.96Y24.0
X15.96Y16.38
X18.5Y24.0
X18.5Y16.38
X35.0Y23.5
X35.0Y21.0
X7.75Y22.75
X7.75Y17.75
X203.75Y35.25
X203.75Y27.63
X177.75Y32.25
X177.75Y29.75
X181.0Y13.22
X181.0Y5.6
X184.25Y12.0
X184.25Y7.0
X164.75Y34.72
X164.75Y27.1
X197.25Y35.25
X197.25Y27.63
X74.5Y22.5
X74.5Y17.5
X77.63Y24.0
X77.63Y16.38
X80.17Y24.0
X80.17Y16.38
X82.71Y24.0
X82.71Y16.38
X85.25Y24.0
X85.25Y16.38
X197.25Y13.22
X197.25Y5.6
X167.88Y24.0
X167.88Y16.38
X170.42Y24.0
X170.42Y16.38
X172.96Y24.0
X172.96Y16.38
X175.5Y24.0
X175.5Y16.38
X164.75Y22.75
X164.75Y17.75
X84.25Y34.37
X84.25Y26.75
X77.75Y34.37
X77.75Y26.75
X210.25Y13.22
X210.25Y5.6
X210.25Y35.25
X210.25Y27.63
X187.5Y13.22
X187.5Y5.6
X200.5Y13.22
X200.5Y5.6
X184.25Y34.0
X184.25Y29.0
X194.0Y35.22
X194.0Y27.6
X11.0Y34.37
X11.0Y26.75
X164.75Y13.25
X164.75Y5.63
X207.0Y10.6
X207.0Y8.1
X18.5Y13.62
X18.5Y6.0
X171.25Y34.75
X171.25Y27.13
X190.75Y35.25
X190.75Y27.63
X187.5Y35.25
X187.5Y27.63
X171.25Y13.22
X171.25Y5.6
T2
X46.25Y22.75
X46.25Y20.25
X46.25Y17.75
X56.25Y22.75
X56.25Y20.25
X56.25Y17.75
T3
X198.75Y47.3
X198.75Y42.22
X6.0Y53.02
X14.25Y42.85
X265.5Y47.3
X265.5Y42.22
X106.25Y47.3
X106.25Y42.22
X173.0Y47.3
X173.0Y42.22
X72.5Y53.02
X80.75Y42.85
T4
X28.75Y9.0
X95.5Y9.0
X154.5Y9.0
X138.0Y9.0
T5
X169.19Y42.22
X176.81Y42.22
X141.75Y55.2
X141.75Y48.85
X141.75Y42.5
X158.25Y55.2
X158.25Y48.85
X158.25Y42.5
X76.94Y47.3
X84.56Y46.665
X121.25Y55.2
X121.25Y48.85
X121.25Y42.5
X137.75Y55.2
X137.75Y48.85
X137.75Y42.5
X194.94Y42.22
X202.56Y42.22
X10.44Y47.3
X18.06Y46.665
X234.25Y55.2
X234.25Y48.85
X234.25Y42.5
X250.75Y55.2
X250.75Y48.85
X250.75Y42.5
X213.75Y55.2
X213.75Y48.85
X213.75Y42.5
X230.25Y55.2
X230.25Y48.85
X230.25Y42.5
X29.0Y55.2
X29.0Y48.85
X29.0Y42.5
X45.5Y55.2
X45.5Y48.85
X45.5Y42.5
X49.5Y55.2
X49.5Y48.85
X49.5Y42.5
X66.0Y55.2
X66.0Y48.85
X66.0Y42.5
X261.69Y42.22
X269.31Y42.22
X102.44Y42.22
X110.06Y42.22
T6
X149.25Y9.0
X154.5Y3.5
X159.75Y9.0
X132.75Y9.0
X138.0Y3.5
X143.25Y9.0
X23.5Y9.0
X28.75Y3.5
X34.0Y9.0
X90.25Y9.0
X95.5Y3.5
X100.75Y9.0
T7
X76.94Y56.19
X84.56Y51.11
X10.44Y56.19
X18.06Y51.11
T8
X261.69Y56.19
X269.31Y51.11
X102.44Y56.19
X110.06Y51.11
X169.19Y56.19
X176.81Y51.11
X194.94Y56.19
X202.56Y51.11
T9
X276.0Y4.0
X4.0Y4.0
T0
M30
