G04 #@! TF.GenerationSoftware,KiCad,Pcbnew,(5.1.2)-2*
G04 #@! TF.CreationDate,2021-01-08T22:00:01+00:00*
G04 #@! TF.ProjectId,balio,62616c69-6f2e-46b6-9963-61645f706362,1*
G04 #@! TF.SameCoordinates,PX42c1d80PYa21fe80*
G04 #@! TF.FileFunction,Other,Fab,Top*
%FSLAX46Y46*%
G04 Gerber Fmt 4.6, Leading zero omitted, Abs format (unit mm)*
G04 Created by KiCad (PCBNEW (5.1.2)-2) date 2021-01-08 22:00:01*
%MOMM*%
%LPD*%
G04 APERTURE LIST*
%ADD10C,0.100000*%
%ADD11C,0.150000*%
%ADD12C,0.300000*%
%ADD13C,0.400000*%
%ADD14C,0.120000*%
G04 APERTURE END LIST*
D10*
D11*
X229989000Y-83002200D02*
X229989000Y-115002200D01*
X337989000Y-115002200D01*
X337989000Y-83002200D01*
X229989000Y-83002200D01*
D10*
D11*
X-60000000Y160000000D02*
X-60000000Y-117002200D01*
X339989000Y-117002200D01*
X339989000Y160000000D01*
X-60000000Y160000000D01*
D10*
D11*
X-58000000Y158000000D02*
X-58000000Y-115002200D01*
X337989000Y-115002200D01*
X337989000Y158000000D01*
X-58000000Y158000000D01*
D10*
D11*
X-10000000Y158000000D02*
X-10000000Y160000000D01*
D10*
D11*
X40000000Y158000000D02*
X40000000Y160000000D01*
D10*
D11*
X90000000Y158000000D02*
X90000000Y160000000D01*
D10*
D11*
X140000000Y158000000D02*
X140000000Y160000000D01*
D10*
D11*
X190000000Y158000000D02*
X190000000Y160000000D01*
D10*
D11*
X240000000Y158000000D02*
X240000000Y160000000D01*
D10*
D11*
X290000000Y158000000D02*
X290000000Y160000000D01*
D10*
D11*
X-33934524Y158411905D02*
X-34677381Y158411905D01*
X-34305953Y158411905D02*
X-34305953Y159711905D01*
X-34429762Y159526191D01*
X-34553572Y159402381D01*
X-34677381Y159340477D01*
D10*
D11*
X15322619Y159588096D02*
X15384523Y159650000D01*
X15508333Y159711905D01*
X15817857Y159711905D01*
X15941666Y159650000D01*
X16003571Y159588096D01*
X16065476Y159464286D01*
X16065476Y159340477D01*
X16003571Y159154762D01*
X15260714Y158411905D01*
X16065476Y158411905D01*
D10*
D11*
X65260714Y159711905D02*
X66065476Y159711905D01*
X65632142Y159216667D01*
X65817857Y159216667D01*
X65941666Y159154762D01*
X66003571Y159092858D01*
X66065476Y158969048D01*
X66065476Y158659524D01*
X66003571Y158535715D01*
X65941666Y158473810D01*
X65817857Y158411905D01*
X65446428Y158411905D01*
X65322619Y158473810D01*
X65260714Y158535715D01*
D10*
D11*
X115941666Y159278572D02*
X115941666Y158411905D01*
X115632142Y159773810D02*
X115322619Y158845239D01*
X116127380Y158845239D01*
D10*
D11*
X166003571Y159711905D02*
X165384523Y159711905D01*
X165322619Y159092858D01*
X165384523Y159154762D01*
X165508333Y159216667D01*
X165817857Y159216667D01*
X165941666Y159154762D01*
X166003571Y159092858D01*
X166065476Y158969048D01*
X166065476Y158659524D01*
X166003571Y158535715D01*
X165941666Y158473810D01*
X165817857Y158411905D01*
X165508333Y158411905D01*
X165384523Y158473810D01*
X165322619Y158535715D01*
D10*
D11*
X215941666Y159711905D02*
X215694047Y159711905D01*
X215570238Y159650000D01*
X215508333Y159588096D01*
X215384523Y159402381D01*
X215322619Y159154762D01*
X215322619Y158659524D01*
X215384523Y158535715D01*
X215446428Y158473810D01*
X215570238Y158411905D01*
X215817857Y158411905D01*
X215941666Y158473810D01*
X216003571Y158535715D01*
X216065476Y158659524D01*
X216065476Y158969048D01*
X216003571Y159092858D01*
X215941666Y159154762D01*
X215817857Y159216667D01*
X215570238Y159216667D01*
X215446428Y159154762D01*
X215384523Y159092858D01*
X215322619Y158969048D01*
D10*
D11*
X265260714Y159711905D02*
X266127380Y159711905D01*
X265570238Y158411905D01*
D10*
D11*
X315570238Y159154762D02*
X315446428Y159216667D01*
X315384523Y159278572D01*
X315322619Y159402381D01*
X315322619Y159464286D01*
X315384523Y159588096D01*
X315446428Y159650000D01*
X315570238Y159711905D01*
X315817857Y159711905D01*
X315941666Y159650000D01*
X316003571Y159588096D01*
X316065476Y159464286D01*
X316065476Y159402381D01*
X316003571Y159278572D01*
X315941666Y159216667D01*
X315817857Y159154762D01*
X315570238Y159154762D01*
X315446428Y159092858D01*
X315384523Y159030953D01*
X315322619Y158907143D01*
X315322619Y158659524D01*
X315384523Y158535715D01*
X315446428Y158473810D01*
X315570238Y158411905D01*
X315817857Y158411905D01*
X315941666Y158473810D01*
X316003571Y158535715D01*
X316065476Y158659524D01*
X316065476Y158907143D01*
X316003571Y159030953D01*
X315941666Y159092858D01*
X315817857Y159154762D01*
D10*
D11*
X-10000000Y-115002200D02*
X-10000000Y-117002200D01*
D10*
D11*
X40000000Y-115002200D02*
X40000000Y-117002200D01*
D10*
D11*
X90000000Y-115002200D02*
X90000000Y-117002200D01*
D10*
D11*
X140000000Y-115002200D02*
X140000000Y-117002200D01*
D10*
D11*
X190000000Y-115002200D02*
X190000000Y-117002200D01*
D10*
D11*
X240000000Y-115002200D02*
X240000000Y-117002200D01*
D10*
D11*
X290000000Y-115002200D02*
X290000000Y-117002200D01*
D10*
D11*
X-33934524Y-116590295D02*
X-34677381Y-116590295D01*
X-34305953Y-116590295D02*
X-34305953Y-115290295D01*
X-34429762Y-115476009D01*
X-34553572Y-115599819D01*
X-34677381Y-115661723D01*
D10*
D11*
X15322619Y-115414104D02*
X15384523Y-115352200D01*
X15508333Y-115290295D01*
X15817857Y-115290295D01*
X15941666Y-115352200D01*
X16003571Y-115414104D01*
X16065476Y-115537914D01*
X16065476Y-115661723D01*
X16003571Y-115847438D01*
X15260714Y-116590295D01*
X16065476Y-116590295D01*
D10*
D11*
X65260714Y-115290295D02*
X66065476Y-115290295D01*
X65632142Y-115785533D01*
X65817857Y-115785533D01*
X65941666Y-115847438D01*
X66003571Y-115909342D01*
X66065476Y-116033152D01*
X66065476Y-116342676D01*
X66003571Y-116466485D01*
X65941666Y-116528390D01*
X65817857Y-116590295D01*
X65446428Y-116590295D01*
X65322619Y-116528390D01*
X65260714Y-116466485D01*
D10*
D11*
X115941666Y-115723628D02*
X115941666Y-116590295D01*
X115632142Y-115228390D02*
X115322619Y-116156961D01*
X116127380Y-116156961D01*
D10*
D11*
X166003571Y-115290295D02*
X165384523Y-115290295D01*
X165322619Y-115909342D01*
X165384523Y-115847438D01*
X165508333Y-115785533D01*
X165817857Y-115785533D01*
X165941666Y-115847438D01*
X166003571Y-115909342D01*
X166065476Y-116033152D01*
X166065476Y-116342676D01*
X166003571Y-116466485D01*
X165941666Y-116528390D01*
X165817857Y-116590295D01*
X165508333Y-116590295D01*
X165384523Y-116528390D01*
X165322619Y-116466485D01*
D10*
D11*
X215941666Y-115290295D02*
X215694047Y-115290295D01*
X215570238Y-115352200D01*
X215508333Y-115414104D01*
X215384523Y-115599819D01*
X215322619Y-115847438D01*
X215322619Y-116342676D01*
X215384523Y-116466485D01*
X215446428Y-116528390D01*
X215570238Y-116590295D01*
X215817857Y-116590295D01*
X215941666Y-116528390D01*
X216003571Y-116466485D01*
X216065476Y-116342676D01*
X216065476Y-116033152D01*
X216003571Y-115909342D01*
X215941666Y-115847438D01*
X215817857Y-115785533D01*
X215570238Y-115785533D01*
X215446428Y-115847438D01*
X215384523Y-115909342D01*
X215322619Y-116033152D01*
D10*
D11*
X265260714Y-115290295D02*
X266127380Y-115290295D01*
X265570238Y-116590295D01*
D10*
D11*
X315570238Y-115847438D02*
X315446428Y-115785533D01*
X315384523Y-115723628D01*
X315322619Y-115599819D01*
X315322619Y-115537914D01*
X315384523Y-115414104D01*
X315446428Y-115352200D01*
X315570238Y-115290295D01*
X315817857Y-115290295D01*
X315941666Y-115352200D01*
X316003571Y-115414104D01*
X316065476Y-115537914D01*
X316065476Y-115599819D01*
X316003571Y-115723628D01*
X315941666Y-115785533D01*
X315817857Y-115847438D01*
X315570238Y-115847438D01*
X315446428Y-115909342D01*
X315384523Y-115971247D01*
X315322619Y-116095057D01*
X315322619Y-116342676D01*
X315384523Y-116466485D01*
X315446428Y-116528390D01*
X315570238Y-116590295D01*
X315817857Y-116590295D01*
X315941666Y-116528390D01*
X316003571Y-116466485D01*
X316065476Y-116342676D01*
X316065476Y-116095057D01*
X316003571Y-115971247D01*
X315941666Y-115909342D01*
X315817857Y-115847438D01*
D10*
D11*
X-60000000Y110000000D02*
X-58000000Y110000000D01*
D10*
D11*
X-60000000Y60000000D02*
X-58000000Y60000000D01*
D10*
D11*
X-60000000Y10000000D02*
X-58000000Y10000000D01*
D10*
D11*
X-60000000Y-40000000D02*
X-58000000Y-40000000D01*
D10*
D11*
X-60000000Y-90000000D02*
X-58000000Y-90000000D01*
D10*
D11*
X-59309524Y134783334D02*
X-58690477Y134783334D01*
X-59433334Y134411905D02*
X-59000000Y135711905D01*
X-58566667Y134411905D01*
D10*
D11*
X-58907143Y85092858D02*
X-58721429Y85030953D01*
X-58659524Y84969048D01*
X-58597620Y84845239D01*
X-58597620Y84659524D01*
X-58659524Y84535715D01*
X-58721429Y84473810D01*
X-58845239Y84411905D01*
X-59340477Y84411905D01*
X-59340477Y85711905D01*
X-58907143Y85711905D01*
X-58783334Y85650000D01*
X-58721429Y85588096D01*
X-58659524Y85464286D01*
X-58659524Y85340477D01*
X-58721429Y85216667D01*
X-58783334Y85154762D01*
X-58907143Y85092858D01*
X-59340477Y85092858D01*
D10*
D11*
X-58597620Y34535715D02*
X-58659524Y34473810D01*
X-58845239Y34411905D01*
X-58969048Y34411905D01*
X-59154762Y34473810D01*
X-59278572Y34597620D01*
X-59340477Y34721429D01*
X-59402381Y34969048D01*
X-59402381Y35154762D01*
X-59340477Y35402381D01*
X-59278572Y35526191D01*
X-59154762Y35650000D01*
X-58969048Y35711905D01*
X-58845239Y35711905D01*
X-58659524Y35650000D01*
X-58597620Y35588096D01*
D10*
D11*
X-59340477Y-15588095D02*
X-59340477Y-14288095D01*
X-59030953Y-14288095D01*
X-58845239Y-14350000D01*
X-58721429Y-14473809D01*
X-58659524Y-14597619D01*
X-58597620Y-14845238D01*
X-58597620Y-15030952D01*
X-58659524Y-15278571D01*
X-58721429Y-15402380D01*
X-58845239Y-15526190D01*
X-59030953Y-15588095D01*
X-59340477Y-15588095D01*
D10*
D11*
X-59278572Y-64907142D02*
X-58845239Y-64907142D01*
X-58659524Y-65588095D02*
X-59278572Y-65588095D01*
X-59278572Y-64288095D01*
X-58659524Y-64288095D01*
D10*
D11*
X-58814286Y-114907142D02*
X-59247620Y-114907142D01*
X-59247620Y-115588095D02*
X-59247620Y-114288095D01*
X-58628572Y-114288095D01*
D10*
D11*
X339989000Y110000000D02*
X337989000Y110000000D01*
D10*
D11*
X339989000Y60000000D02*
X337989000Y60000000D01*
D10*
D11*
X339989000Y10000000D02*
X337989000Y10000000D01*
D10*
D11*
X339989000Y-40000000D02*
X337989000Y-40000000D01*
D10*
D11*
X339989000Y-90000000D02*
X337989000Y-90000000D01*
D10*
D11*
X338679476Y134783334D02*
X339298523Y134783334D01*
X338555666Y134411905D02*
X338989000Y135711905D01*
X339422333Y134411905D01*
D10*
D11*
X339081857Y85092858D02*
X339267571Y85030953D01*
X339329476Y84969048D01*
X339391380Y84845239D01*
X339391380Y84659524D01*
X339329476Y84535715D01*
X339267571Y84473810D01*
X339143761Y84411905D01*
X338648523Y84411905D01*
X338648523Y85711905D01*
X339081857Y85711905D01*
X339205666Y85650000D01*
X339267571Y85588096D01*
X339329476Y85464286D01*
X339329476Y85340477D01*
X339267571Y85216667D01*
X339205666Y85154762D01*
X339081857Y85092858D01*
X338648523Y85092858D01*
D10*
D11*
X339391380Y34535715D02*
X339329476Y34473810D01*
X339143761Y34411905D01*
X339019952Y34411905D01*
X338834238Y34473810D01*
X338710428Y34597620D01*
X338648523Y34721429D01*
X338586619Y34969048D01*
X338586619Y35154762D01*
X338648523Y35402381D01*
X338710428Y35526191D01*
X338834238Y35650000D01*
X339019952Y35711905D01*
X339143761Y35711905D01*
X339329476Y35650000D01*
X339391380Y35588096D01*
D10*
D11*
X338648523Y-15588095D02*
X338648523Y-14288095D01*
X338958047Y-14288095D01*
X339143761Y-14350000D01*
X339267571Y-14473809D01*
X339329476Y-14597619D01*
X339391380Y-14845238D01*
X339391380Y-15030952D01*
X339329476Y-15278571D01*
X339267571Y-15402380D01*
X339143761Y-15526190D01*
X338958047Y-15588095D01*
X338648523Y-15588095D01*
D10*
D11*
X338710428Y-64907142D02*
X339143761Y-64907142D01*
X339329476Y-65588095D02*
X338710428Y-65588095D01*
X338710428Y-64288095D01*
X339329476Y-64288095D01*
D10*
D11*
X339174714Y-114907142D02*
X338741380Y-114907142D01*
X338741380Y-115588095D02*
X338741380Y-114288095D01*
X339360428Y-114288095D01*
D10*
D11*
X253421142Y-110780771D02*
X253421142Y-109280771D01*
X253778285Y-109280771D01*
X253992571Y-109352200D01*
X254135428Y-109495057D01*
X254206857Y-109637914D01*
X254278285Y-109923628D01*
X254278285Y-110137914D01*
X254206857Y-110423628D01*
X254135428Y-110566485D01*
X253992571Y-110709342D01*
X253778285Y-110780771D01*
X253421142Y-110780771D01*
X255564000Y-110780771D02*
X255564000Y-109995057D01*
X255492571Y-109852200D01*
X255349714Y-109780771D01*
X255064000Y-109780771D01*
X254921142Y-109852200D01*
X255564000Y-110709342D02*
X255421142Y-110780771D01*
X255064000Y-110780771D01*
X254921142Y-110709342D01*
X254849714Y-110566485D01*
X254849714Y-110423628D01*
X254921142Y-110280771D01*
X255064000Y-110209342D01*
X255421142Y-110209342D01*
X255564000Y-110137914D01*
X256064000Y-109780771D02*
X256635428Y-109780771D01*
X256278285Y-109280771D02*
X256278285Y-110566485D01*
X256349714Y-110709342D01*
X256492571Y-110780771D01*
X256635428Y-110780771D01*
X257706857Y-110709342D02*
X257564000Y-110780771D01*
X257278285Y-110780771D01*
X257135428Y-110709342D01*
X257064000Y-110566485D01*
X257064000Y-109995057D01*
X257135428Y-109852200D01*
X257278285Y-109780771D01*
X257564000Y-109780771D01*
X257706857Y-109852200D01*
X257778285Y-109995057D01*
X257778285Y-110137914D01*
X257064000Y-110280771D01*
X258421142Y-110637914D02*
X258492571Y-110709342D01*
X258421142Y-110780771D01*
X258349714Y-110709342D01*
X258421142Y-110637914D01*
X258421142Y-110780771D01*
X258421142Y-109852200D02*
X258492571Y-109923628D01*
X258421142Y-109995057D01*
X258349714Y-109923628D01*
X258421142Y-109852200D01*
X258421142Y-109995057D01*
X260206857Y-109423628D02*
X260278285Y-109352200D01*
X260421142Y-109280771D01*
X260778285Y-109280771D01*
X260921142Y-109352200D01*
X260992571Y-109423628D01*
X261064000Y-109566485D01*
X261064000Y-109709342D01*
X260992571Y-109923628D01*
X260135428Y-110780771D01*
X261064000Y-110780771D01*
X261992571Y-109280771D02*
X262135428Y-109280771D01*
X262278285Y-109352200D01*
X262349714Y-109423628D01*
X262421142Y-109566485D01*
X262492571Y-109852200D01*
X262492571Y-110209342D01*
X262421142Y-110495057D01*
X262349714Y-110637914D01*
X262278285Y-110709342D01*
X262135428Y-110780771D01*
X261992571Y-110780771D01*
X261849714Y-110709342D01*
X261778285Y-110637914D01*
X261706857Y-110495057D01*
X261635428Y-110209342D01*
X261635428Y-109852200D01*
X261706857Y-109566485D01*
X261778285Y-109423628D01*
X261849714Y-109352200D01*
X261992571Y-109280771D01*
X263064000Y-109423628D02*
X263135428Y-109352200D01*
X263278285Y-109280771D01*
X263635428Y-109280771D01*
X263778285Y-109352200D01*
X263849714Y-109423628D01*
X263921142Y-109566485D01*
X263921142Y-109709342D01*
X263849714Y-109923628D01*
X262992571Y-110780771D01*
X263921142Y-110780771D01*
X265349714Y-110780771D02*
X264492571Y-110780771D01*
X264921142Y-110780771D02*
X264921142Y-109280771D01*
X264778285Y-109495057D01*
X264635428Y-109637914D01*
X264492571Y-109709342D01*
X265992571Y-110209342D02*
X267135428Y-110209342D01*
X268135428Y-109280771D02*
X268278285Y-109280771D01*
X268421142Y-109352200D01*
X268492571Y-109423628D01*
X268564000Y-109566485D01*
X268635428Y-109852200D01*
X268635428Y-110209342D01*
X268564000Y-110495057D01*
X268492571Y-110637914D01*
X268421142Y-110709342D01*
X268278285Y-110780771D01*
X268135428Y-110780771D01*
X267992571Y-110709342D01*
X267921142Y-110637914D01*
X267849714Y-110495057D01*
X267778285Y-110209342D01*
X267778285Y-109852200D01*
X267849714Y-109566485D01*
X267921142Y-109423628D01*
X267992571Y-109352200D01*
X268135428Y-109280771D01*
X270064000Y-110780771D02*
X269206857Y-110780771D01*
X269635428Y-110780771D02*
X269635428Y-109280771D01*
X269492571Y-109495057D01*
X269349714Y-109637914D01*
X269206857Y-109709342D01*
X270706857Y-110209342D02*
X271849714Y-110209342D01*
X272849714Y-109280771D02*
X272992571Y-109280771D01*
X273135428Y-109352200D01*
X273206857Y-109423628D01*
X273278285Y-109566485D01*
X273349714Y-109852200D01*
X273349714Y-110209342D01*
X273278285Y-110495057D01*
X273206857Y-110637914D01*
X273135428Y-110709342D01*
X272992571Y-110780771D01*
X272849714Y-110780771D01*
X272706857Y-110709342D01*
X272635428Y-110637914D01*
X272564000Y-110495057D01*
X272492571Y-110209342D01*
X272492571Y-109852200D01*
X272564000Y-109566485D01*
X272635428Y-109423628D01*
X272706857Y-109352200D01*
X272849714Y-109280771D01*
X274206857Y-109923628D02*
X274064000Y-109852200D01*
X273992571Y-109780771D01*
X273921142Y-109637914D01*
X273921142Y-109566485D01*
X273992571Y-109423628D01*
X274064000Y-109352200D01*
X274206857Y-109280771D01*
X274492571Y-109280771D01*
X274635428Y-109352200D01*
X274706857Y-109423628D01*
X274778285Y-109566485D01*
X274778285Y-109637914D01*
X274706857Y-109780771D01*
X274635428Y-109852200D01*
X274492571Y-109923628D01*
X274206857Y-109923628D01*
X274064000Y-109995057D01*
X273992571Y-110066485D01*
X273921142Y-110209342D01*
X273921142Y-110495057D01*
X273992571Y-110637914D01*
X274064000Y-110709342D01*
X274206857Y-110780771D01*
X274492571Y-110780771D01*
X274635428Y-110709342D01*
X274706857Y-110637914D01*
X274778285Y-110495057D01*
X274778285Y-110209342D01*
X274706857Y-110066485D01*
X274635428Y-109995057D01*
X274492571Y-109923628D01*
D10*
D11*
X229989000Y-111502200D02*
X337989000Y-111502200D01*
D10*
D11*
X231421142Y-113580771D02*
X231421142Y-112080771D01*
X232278285Y-113580771D02*
X231635428Y-112723628D01*
X232278285Y-112080771D02*
X231421142Y-112937914D01*
X232921142Y-113580771D02*
X232921142Y-112580771D01*
X232921142Y-112080771D02*
X232849714Y-112152200D01*
X232921142Y-112223628D01*
X232992571Y-112152200D01*
X232921142Y-112080771D01*
X232921142Y-112223628D01*
X234492571Y-113437914D02*
X234421142Y-113509342D01*
X234206857Y-113580771D01*
X234064000Y-113580771D01*
X233849714Y-113509342D01*
X233706857Y-113366485D01*
X233635428Y-113223628D01*
X233564000Y-112937914D01*
X233564000Y-112723628D01*
X233635428Y-112437914D01*
X233706857Y-112295057D01*
X233849714Y-112152200D01*
X234064000Y-112080771D01*
X234206857Y-112080771D01*
X234421142Y-112152200D01*
X234492571Y-112223628D01*
X235778285Y-113580771D02*
X235778285Y-112795057D01*
X235706857Y-112652200D01*
X235564000Y-112580771D01*
X235278285Y-112580771D01*
X235135428Y-112652200D01*
X235778285Y-113509342D02*
X235635428Y-113580771D01*
X235278285Y-113580771D01*
X235135428Y-113509342D01*
X235064000Y-113366485D01*
X235064000Y-113223628D01*
X235135428Y-113080771D01*
X235278285Y-113009342D01*
X235635428Y-113009342D01*
X235778285Y-112937914D01*
X237135428Y-113580771D02*
X237135428Y-112080771D01*
X237135428Y-113509342D02*
X236992571Y-113580771D01*
X236706857Y-113580771D01*
X236564000Y-113509342D01*
X236492571Y-113437914D01*
X236421142Y-113295057D01*
X236421142Y-112866485D01*
X236492571Y-112723628D01*
X236564000Y-112652200D01*
X236706857Y-112580771D01*
X236992571Y-112580771D01*
X237135428Y-112652200D01*
X238992571Y-112795057D02*
X239492571Y-112795057D01*
X239706857Y-113580771D02*
X238992571Y-113580771D01*
X238992571Y-112080771D01*
X239706857Y-112080771D01*
X240349714Y-113437914D02*
X240421142Y-113509342D01*
X240349714Y-113580771D01*
X240278285Y-113509342D01*
X240349714Y-113437914D01*
X240349714Y-113580771D01*
X241064000Y-113580771D02*
X241064000Y-112080771D01*
X241421142Y-112080771D01*
X241635428Y-112152200D01*
X241778285Y-112295057D01*
X241849714Y-112437914D01*
X241921142Y-112723628D01*
X241921142Y-112937914D01*
X241849714Y-113223628D01*
X241778285Y-113366485D01*
X241635428Y-113509342D01*
X241421142Y-113580771D01*
X241064000Y-113580771D01*
X242564000Y-113437914D02*
X242635428Y-113509342D01*
X242564000Y-113580771D01*
X242492571Y-113509342D01*
X242564000Y-113437914D01*
X242564000Y-113580771D01*
X243206857Y-113152200D02*
X243921142Y-113152200D01*
X243064000Y-113580771D02*
X243564000Y-112080771D01*
X244064000Y-113580771D01*
X244564000Y-113437914D02*
X244635428Y-113509342D01*
X244564000Y-113580771D01*
X244492571Y-113509342D01*
X244564000Y-113437914D01*
X244564000Y-113580771D01*
X247564000Y-113580771D02*
X247564000Y-112080771D01*
X247706857Y-113009342D02*
X248135428Y-113580771D01*
X248135428Y-112580771D02*
X247564000Y-113152200D01*
X248778285Y-113580771D02*
X248778285Y-112580771D01*
X248778285Y-112080771D02*
X248706857Y-112152200D01*
X248778285Y-112223628D01*
X248849714Y-112152200D01*
X248778285Y-112080771D01*
X248778285Y-112223628D01*
X250135428Y-113509342D02*
X249992571Y-113580771D01*
X249706857Y-113580771D01*
X249564000Y-113509342D01*
X249492571Y-113437914D01*
X249421142Y-113295057D01*
X249421142Y-112866485D01*
X249492571Y-112723628D01*
X249564000Y-112652200D01*
X249706857Y-112580771D01*
X249992571Y-112580771D01*
X250135428Y-112652200D01*
X251421142Y-113580771D02*
X251421142Y-112795057D01*
X251349714Y-112652200D01*
X251206857Y-112580771D01*
X250921142Y-112580771D01*
X250778285Y-112652200D01*
X251421142Y-113509342D02*
X251278285Y-113580771D01*
X250921142Y-113580771D01*
X250778285Y-113509342D01*
X250706857Y-113366485D01*
X250706857Y-113223628D01*
X250778285Y-113080771D01*
X250921142Y-113009342D01*
X251278285Y-113009342D01*
X251421142Y-112937914D01*
X252778285Y-113580771D02*
X252778285Y-112080771D01*
X252778285Y-113509342D02*
X252635428Y-113580771D01*
X252349714Y-113580771D01*
X252206857Y-113509342D01*
X252135428Y-113437914D01*
X252064000Y-113295057D01*
X252064000Y-112866485D01*
X252135428Y-112723628D01*
X252206857Y-112652200D01*
X252349714Y-112580771D01*
X252635428Y-112580771D01*
X252778285Y-112652200D01*
X255064000Y-114152200D02*
X254992571Y-114080771D01*
X254849714Y-113866485D01*
X254778285Y-113723628D01*
X254706857Y-113509342D01*
X254635428Y-113152200D01*
X254635428Y-112866485D01*
X254706857Y-112509342D01*
X254778285Y-112295057D01*
X254849714Y-112152200D01*
X254992571Y-111937914D01*
X255064000Y-111866485D01*
X256349714Y-112080771D02*
X255635428Y-112080771D01*
X255564000Y-112795057D01*
X255635428Y-112723628D01*
X255778285Y-112652200D01*
X256135428Y-112652200D01*
X256278285Y-112723628D01*
X256349714Y-112795057D01*
X256421142Y-112937914D01*
X256421142Y-113295057D01*
X256349714Y-113437914D01*
X256278285Y-113509342D01*
X256135428Y-113580771D01*
X255778285Y-113580771D01*
X255635428Y-113509342D01*
X255564000Y-113437914D01*
X257064000Y-113437914D02*
X257135428Y-113509342D01*
X257064000Y-113580771D01*
X256992571Y-113509342D01*
X257064000Y-113437914D01*
X257064000Y-113580771D01*
X258564000Y-113580771D02*
X257706857Y-113580771D01*
X258135428Y-113580771D02*
X258135428Y-112080771D01*
X257992571Y-112295057D01*
X257849714Y-112437914D01*
X257706857Y-112509342D01*
X259206857Y-113437914D02*
X259278285Y-113509342D01*
X259206857Y-113580771D01*
X259135428Y-113509342D01*
X259206857Y-113437914D01*
X259206857Y-113580771D01*
X259849714Y-112223628D02*
X259921142Y-112152200D01*
X260064000Y-112080771D01*
X260421142Y-112080771D01*
X260564000Y-112152200D01*
X260635428Y-112223628D01*
X260706857Y-112366485D01*
X260706857Y-112509342D01*
X260635428Y-112723628D01*
X259778285Y-113580771D01*
X260706857Y-113580771D01*
X261206857Y-114152200D02*
X261278285Y-114080771D01*
X261421142Y-113866485D01*
X261492571Y-113723628D01*
X261564000Y-113509342D01*
X261635428Y-113152200D01*
X261635428Y-112866485D01*
X261564000Y-112509342D01*
X261492571Y-112295057D01*
X261421142Y-112152200D01*
X261278285Y-111937914D01*
X261206857Y-111866485D01*
X262349714Y-113009342D02*
X263492571Y-113009342D01*
X264135428Y-112223628D02*
X264206857Y-112152200D01*
X264349714Y-112080771D01*
X264706857Y-112080771D01*
X264849714Y-112152200D01*
X264921142Y-112223628D01*
X264992571Y-112366485D01*
X264992571Y-112509342D01*
X264921142Y-112723628D01*
X264064000Y-113580771D01*
X264992571Y-113580771D01*
D10*
D11*
X229989000Y-108502200D02*
X337989000Y-108502200D01*
D10*
D12*
X317398285Y-110780771D02*
X316898285Y-110066485D01*
X316541142Y-110780771D02*
X316541142Y-109280771D01*
X317112571Y-109280771D01*
X317255428Y-109352200D01*
X317326857Y-109423628D01*
X317398285Y-109566485D01*
X317398285Y-109780771D01*
X317326857Y-109923628D01*
X317255428Y-109995057D01*
X317112571Y-110066485D01*
X316541142Y-110066485D01*
X318612571Y-110709342D02*
X318469714Y-110780771D01*
X318184000Y-110780771D01*
X318041142Y-110709342D01*
X317969714Y-110566485D01*
X317969714Y-109995057D01*
X318041142Y-109852200D01*
X318184000Y-109780771D01*
X318469714Y-109780771D01*
X318612571Y-109852200D01*
X318684000Y-109995057D01*
X318684000Y-110137914D01*
X317969714Y-110280771D01*
X319184000Y-109780771D02*
X319541142Y-110780771D01*
X319898285Y-109780771D01*
X320469714Y-110637914D02*
X320541142Y-110709342D01*
X320469714Y-110780771D01*
X320398285Y-110709342D01*
X320469714Y-110637914D01*
X320469714Y-110780771D01*
X320469714Y-109852200D02*
X320541142Y-109923628D01*
X320469714Y-109995057D01*
X320398285Y-109923628D01*
X320469714Y-109852200D01*
X320469714Y-109995057D01*
X323112571Y-110780771D02*
X322255428Y-110780771D01*
X322684000Y-110780771D02*
X322684000Y-109280771D01*
X322541142Y-109495057D01*
X322398285Y-109637914D01*
X322255428Y-109709342D01*
D10*
D11*
X231349714Y-110709342D02*
X231564000Y-110780771D01*
X231921142Y-110780771D01*
X232064000Y-110709342D01*
X232135428Y-110637914D01*
X232206857Y-110495057D01*
X232206857Y-110352200D01*
X232135428Y-110209342D01*
X232064000Y-110137914D01*
X231921142Y-110066485D01*
X231635428Y-109995057D01*
X231492571Y-109923628D01*
X231421142Y-109852200D01*
X231349714Y-109709342D01*
X231349714Y-109566485D01*
X231421142Y-109423628D01*
X231492571Y-109352200D01*
X231635428Y-109280771D01*
X231992571Y-109280771D01*
X232206857Y-109352200D01*
X232849714Y-110780771D02*
X232849714Y-109780771D01*
X232849714Y-109280771D02*
X232778285Y-109352200D01*
X232849714Y-109423628D01*
X232921142Y-109352200D01*
X232849714Y-109280771D01*
X232849714Y-109423628D01*
X233421142Y-109780771D02*
X234206857Y-109780771D01*
X233421142Y-110780771D01*
X234206857Y-110780771D01*
X235349714Y-110709342D02*
X235206857Y-110780771D01*
X234921142Y-110780771D01*
X234778285Y-110709342D01*
X234706857Y-110566485D01*
X234706857Y-109995057D01*
X234778285Y-109852200D01*
X234921142Y-109780771D01*
X235206857Y-109780771D01*
X235349714Y-109852200D01*
X235421142Y-109995057D01*
X235421142Y-110137914D01*
X234706857Y-110280771D01*
X236064000Y-110637914D02*
X236135428Y-110709342D01*
X236064000Y-110780771D01*
X235992571Y-110709342D01*
X236064000Y-110637914D01*
X236064000Y-110780771D01*
X236064000Y-109852200D02*
X236135428Y-109923628D01*
X236064000Y-109995057D01*
X235992571Y-109923628D01*
X236064000Y-109852200D01*
X236064000Y-109995057D01*
X237849714Y-110352200D02*
X238564000Y-110352200D01*
X237706857Y-110780771D02*
X238206857Y-109280771D01*
X238706857Y-110780771D01*
X239064000Y-109280771D02*
X239992571Y-109280771D01*
X239492571Y-109852200D01*
X239706857Y-109852200D01*
X239849714Y-109923628D01*
X239921142Y-109995057D01*
X239992571Y-110137914D01*
X239992571Y-110495057D01*
X239921142Y-110637914D01*
X239849714Y-110709342D01*
X239706857Y-110780771D01*
X239278285Y-110780771D01*
X239135428Y-110709342D01*
X239064000Y-110637914D01*
D10*
D11*
X316421142Y-113580771D02*
X316421142Y-112080771D01*
X317778285Y-113580771D02*
X317778285Y-112080771D01*
X317778285Y-113509342D02*
X317635428Y-113580771D01*
X317349714Y-113580771D01*
X317206857Y-113509342D01*
X317135428Y-113437914D01*
X317064000Y-113295057D01*
X317064000Y-112866485D01*
X317135428Y-112723628D01*
X317206857Y-112652200D01*
X317349714Y-112580771D01*
X317635428Y-112580771D01*
X317778285Y-112652200D01*
X318492571Y-113437914D02*
X318564000Y-113509342D01*
X318492571Y-113580771D01*
X318421142Y-113509342D01*
X318492571Y-113437914D01*
X318492571Y-113580771D01*
X318492571Y-112652200D02*
X318564000Y-112723628D01*
X318492571Y-112795057D01*
X318421142Y-112723628D01*
X318492571Y-112652200D01*
X318492571Y-112795057D01*
X321135428Y-113580771D02*
X320278285Y-113580771D01*
X320706857Y-113580771D02*
X320706857Y-112080771D01*
X320564000Y-112295057D01*
X320421142Y-112437914D01*
X320278285Y-112509342D01*
X322849714Y-112009342D02*
X321564000Y-113937914D01*
X324135428Y-113580771D02*
X323278285Y-113580771D01*
X323706857Y-113580771D02*
X323706857Y-112080771D01*
X323564000Y-112295057D01*
X323421142Y-112437914D01*
X323278285Y-112509342D01*
D10*
D11*
X229989000Y-104502200D02*
X337989000Y-104502200D01*
D10*
D13*
X231701380Y-105206961D02*
X232844238Y-105206961D01*
X232022809Y-107206961D02*
X232272809Y-105206961D01*
X233260904Y-107206961D02*
X233427571Y-105873628D01*
X233510904Y-105206961D02*
X233403761Y-105302200D01*
X233487095Y-105397438D01*
X233594238Y-105302200D01*
X233510904Y-105206961D01*
X233487095Y-105397438D01*
X234094238Y-105873628D02*
X234856142Y-105873628D01*
X234463285Y-105206961D02*
X234249000Y-106921247D01*
X234320428Y-107111723D01*
X234499000Y-107206961D01*
X234689476Y-107206961D01*
X235641857Y-107206961D02*
X235463285Y-107111723D01*
X235391857Y-106921247D01*
X235606142Y-105206961D01*
X237177571Y-107111723D02*
X236975190Y-107206961D01*
X236594238Y-107206961D01*
X236415666Y-107111723D01*
X236344238Y-106921247D01*
X236439476Y-106159342D01*
X236558523Y-105968866D01*
X236760904Y-105873628D01*
X237141857Y-105873628D01*
X237320428Y-105968866D01*
X237391857Y-106159342D01*
X237368047Y-106349819D01*
X236391857Y-106540295D01*
X238141857Y-107016485D02*
X238225190Y-107111723D01*
X238118047Y-107206961D01*
X238034714Y-107111723D01*
X238141857Y-107016485D01*
X238118047Y-107206961D01*
X238272809Y-105968866D02*
X238356142Y-106064104D01*
X238249000Y-106159342D01*
X238165666Y-106064104D01*
X238272809Y-105968866D01*
X238249000Y-106159342D01*
X240594238Y-107206961D02*
X240844238Y-105206961D01*
X241320428Y-105206961D01*
X241594238Y-105302200D01*
X241760904Y-105492676D01*
X241832333Y-105683152D01*
X241879952Y-106064104D01*
X241844238Y-106349819D01*
X241701380Y-106730771D01*
X241582333Y-106921247D01*
X241368047Y-107111723D01*
X241070428Y-107206961D01*
X240594238Y-107206961D01*
X243618047Y-105873628D02*
X243451380Y-107206961D01*
X243237095Y-105111723D02*
X242582333Y-106540295D01*
X243820428Y-106540295D01*
X246022809Y-107206961D02*
X246272809Y-105206961D01*
X246749000Y-105206961D01*
X247022809Y-105302200D01*
X247189476Y-105492676D01*
X247260904Y-105683152D01*
X247308523Y-106064104D01*
X247272809Y-106349819D01*
X247129952Y-106730771D01*
X247010904Y-106921247D01*
X246796619Y-107111723D01*
X246499000Y-107206961D01*
X246022809Y-107206961D01*
X248879952Y-107206961D02*
X249010904Y-106159342D01*
X248939476Y-105968866D01*
X248760904Y-105873628D01*
X248379952Y-105873628D01*
X248177571Y-105968866D01*
X248891857Y-107111723D02*
X248689476Y-107206961D01*
X248213285Y-107206961D01*
X248034714Y-107111723D01*
X247963285Y-106921247D01*
X247987095Y-106730771D01*
X248106142Y-106540295D01*
X248308523Y-106445057D01*
X248784714Y-106445057D01*
X248987095Y-106349819D01*
X249832333Y-107206961D02*
X249999000Y-105873628D01*
X249975190Y-106064104D02*
X250082333Y-105968866D01*
X250284714Y-105873628D01*
X250570428Y-105873628D01*
X250749000Y-105968866D01*
X250820428Y-106159342D01*
X250689476Y-107206961D01*
X250820428Y-106159342D02*
X250939476Y-105968866D01*
X251141857Y-105873628D01*
X251427571Y-105873628D01*
X251606142Y-105968866D01*
X251677571Y-106159342D01*
X251546619Y-107206961D01*
X253356142Y-107206961D02*
X253487095Y-106159342D01*
X253415666Y-105968866D01*
X253237095Y-105873628D01*
X252856142Y-105873628D01*
X252653761Y-105968866D01*
X253368047Y-107111723D02*
X253165666Y-107206961D01*
X252689476Y-107206961D01*
X252510904Y-107111723D01*
X252439476Y-106921247D01*
X252463285Y-106730771D01*
X252582333Y-106540295D01*
X252784714Y-106445057D01*
X253260904Y-106445057D01*
X253463285Y-106349819D01*
X255332333Y-105873628D02*
X255129952Y-107492676D01*
X255010904Y-107683152D01*
X254903761Y-107778390D01*
X254701380Y-107873628D01*
X254415666Y-107873628D01*
X254237095Y-107778390D01*
X255177571Y-107111723D02*
X254975190Y-107206961D01*
X254594238Y-107206961D01*
X254415666Y-107111723D01*
X254332333Y-107016485D01*
X254260904Y-106826009D01*
X254332333Y-106254580D01*
X254451380Y-106064104D01*
X254558523Y-105968866D01*
X254760904Y-105873628D01*
X255141857Y-105873628D01*
X255320428Y-105968866D01*
X256891857Y-107111723D02*
X256689476Y-107206961D01*
X256308523Y-107206961D01*
X256129952Y-107111723D01*
X256058523Y-106921247D01*
X256153761Y-106159342D01*
X256272809Y-105968866D01*
X256475190Y-105873628D01*
X256856142Y-105873628D01*
X257034714Y-105968866D01*
X257106142Y-106159342D01*
X257082333Y-106349819D01*
X256106142Y-106540295D01*
X257832333Y-107206961D02*
X257999000Y-105873628D01*
X257951380Y-106254580D02*
X258070428Y-106064104D01*
X258177571Y-105968866D01*
X258379952Y-105873628D01*
X258570428Y-105873628D01*
X261391857Y-106159342D02*
X261665666Y-106254580D01*
X261749000Y-106349819D01*
X261820428Y-106540295D01*
X261784714Y-106826009D01*
X261665666Y-107016485D01*
X261558523Y-107111723D01*
X261356142Y-107206961D01*
X260594238Y-107206961D01*
X260844238Y-105206961D01*
X261510904Y-105206961D01*
X261689476Y-105302200D01*
X261772809Y-105397438D01*
X261844238Y-105587914D01*
X261820428Y-105778390D01*
X261701380Y-105968866D01*
X261594238Y-106064104D01*
X261391857Y-106159342D01*
X260725190Y-106159342D01*
X263451380Y-107206961D02*
X263582333Y-106159342D01*
X263510904Y-105968866D01*
X263332333Y-105873628D01*
X262951380Y-105873628D01*
X262749000Y-105968866D01*
X263463285Y-107111723D02*
X263260904Y-107206961D01*
X262784714Y-107206961D01*
X262606142Y-107111723D01*
X262534714Y-106921247D01*
X262558523Y-106730771D01*
X262677571Y-106540295D01*
X262879952Y-106445057D01*
X263356142Y-106445057D01*
X263558523Y-106349819D01*
X264689476Y-107206961D02*
X264510904Y-107111723D01*
X264439476Y-106921247D01*
X264653761Y-105206961D01*
X266308523Y-107206961D02*
X266439476Y-106159342D01*
X266368047Y-105968866D01*
X266189476Y-105873628D01*
X265808523Y-105873628D01*
X265606142Y-105968866D01*
X266320428Y-107111723D02*
X266118047Y-107206961D01*
X265641857Y-107206961D01*
X265463285Y-107111723D01*
X265391857Y-106921247D01*
X265415666Y-106730771D01*
X265534714Y-106540295D01*
X265737095Y-106445057D01*
X266213285Y-106445057D01*
X266415666Y-106349819D01*
X267427571Y-105873628D02*
X267260904Y-107206961D01*
X267403761Y-106064104D02*
X267510904Y-105968866D01*
X267713285Y-105873628D01*
X267999000Y-105873628D01*
X268177571Y-105968866D01*
X268249000Y-106159342D01*
X268118047Y-107206961D01*
X269939476Y-107111723D02*
X269737095Y-107206961D01*
X269356142Y-107206961D01*
X269177571Y-107111723D01*
X269094238Y-107016485D01*
X269022809Y-106826009D01*
X269094238Y-106254580D01*
X269213285Y-106064104D01*
X269320428Y-105968866D01*
X269522809Y-105873628D01*
X269903761Y-105873628D01*
X270082333Y-105968866D01*
X271558523Y-107111723D02*
X271356142Y-107206961D01*
X270975190Y-107206961D01*
X270796619Y-107111723D01*
X270725190Y-106921247D01*
X270820428Y-106159342D01*
X270939476Y-105968866D01*
X271141857Y-105873628D01*
X271522809Y-105873628D01*
X271701380Y-105968866D01*
X271772809Y-106159342D01*
X271749000Y-106349819D01*
X270772809Y-106540295D01*
X273356142Y-107206961D02*
X273606142Y-105206961D01*
X273368047Y-107111723D02*
X273165666Y-107206961D01*
X272784714Y-107206961D01*
X272606142Y-107111723D01*
X272522809Y-107016485D01*
X272451380Y-106826009D01*
X272522809Y-106254580D01*
X272641857Y-106064104D01*
X272749000Y-105968866D01*
X272951380Y-105873628D01*
X273332333Y-105873628D01*
X273510904Y-105968866D01*
X275832333Y-107206961D02*
X276082333Y-105206961D01*
X277415666Y-105206961D02*
X277796619Y-105206961D01*
X277975190Y-105302200D01*
X278141857Y-105492676D01*
X278189476Y-105873628D01*
X278106142Y-106540295D01*
X277963285Y-106921247D01*
X277749000Y-107111723D01*
X277546619Y-107206961D01*
X277165666Y-107206961D01*
X276987095Y-107111723D01*
X276820428Y-106921247D01*
X276772809Y-106540295D01*
X276856142Y-105873628D01*
X276999000Y-105492676D01*
X277213285Y-105302200D01*
X277415666Y-105206961D01*
X281570428Y-107016485D02*
X281463285Y-107111723D01*
X281165666Y-107206961D01*
X280975190Y-107206961D01*
X280701380Y-107111723D01*
X280534714Y-106921247D01*
X280463285Y-106730771D01*
X280415666Y-106349819D01*
X280451380Y-106064104D01*
X280594238Y-105683152D01*
X280713285Y-105492676D01*
X280927571Y-105302200D01*
X281225190Y-105206961D01*
X281415666Y-105206961D01*
X281689476Y-105302200D01*
X281772809Y-105397438D01*
X283260904Y-107206961D02*
X283391857Y-106159342D01*
X283320428Y-105968866D01*
X283141857Y-105873628D01*
X282760904Y-105873628D01*
X282558523Y-105968866D01*
X283272809Y-107111723D02*
X283070428Y-107206961D01*
X282594238Y-107206961D01*
X282415666Y-107111723D01*
X282344238Y-106921247D01*
X282368047Y-106730771D01*
X282487095Y-106540295D01*
X282689476Y-106445057D01*
X283165666Y-106445057D01*
X283368047Y-106349819D01*
X284213285Y-107206961D02*
X284379952Y-105873628D01*
X284332333Y-106254580D02*
X284451380Y-106064104D01*
X284558523Y-105968866D01*
X284760904Y-105873628D01*
X284951380Y-105873628D01*
X286308523Y-107206961D02*
X286558523Y-105206961D01*
X286320428Y-107111723D02*
X286118047Y-107206961D01*
X285737095Y-107206961D01*
X285558523Y-107111723D01*
X285475190Y-107016485D01*
X285403761Y-106826009D01*
X285475190Y-106254580D01*
X285594238Y-106064104D01*
X285701380Y-105968866D01*
X285903761Y-105873628D01*
X286284714Y-105873628D01*
X286463285Y-105968866D01*
D10*
D11*
X231921142Y-102595057D02*
X231421142Y-102595057D01*
X231421142Y-103380771D02*
X231421142Y-101880771D01*
X232135428Y-101880771D01*
X232706857Y-103380771D02*
X232706857Y-102380771D01*
X232706857Y-101880771D02*
X232635428Y-101952200D01*
X232706857Y-102023628D01*
X232778285Y-101952200D01*
X232706857Y-101880771D01*
X232706857Y-102023628D01*
X233635428Y-103380771D02*
X233492571Y-103309342D01*
X233421142Y-103166485D01*
X233421142Y-101880771D01*
X234778285Y-103309342D02*
X234635428Y-103380771D01*
X234349714Y-103380771D01*
X234206857Y-103309342D01*
X234135428Y-103166485D01*
X234135428Y-102595057D01*
X234206857Y-102452200D01*
X234349714Y-102380771D01*
X234635428Y-102380771D01*
X234778285Y-102452200D01*
X234849714Y-102595057D01*
X234849714Y-102737914D01*
X234135428Y-102880771D01*
X235492571Y-103237914D02*
X235564000Y-103309342D01*
X235492571Y-103380771D01*
X235421142Y-103309342D01*
X235492571Y-103237914D01*
X235492571Y-103380771D01*
X235492571Y-102452200D02*
X235564000Y-102523628D01*
X235492571Y-102595057D01*
X235421142Y-102523628D01*
X235492571Y-102452200D01*
X235492571Y-102595057D01*
X237349714Y-103380771D02*
X237349714Y-101880771D01*
X237349714Y-102452200D02*
X237492571Y-102380771D01*
X237778285Y-102380771D01*
X237921142Y-102452200D01*
X237992571Y-102523628D01*
X238064000Y-102666485D01*
X238064000Y-103095057D01*
X237992571Y-103237914D01*
X237921142Y-103309342D01*
X237778285Y-103380771D01*
X237492571Y-103380771D01*
X237349714Y-103309342D01*
X239349714Y-103380771D02*
X239349714Y-102595057D01*
X239278285Y-102452200D01*
X239135428Y-102380771D01*
X238849714Y-102380771D01*
X238706857Y-102452200D01*
X239349714Y-103309342D02*
X239206857Y-103380771D01*
X238849714Y-103380771D01*
X238706857Y-103309342D01*
X238635428Y-103166485D01*
X238635428Y-103023628D01*
X238706857Y-102880771D01*
X238849714Y-102809342D01*
X239206857Y-102809342D01*
X239349714Y-102737914D01*
X240278285Y-103380771D02*
X240135428Y-103309342D01*
X240064000Y-103166485D01*
X240064000Y-101880771D01*
X240849714Y-103380771D02*
X240849714Y-102380771D01*
X240849714Y-101880771D02*
X240778285Y-101952200D01*
X240849714Y-102023628D01*
X240921142Y-101952200D01*
X240849714Y-101880771D01*
X240849714Y-102023628D01*
X241778285Y-103380771D02*
X241635428Y-103309342D01*
X241564000Y-103237914D01*
X241492571Y-103095057D01*
X241492571Y-102666485D01*
X241564000Y-102523628D01*
X241635428Y-102452200D01*
X241778285Y-102380771D01*
X241992571Y-102380771D01*
X242135428Y-102452200D01*
X242206857Y-102523628D01*
X242278285Y-102666485D01*
X242278285Y-103095057D01*
X242206857Y-103237914D01*
X242135428Y-103309342D01*
X241992571Y-103380771D01*
X241778285Y-103380771D01*
X242921142Y-103237914D02*
X242992571Y-103309342D01*
X242921142Y-103380771D01*
X242849714Y-103309342D01*
X242921142Y-103237914D01*
X242921142Y-103380771D01*
X243635428Y-103380771D02*
X243635428Y-101880771D01*
X243778285Y-102809342D02*
X244206857Y-103380771D01*
X244206857Y-102380771D02*
X243635428Y-102952200D01*
X244849714Y-103380771D02*
X244849714Y-102380771D01*
X244849714Y-101880771D02*
X244778285Y-101952200D01*
X244849714Y-102023628D01*
X244921142Y-101952200D01*
X244849714Y-101880771D01*
X244849714Y-102023628D01*
X246206857Y-103309342D02*
X246064000Y-103380771D01*
X245778285Y-103380771D01*
X245635428Y-103309342D01*
X245564000Y-103237914D01*
X245492571Y-103095057D01*
X245492571Y-102666485D01*
X245564000Y-102523628D01*
X245635428Y-102452200D01*
X245778285Y-102380771D01*
X246064000Y-102380771D01*
X246206857Y-102452200D01*
X247492571Y-103380771D02*
X247492571Y-102595057D01*
X247421142Y-102452200D01*
X247278285Y-102380771D01*
X246992571Y-102380771D01*
X246849714Y-102452200D01*
X247492571Y-103309342D02*
X247349714Y-103380771D01*
X246992571Y-103380771D01*
X246849714Y-103309342D01*
X246778285Y-103166485D01*
X246778285Y-103023628D01*
X246849714Y-102880771D01*
X246992571Y-102809342D01*
X247349714Y-102809342D01*
X247492571Y-102737914D01*
X248849714Y-103380771D02*
X248849714Y-101880771D01*
X248849714Y-103309342D02*
X248706857Y-103380771D01*
X248421142Y-103380771D01*
X248278285Y-103309342D01*
X248206857Y-103237914D01*
X248135428Y-103095057D01*
X248135428Y-102666485D01*
X248206857Y-102523628D01*
X248278285Y-102452200D01*
X248421142Y-102380771D01*
X248706857Y-102380771D01*
X248849714Y-102452200D01*
X249206857Y-103523628D02*
X250349714Y-103523628D01*
X250706857Y-102380771D02*
X250706857Y-103880771D01*
X250706857Y-102452200D02*
X250849714Y-102380771D01*
X251135428Y-102380771D01*
X251278285Y-102452200D01*
X251349714Y-102523628D01*
X251421142Y-102666485D01*
X251421142Y-103095057D01*
X251349714Y-103237914D01*
X251278285Y-103309342D01*
X251135428Y-103380771D01*
X250849714Y-103380771D01*
X250706857Y-103309342D01*
X252706857Y-103309342D02*
X252564000Y-103380771D01*
X252278285Y-103380771D01*
X252135428Y-103309342D01*
X252064000Y-103237914D01*
X251992571Y-103095057D01*
X251992571Y-102666485D01*
X252064000Y-102523628D01*
X252135428Y-102452200D01*
X252278285Y-102380771D01*
X252564000Y-102380771D01*
X252706857Y-102452200D01*
X253349714Y-103380771D02*
X253349714Y-101880771D01*
X253349714Y-102452200D02*
X253492571Y-102380771D01*
X253778285Y-102380771D01*
X253921142Y-102452200D01*
X253992571Y-102523628D01*
X254064000Y-102666485D01*
X254064000Y-103095057D01*
X253992571Y-103237914D01*
X253921142Y-103309342D01*
X253778285Y-103380771D01*
X253492571Y-103380771D01*
X253349714Y-103309342D01*
D10*
D11*
X229989000Y-98502200D02*
X337989000Y-98502200D01*
D10*
D11*
X231349714Y-100609342D02*
X231564000Y-100680771D01*
X231921142Y-100680771D01*
X232064000Y-100609342D01*
X232135428Y-100537914D01*
X232206857Y-100395057D01*
X232206857Y-100252200D01*
X232135428Y-100109342D01*
X232064000Y-100037914D01*
X231921142Y-99966485D01*
X231635428Y-99895057D01*
X231492571Y-99823628D01*
X231421142Y-99752200D01*
X231349714Y-99609342D01*
X231349714Y-99466485D01*
X231421142Y-99323628D01*
X231492571Y-99252200D01*
X231635428Y-99180771D01*
X231992571Y-99180771D01*
X232206857Y-99252200D01*
X232849714Y-100680771D02*
X232849714Y-99180771D01*
X233492571Y-100680771D02*
X233492571Y-99895057D01*
X233421142Y-99752200D01*
X233278285Y-99680771D01*
X233064000Y-99680771D01*
X232921142Y-99752200D01*
X232849714Y-99823628D01*
X234778285Y-100609342D02*
X234635428Y-100680771D01*
X234349714Y-100680771D01*
X234206857Y-100609342D01*
X234135428Y-100466485D01*
X234135428Y-99895057D01*
X234206857Y-99752200D01*
X234349714Y-99680771D01*
X234635428Y-99680771D01*
X234778285Y-99752200D01*
X234849714Y-99895057D01*
X234849714Y-100037914D01*
X234135428Y-100180771D01*
X236064000Y-100609342D02*
X235921142Y-100680771D01*
X235635428Y-100680771D01*
X235492571Y-100609342D01*
X235421142Y-100466485D01*
X235421142Y-99895057D01*
X235492571Y-99752200D01*
X235635428Y-99680771D01*
X235921142Y-99680771D01*
X236064000Y-99752200D01*
X236135428Y-99895057D01*
X236135428Y-100037914D01*
X235421142Y-100180771D01*
X236564000Y-99680771D02*
X237135428Y-99680771D01*
X236778285Y-99180771D02*
X236778285Y-100466485D01*
X236849714Y-100609342D01*
X236992571Y-100680771D01*
X237135428Y-100680771D01*
X237635428Y-100537914D02*
X237706857Y-100609342D01*
X237635428Y-100680771D01*
X237564000Y-100609342D01*
X237635428Y-100537914D01*
X237635428Y-100680771D01*
X237635428Y-99752200D02*
X237706857Y-99823628D01*
X237635428Y-99895057D01*
X237564000Y-99823628D01*
X237635428Y-99752200D01*
X237635428Y-99895057D01*
D10*
D12*
X232398285Y-97537914D02*
X232326857Y-97609342D01*
X232112571Y-97680771D01*
X231969714Y-97680771D01*
X231755428Y-97609342D01*
X231612571Y-97466485D01*
X231541142Y-97323628D01*
X231469714Y-97037914D01*
X231469714Y-96823628D01*
X231541142Y-96537914D01*
X231612571Y-96395057D01*
X231755428Y-96252200D01*
X231969714Y-96180771D01*
X232112571Y-96180771D01*
X232326857Y-96252200D01*
X232398285Y-96323628D01*
X233255428Y-97680771D02*
X233112571Y-97609342D01*
X233041142Y-97537914D01*
X232969714Y-97395057D01*
X232969714Y-96966485D01*
X233041142Y-96823628D01*
X233112571Y-96752200D01*
X233255428Y-96680771D01*
X233469714Y-96680771D01*
X233612571Y-96752200D01*
X233684000Y-96823628D01*
X233755428Y-96966485D01*
X233755428Y-97395057D01*
X233684000Y-97537914D01*
X233612571Y-97609342D01*
X233469714Y-97680771D01*
X233255428Y-97680771D01*
X234398285Y-96680771D02*
X234398285Y-98180771D01*
X234398285Y-96752200D02*
X234541142Y-96680771D01*
X234826857Y-96680771D01*
X234969714Y-96752200D01*
X235041142Y-96823628D01*
X235112571Y-96966485D01*
X235112571Y-97395057D01*
X235041142Y-97537914D01*
X234969714Y-97609342D01*
X234826857Y-97680771D01*
X234541142Y-97680771D01*
X234398285Y-97609342D01*
X235612571Y-96680771D02*
X235969714Y-97680771D01*
X236326857Y-96680771D02*
X235969714Y-97680771D01*
X235826857Y-98037914D01*
X235755428Y-98109342D01*
X235612571Y-98180771D01*
X236898285Y-97680771D02*
X236898285Y-96680771D01*
X236898285Y-96966485D02*
X236969714Y-96823628D01*
X237041142Y-96752200D01*
X237184000Y-96680771D01*
X237326857Y-96680771D01*
X237826857Y-97680771D02*
X237826857Y-96680771D01*
X237826857Y-96180771D02*
X237755428Y-96252200D01*
X237826857Y-96323628D01*
X237898285Y-96252200D01*
X237826857Y-96180771D01*
X237826857Y-96323628D01*
X239184000Y-96680771D02*
X239184000Y-97895057D01*
X239112571Y-98037914D01*
X239041142Y-98109342D01*
X238898285Y-98180771D01*
X238684000Y-98180771D01*
X238541142Y-98109342D01*
X239184000Y-97609342D02*
X239041142Y-97680771D01*
X238755428Y-97680771D01*
X238612571Y-97609342D01*
X238541142Y-97537914D01*
X238469714Y-97395057D01*
X238469714Y-96966485D01*
X238541142Y-96823628D01*
X238612571Y-96752200D01*
X238755428Y-96680771D01*
X239041142Y-96680771D01*
X239184000Y-96752200D01*
X239898285Y-97680771D02*
X239898285Y-96180771D01*
X240541142Y-97680771D02*
X240541142Y-96895057D01*
X240469714Y-96752200D01*
X240326857Y-96680771D01*
X240112571Y-96680771D01*
X239969714Y-96752200D01*
X239898285Y-96823628D01*
X241041142Y-96680771D02*
X241612571Y-96680771D01*
X241255428Y-96180771D02*
X241255428Y-97466485D01*
X241326857Y-97609342D01*
X241469714Y-97680771D01*
X241612571Y-97680771D01*
X244469714Y-96537914D02*
X244326857Y-96466485D01*
X244041142Y-96466485D01*
X243898285Y-96537914D01*
X243755428Y-96680771D01*
X243684000Y-96823628D01*
X243684000Y-97109342D01*
X243755428Y-97252200D01*
X243898285Y-97395057D01*
X244041142Y-97466485D01*
X244326857Y-97466485D01*
X244469714Y-97395057D01*
X244184000Y-95966485D02*
X243826857Y-96037914D01*
X243469714Y-96252200D01*
X243255428Y-96609342D01*
X243184000Y-96966485D01*
X243255428Y-97323628D01*
X243469714Y-97680771D01*
X243826857Y-97895057D01*
X244184000Y-97966485D01*
X244541142Y-97895057D01*
X244898285Y-97680771D01*
X245112571Y-97323628D01*
X245184000Y-96966485D01*
X245112571Y-96609342D01*
X244898285Y-96252200D01*
X244541142Y-96037914D01*
X244184000Y-95966485D01*
X246898285Y-96323628D02*
X246969714Y-96252200D01*
X247112571Y-96180771D01*
X247469714Y-96180771D01*
X247612571Y-96252200D01*
X247684000Y-96323628D01*
X247755428Y-96466485D01*
X247755428Y-96609342D01*
X247684000Y-96823628D01*
X246826857Y-97680771D01*
X247755428Y-97680771D01*
X248684000Y-96180771D02*
X248826857Y-96180771D01*
X248969714Y-96252200D01*
X249041142Y-96323628D01*
X249112571Y-96466485D01*
X249184000Y-96752200D01*
X249184000Y-97109342D01*
X249112571Y-97395057D01*
X249041142Y-97537914D01*
X248969714Y-97609342D01*
X248826857Y-97680771D01*
X248684000Y-97680771D01*
X248541142Y-97609342D01*
X248469714Y-97537914D01*
X248398285Y-97395057D01*
X248326857Y-97109342D01*
X248326857Y-96752200D01*
X248398285Y-96466485D01*
X248469714Y-96323628D01*
X248541142Y-96252200D01*
X248684000Y-96180771D01*
X249755428Y-96323628D02*
X249826857Y-96252200D01*
X249969714Y-96180771D01*
X250326857Y-96180771D01*
X250469714Y-96252200D01*
X250541142Y-96323628D01*
X250612571Y-96466485D01*
X250612571Y-96609342D01*
X250541142Y-96823628D01*
X249684000Y-97680771D01*
X250612571Y-97680771D01*
X252041142Y-97680771D02*
X251184000Y-97680771D01*
X251612571Y-97680771D02*
X251612571Y-96180771D01*
X251469714Y-96395057D01*
X251326857Y-96537914D01*
X251184000Y-96609342D01*
X253612571Y-96180771D02*
X254469714Y-96180771D01*
X254041142Y-97680771D02*
X254041142Y-96180771D01*
X255612571Y-97680771D02*
X255612571Y-96895057D01*
X255541142Y-96752200D01*
X255398285Y-96680771D01*
X255112571Y-96680771D01*
X254969714Y-96752200D01*
X255612571Y-97609342D02*
X255469714Y-97680771D01*
X255112571Y-97680771D01*
X254969714Y-97609342D01*
X254898285Y-97466485D01*
X254898285Y-97323628D01*
X254969714Y-97180771D01*
X255112571Y-97109342D01*
X255469714Y-97109342D01*
X255612571Y-97037914D01*
X256326857Y-97680771D02*
X256326857Y-96680771D01*
X256326857Y-96966485D02*
X256398285Y-96823628D01*
X256469714Y-96752200D01*
X256612571Y-96680771D01*
X256755428Y-96680771D01*
X257469714Y-97680771D02*
X257326857Y-97609342D01*
X257255428Y-97537914D01*
X257184000Y-97395057D01*
X257184000Y-96966485D01*
X257255428Y-96823628D01*
X257326857Y-96752200D01*
X257469714Y-96680771D01*
X257684000Y-96680771D01*
X257826857Y-96752200D01*
X257898285Y-96823628D01*
X257969714Y-96966485D01*
X257969714Y-97395057D01*
X257898285Y-97537914D01*
X257826857Y-97609342D01*
X257684000Y-97680771D01*
X257469714Y-97680771D01*
X258398285Y-96680771D02*
X258969714Y-96680771D01*
X258612571Y-96180771D02*
X258612571Y-97466485D01*
X258684000Y-97609342D01*
X258826857Y-97680771D01*
X258969714Y-97680771D01*
X260541142Y-97609342D02*
X260755428Y-97680771D01*
X261112571Y-97680771D01*
X261255428Y-97609342D01*
X261326857Y-97537914D01*
X261398285Y-97395057D01*
X261398285Y-97252200D01*
X261326857Y-97109342D01*
X261255428Y-97037914D01*
X261112571Y-96966485D01*
X260826857Y-96895057D01*
X260684000Y-96823628D01*
X260612571Y-96752200D01*
X260541142Y-96609342D01*
X260541142Y-96466485D01*
X260612571Y-96323628D01*
X260684000Y-96252200D01*
X260826857Y-96180771D01*
X261184000Y-96180771D01*
X261398285Y-96252200D01*
X261898285Y-96680771D02*
X262255428Y-97680771D01*
X262612571Y-96680771D02*
X262255428Y-97680771D01*
X262112571Y-98037914D01*
X262041142Y-98109342D01*
X261898285Y-98180771D01*
X263112571Y-97609342D02*
X263255428Y-97680771D01*
X263541142Y-97680771D01*
X263684000Y-97609342D01*
X263755428Y-97466485D01*
X263755428Y-97395057D01*
X263684000Y-97252200D01*
X263541142Y-97180771D01*
X263326857Y-97180771D01*
X263184000Y-97109342D01*
X263112571Y-96966485D01*
X263112571Y-96895057D01*
X263184000Y-96752200D01*
X263326857Y-96680771D01*
X263541142Y-96680771D01*
X263684000Y-96752200D01*
X264184000Y-96680771D02*
X264755428Y-96680771D01*
X264398285Y-96180771D02*
X264398285Y-97466485D01*
X264469714Y-97609342D01*
X264612571Y-97680771D01*
X264755428Y-97680771D01*
X265826857Y-97609342D02*
X265684000Y-97680771D01*
X265398285Y-97680771D01*
X265255428Y-97609342D01*
X265184000Y-97466485D01*
X265184000Y-96895057D01*
X265255428Y-96752200D01*
X265398285Y-96680771D01*
X265684000Y-96680771D01*
X265826857Y-96752200D01*
X265898285Y-96895057D01*
X265898285Y-97037914D01*
X265184000Y-97180771D01*
X266541142Y-97680771D02*
X266541142Y-96680771D01*
X266541142Y-96823628D02*
X266612571Y-96752200D01*
X266755428Y-96680771D01*
X266969714Y-96680771D01*
X267112571Y-96752200D01*
X267184000Y-96895057D01*
X267184000Y-97680771D01*
X267184000Y-96895057D02*
X267255428Y-96752200D01*
X267398285Y-96680771D01*
X267612571Y-96680771D01*
X267755428Y-96752200D01*
X267826857Y-96895057D01*
X267826857Y-97680771D01*
X268469714Y-97609342D02*
X268612571Y-97680771D01*
X268898285Y-97680771D01*
X269041142Y-97609342D01*
X269112571Y-97466485D01*
X269112571Y-97395057D01*
X269041142Y-97252200D01*
X268898285Y-97180771D01*
X268684000Y-97180771D01*
X268541142Y-97109342D01*
X268469714Y-96966485D01*
X268469714Y-96895057D01*
X268541142Y-96752200D01*
X268684000Y-96680771D01*
X268898285Y-96680771D01*
X269041142Y-96752200D01*
D10*
D11*
X249989000Y-108502200D02*
X249989000Y-111502200D01*
D10*
D11*
X313989000Y-108502200D02*
X313989000Y-115002200D01*
D10*
X196000000Y6260000D02*
X198500000Y6260000D01*
X198500000Y6260000D02*
X198500000Y12560000D01*
X198500000Y12560000D02*
X196000000Y12560000D01*
X196000000Y12560000D02*
X196000000Y6260000D01*
X197250000Y5600000D02*
X197250000Y6260000D01*
X197250000Y13220000D02*
X197250000Y12560000D01*
X166750000Y6260000D02*
X169250000Y6260000D01*
X169250000Y6260000D02*
X169250000Y12560000D01*
X169250000Y12560000D02*
X166750000Y12560000D01*
X166750000Y12560000D02*
X166750000Y6260000D01*
X168000000Y5600000D02*
X168000000Y6260000D01*
X168000000Y13220000D02*
X168000000Y12560000D01*
X195250000Y12590000D02*
X192750000Y12590000D01*
X192750000Y12590000D02*
X192750000Y6290000D01*
X192750000Y6290000D02*
X195250000Y6290000D01*
X195250000Y6290000D02*
X195250000Y12590000D01*
X194000000Y13250000D02*
X194000000Y12590000D01*
X194000000Y5630000D02*
X194000000Y6290000D01*
X166000000Y12590000D02*
X163500000Y12590000D01*
X163500000Y12590000D02*
X163500000Y6290000D01*
X163500000Y6290000D02*
X166000000Y6290000D01*
X166000000Y6290000D02*
X166000000Y12590000D01*
X164750000Y13250000D02*
X164750000Y12590000D01*
X164750000Y5630000D02*
X164750000Y6290000D01*
X198500000Y34590000D02*
X196000000Y34590000D01*
X196000000Y34590000D02*
X196000000Y28290000D01*
X196000000Y28290000D02*
X198500000Y28290000D01*
X198500000Y28290000D02*
X198500000Y34590000D01*
X197250000Y35250000D02*
X197250000Y34590000D01*
X197250000Y27630000D02*
X197250000Y28290000D01*
X169250000Y34090000D02*
X166750000Y34090000D01*
X166750000Y34090000D02*
X166750000Y27790000D01*
X166750000Y27790000D02*
X169250000Y27790000D01*
X169250000Y27790000D02*
X169250000Y34090000D01*
X168000000Y34750000D02*
X168000000Y34090000D01*
X168000000Y27130000D02*
X168000000Y27790000D01*
X192750000Y28260000D02*
X195250000Y28260000D01*
X195250000Y28260000D02*
X195250000Y34560000D01*
X195250000Y34560000D02*
X192750000Y34560000D01*
X192750000Y34560000D02*
X192750000Y28260000D01*
X194000000Y27600000D02*
X194000000Y28260000D01*
X194000000Y35220000D02*
X194000000Y34560000D01*
X163500000Y27760000D02*
X166000000Y27760000D01*
X166000000Y27760000D02*
X166000000Y34060000D01*
X166000000Y34060000D02*
X163500000Y34060000D01*
X163500000Y34060000D02*
X163500000Y27760000D01*
X164750000Y27100000D02*
X164750000Y27760000D01*
X164750000Y34720000D02*
X164750000Y34060000D01*
X202500000Y6260000D02*
X205000000Y6260000D01*
X205000000Y6260000D02*
X205000000Y12560000D01*
X205000000Y12560000D02*
X202500000Y12560000D01*
X202500000Y12560000D02*
X202500000Y6260000D01*
X203750000Y5600000D02*
X203750000Y6260000D01*
X203750000Y13220000D02*
X203750000Y12560000D01*
X173250000Y6260000D02*
X175750000Y6260000D01*
X175750000Y6260000D02*
X175750000Y12560000D01*
X175750000Y12560000D02*
X173250000Y12560000D01*
X173250000Y12560000D02*
X173250000Y6260000D01*
X174500000Y5600000D02*
X174500000Y6260000D01*
X174500000Y13220000D02*
X174500000Y12560000D01*
X209000000Y6260000D02*
X211500000Y6260000D01*
X211500000Y6260000D02*
X211500000Y12560000D01*
X211500000Y12560000D02*
X209000000Y12560000D01*
X209000000Y12560000D02*
X209000000Y6260000D01*
X210250000Y5600000D02*
X210250000Y6260000D01*
X210250000Y13220000D02*
X210250000Y12560000D01*
X199250000Y6260000D02*
X201750000Y6260000D01*
X201750000Y6260000D02*
X201750000Y12560000D01*
X201750000Y12560000D02*
X199250000Y12560000D01*
X199250000Y12560000D02*
X199250000Y6260000D01*
X200500000Y5600000D02*
X200500000Y6260000D01*
X200500000Y13220000D02*
X200500000Y12560000D01*
X179750000Y6260000D02*
X182250000Y6260000D01*
X182250000Y6260000D02*
X182250000Y12560000D01*
X182250000Y12560000D02*
X179750000Y12560000D01*
X179750000Y12560000D02*
X179750000Y6260000D01*
X181000000Y5600000D02*
X181000000Y6260000D01*
X181000000Y13220000D02*
X181000000Y12560000D01*
X170000000Y6260000D02*
X172500000Y6260000D01*
X172500000Y6260000D02*
X172500000Y12560000D01*
X172500000Y12560000D02*
X170000000Y12560000D01*
X170000000Y12560000D02*
X170000000Y6260000D01*
X171250000Y5600000D02*
X171250000Y6260000D01*
X171250000Y13220000D02*
X171250000Y12560000D01*
X186250000Y6260000D02*
X188750000Y6260000D01*
X188750000Y6260000D02*
X188750000Y12560000D01*
X188750000Y12560000D02*
X186250000Y12560000D01*
X186250000Y12560000D02*
X186250000Y6260000D01*
X187500000Y5600000D02*
X187500000Y6260000D01*
X187500000Y13220000D02*
X187500000Y12560000D01*
X189500000Y6260000D02*
X192000000Y6260000D01*
X192000000Y6260000D02*
X192000000Y12560000D01*
X192000000Y12560000D02*
X189500000Y12560000D01*
X189500000Y12560000D02*
X189500000Y6260000D01*
X190750000Y5600000D02*
X190750000Y6260000D01*
X190750000Y13220000D02*
X190750000Y12560000D01*
X205000000Y34590000D02*
X202500000Y34590000D01*
X202500000Y34590000D02*
X202500000Y28290000D01*
X202500000Y28290000D02*
X205000000Y28290000D01*
X205000000Y28290000D02*
X205000000Y34590000D01*
X203750000Y35250000D02*
X203750000Y34590000D01*
X203750000Y27630000D02*
X203750000Y28290000D01*
X175750000Y34090000D02*
X173250000Y34090000D01*
X173250000Y34090000D02*
X173250000Y27790000D01*
X173250000Y27790000D02*
X175750000Y27790000D01*
X175750000Y27790000D02*
X175750000Y34090000D01*
X174500000Y34750000D02*
X174500000Y34090000D01*
X174500000Y27130000D02*
X174500000Y27790000D01*
X211500000Y34590000D02*
X209000000Y34590000D01*
X209000000Y34590000D02*
X209000000Y28290000D01*
X209000000Y28290000D02*
X211500000Y28290000D01*
X211500000Y28290000D02*
X211500000Y34590000D01*
X210250000Y35250000D02*
X210250000Y34590000D01*
X210250000Y27630000D02*
X210250000Y28290000D01*
X201750000Y34590000D02*
X199250000Y34590000D01*
X199250000Y34590000D02*
X199250000Y28290000D01*
X199250000Y28290000D02*
X201750000Y28290000D01*
X201750000Y28290000D02*
X201750000Y34590000D01*
X200500000Y35250000D02*
X200500000Y34590000D01*
X200500000Y27630000D02*
X200500000Y28290000D01*
X182250000Y34090000D02*
X179750000Y34090000D01*
X179750000Y34090000D02*
X179750000Y27790000D01*
X179750000Y27790000D02*
X182250000Y27790000D01*
X182250000Y27790000D02*
X182250000Y34090000D01*
X181000000Y34750000D02*
X181000000Y34090000D01*
X181000000Y27130000D02*
X181000000Y27790000D01*
X172500000Y34090000D02*
X170000000Y34090000D01*
X170000000Y34090000D02*
X170000000Y27790000D01*
X170000000Y27790000D02*
X172500000Y27790000D01*
X172500000Y27790000D02*
X172500000Y34090000D01*
X171250000Y34750000D02*
X171250000Y34090000D01*
X171250000Y27130000D02*
X171250000Y27790000D01*
X188750000Y34590000D02*
X186250000Y34590000D01*
X186250000Y34590000D02*
X186250000Y28290000D01*
X186250000Y28290000D02*
X188750000Y28290000D01*
X188750000Y28290000D02*
X188750000Y34590000D01*
X187500000Y35250000D02*
X187500000Y34590000D01*
X187500000Y27630000D02*
X187500000Y28290000D01*
X192000000Y34590000D02*
X189500000Y34590000D01*
X189500000Y34590000D02*
X189500000Y28290000D01*
X189500000Y28290000D02*
X192000000Y28290000D01*
X192000000Y28290000D02*
X192000000Y34590000D01*
X190750000Y35250000D02*
X190750000Y34590000D01*
X190750000Y27630000D02*
X190750000Y28290000D01*
X84000000Y6660000D02*
X86500000Y6660000D01*
X86500000Y6660000D02*
X86500000Y12960000D01*
X86500000Y12960000D02*
X84000000Y12960000D01*
X84000000Y12960000D02*
X84000000Y6660000D01*
X85250000Y6000000D02*
X85250000Y6660000D01*
X85250000Y13620000D02*
X85250000Y12960000D01*
X17250000Y6660000D02*
X19750000Y6660000D01*
X19750000Y6660000D02*
X19750000Y12960000D01*
X19750000Y12960000D02*
X17250000Y12960000D01*
X17250000Y12960000D02*
X17250000Y6660000D01*
X18500000Y6000000D02*
X18500000Y6660000D01*
X18500000Y13620000D02*
X18500000Y12960000D01*
X83000000Y27410000D02*
X85500000Y27410000D01*
X85500000Y27410000D02*
X85500000Y33710000D01*
X85500000Y33710000D02*
X83000000Y33710000D01*
X83000000Y33710000D02*
X83000000Y27410000D01*
X84250000Y26750000D02*
X84250000Y27410000D01*
X84250000Y34370000D02*
X84250000Y33710000D01*
X76500000Y27410000D02*
X79000000Y27410000D01*
X79000000Y27410000D02*
X79000000Y33710000D01*
X79000000Y33710000D02*
X76500000Y33710000D01*
X76500000Y33710000D02*
X76500000Y27410000D01*
X77750000Y26750000D02*
X77750000Y27410000D01*
X77750000Y34370000D02*
X77750000Y33710000D01*
X16250000Y27410000D02*
X18750000Y27410000D01*
X18750000Y27410000D02*
X18750000Y33710000D01*
X18750000Y33710000D02*
X16250000Y33710000D01*
X16250000Y33710000D02*
X16250000Y27410000D01*
X17500000Y26750000D02*
X17500000Y27410000D01*
X17500000Y34370000D02*
X17500000Y33710000D01*
X9750000Y27410000D02*
X12250000Y27410000D01*
X12250000Y27410000D02*
X12250000Y33710000D01*
X12250000Y33710000D02*
X9750000Y33710000D01*
X9750000Y33710000D02*
X9750000Y27410000D01*
X11000000Y26750000D02*
X11000000Y27410000D01*
X11000000Y34370000D02*
X11000000Y33710000D01*
D14*
X252550000Y60000000D02*
X232450000Y60000000D01*
X232450000Y60000000D02*
X232450000Y37200000D01*
X232450000Y37200000D02*
X252550000Y37200000D01*
X252550000Y37200000D02*
X252550000Y60000000D01*
X247500000Y64500000D02*
X247000000Y64500000D01*
X247000000Y64500000D02*
X247000000Y68200000D01*
X247000000Y68200000D02*
X238000000Y68200000D01*
X238000000Y68200000D02*
X238000000Y64500000D01*
X238000000Y64500000D02*
X237500000Y64500000D01*
X247500000Y64500000D02*
X248050000Y64500000D01*
X248050000Y64500000D02*
X248050000Y60000000D01*
X237500000Y64500000D02*
X236950000Y64500000D01*
X236950000Y64500000D02*
X236950000Y60000000D01*
X247000000Y64500000D02*
X238000000Y64500000D01*
X248050000Y60600000D02*
X236950000Y60000000D01*
X248050000Y61100000D02*
X236950000Y60600000D01*
X248000000Y61600000D02*
X237000000Y61100000D01*
X248000000Y62100000D02*
X237000000Y61600000D01*
X237000000Y62100000D02*
X248000000Y62600000D01*
X248000000Y63100000D02*
X237000000Y62600000D01*
X237000000Y63100000D02*
X248000000Y63600000D01*
X248000000Y64100000D02*
X237000000Y63600000D01*
X237000000Y64100000D02*
X247000000Y64500000D01*
X232050000Y60000000D02*
X211950000Y60000000D01*
X211950000Y60000000D02*
X211950000Y37200000D01*
X211950000Y37200000D02*
X232050000Y37200000D01*
X232050000Y37200000D02*
X232050000Y60000000D01*
X227000000Y64500000D02*
X226500000Y64500000D01*
X226500000Y64500000D02*
X226500000Y68200000D01*
X226500000Y68200000D02*
X217500000Y68200000D01*
X217500000Y68200000D02*
X217500000Y64500000D01*
X217500000Y64500000D02*
X217000000Y64500000D01*
X227000000Y64500000D02*
X227550000Y64500000D01*
X227550000Y64500000D02*
X227550000Y60000000D01*
X217000000Y64500000D02*
X216450000Y64500000D01*
X216450000Y64500000D02*
X216450000Y60000000D01*
X226500000Y64500000D02*
X217500000Y64500000D01*
X227550000Y60600000D02*
X216450000Y60000000D01*
X227550000Y61100000D02*
X216450000Y60600000D01*
X227500000Y61600000D02*
X216500000Y61100000D01*
X227500000Y62100000D02*
X216500000Y61600000D01*
X216500000Y62100000D02*
X227500000Y62600000D01*
X227500000Y63100000D02*
X216500000Y62600000D01*
X216500000Y63100000D02*
X227500000Y63600000D01*
X227500000Y64100000D02*
X216500000Y63600000D01*
X216500000Y64100000D02*
X226500000Y64500000D01*
X255600000Y62700000D02*
X255600000Y60000000D01*
X275400000Y62700000D02*
X255600000Y62700000D01*
X275400000Y60000000D02*
X275400000Y62700000D01*
X253000000Y41500000D02*
X253000000Y60000000D01*
X265800000Y41500000D02*
X253000000Y41500000D01*
X278300000Y41500000D02*
X265800000Y41500000D01*
X278300000Y60000000D02*
X278300000Y41500000D01*
X253000000Y60000000D02*
X278300000Y60000000D01*
X188850000Y62700000D02*
X188850000Y60000000D01*
X208650000Y62700000D02*
X188850000Y62700000D01*
X208650000Y60000000D02*
X208650000Y62700000D01*
X186250000Y41500000D02*
X186250000Y60000000D01*
X199050000Y41500000D02*
X186250000Y41500000D01*
X211550000Y41500000D02*
X199050000Y41500000D01*
X211550000Y60000000D02*
X211550000Y41500000D01*
X186250000Y60000000D02*
X211550000Y60000000D01*
X160050000Y60000000D02*
X139950000Y60000000D01*
X139950000Y60000000D02*
X139950000Y37200000D01*
X139950000Y37200000D02*
X160050000Y37200000D01*
X160050000Y37200000D02*
X160050000Y60000000D01*
X155000000Y64500000D02*
X154500000Y64500000D01*
X154500000Y64500000D02*
X154500000Y68200000D01*
X154500000Y68200000D02*
X145500000Y68200000D01*
X145500000Y68200000D02*
X145500000Y64500000D01*
X145500000Y64500000D02*
X145000000Y64500000D01*
X155000000Y64500000D02*
X155550000Y64500000D01*
X155550000Y64500000D02*
X155550000Y60000000D01*
X145000000Y64500000D02*
X144450000Y64500000D01*
X144450000Y64500000D02*
X144450000Y60000000D01*
X154500000Y64500000D02*
X145500000Y64500000D01*
X155550000Y60600000D02*
X144450000Y60000000D01*
X155550000Y61100000D02*
X144450000Y60600000D01*
X155500000Y61600000D02*
X144500000Y61100000D01*
X155500000Y62100000D02*
X144500000Y61600000D01*
X144500000Y62100000D02*
X155500000Y62600000D01*
X155500000Y63100000D02*
X144500000Y62600000D01*
X144500000Y63100000D02*
X155500000Y63600000D01*
X155500000Y64100000D02*
X144500000Y63600000D01*
X144500000Y64100000D02*
X154500000Y64500000D01*
X139550000Y60000000D02*
X119450000Y60000000D01*
X119450000Y60000000D02*
X119450000Y37200000D01*
X119450000Y37200000D02*
X139550000Y37200000D01*
X139550000Y37200000D02*
X139550000Y60000000D01*
X134500000Y64500000D02*
X134000000Y64500000D01*
X134000000Y64500000D02*
X134000000Y68200000D01*
X134000000Y68200000D02*
X125000000Y68200000D01*
X125000000Y68200000D02*
X125000000Y64500000D01*
X125000000Y64500000D02*
X124500000Y64500000D01*
X134500000Y64500000D02*
X135050000Y64500000D01*
X135050000Y64500000D02*
X135050000Y60000000D01*
X124500000Y64500000D02*
X123950000Y64500000D01*
X123950000Y64500000D02*
X123950000Y60000000D01*
X134000000Y64500000D02*
X125000000Y64500000D01*
X135050000Y60600000D02*
X123950000Y60000000D01*
X135050000Y61100000D02*
X123950000Y60600000D01*
X135000000Y61600000D02*
X124000000Y61100000D01*
X135000000Y62100000D02*
X124000000Y61600000D01*
X124000000Y62100000D02*
X135000000Y62600000D01*
X135000000Y63100000D02*
X124000000Y62600000D01*
X124000000Y63100000D02*
X135000000Y63600000D01*
X135000000Y64100000D02*
X124000000Y63600000D01*
X124000000Y64100000D02*
X134000000Y64500000D01*
X163100000Y62700000D02*
X163100000Y60000000D01*
X182900000Y62700000D02*
X163100000Y62700000D01*
X182900000Y60000000D02*
X182900000Y62700000D01*
X160500000Y41500000D02*
X160500000Y60000000D01*
X173300000Y41500000D02*
X160500000Y41500000D01*
X185800000Y41500000D02*
X173300000Y41500000D01*
X185800000Y60000000D02*
X185800000Y41500000D01*
X160500000Y60000000D02*
X185800000Y60000000D01*
X96350000Y62700000D02*
X96350000Y60000000D01*
X116150000Y62700000D02*
X96350000Y62700000D01*
X116150000Y60000000D02*
X116150000Y62700000D01*
X93750000Y41500000D02*
X93750000Y60000000D01*
X106550000Y41500000D02*
X93750000Y41500000D01*
X119050000Y41500000D02*
X106550000Y41500000D01*
X119050000Y60000000D02*
X119050000Y41500000D01*
X93750000Y60000000D02*
X119050000Y60000000D01*
X150400000Y0D02*
X150400000Y-3300000D01*
X150400000Y-3300000D02*
X158600000Y-3300000D01*
X158600000Y-3300000D02*
X158600000Y0D01*
X162500000Y0D02*
X146500000Y0D01*
X146500000Y0D02*
X146500000Y12000000D01*
X146500000Y12000000D02*
X162500000Y12000000D01*
X162500000Y12000000D02*
X162500000Y0D01*
X133900000Y0D02*
X133900000Y-3300000D01*
X133900000Y-3300000D02*
X142100000Y-3300000D01*
X142100000Y-3300000D02*
X142100000Y0D01*
X146000000Y0D02*
X130000000Y0D01*
X130000000Y0D02*
X130000000Y12000000D01*
X130000000Y12000000D02*
X146000000Y12000000D01*
X146000000Y12000000D02*
X146000000Y0D01*
X91400000Y0D02*
X91400000Y-3300000D01*
X91400000Y-3300000D02*
X99600000Y-3300000D01*
X99600000Y-3300000D02*
X99600000Y0D01*
X103500000Y0D02*
X87500000Y0D01*
X87500000Y0D02*
X87500000Y12000000D01*
X87500000Y12000000D02*
X103500000Y12000000D01*
X103500000Y12000000D02*
X103500000Y0D01*
X24650000Y0D02*
X24650000Y-3300000D01*
X24650000Y-3300000D02*
X32850000Y-3300000D01*
X32850000Y-3300000D02*
X32850000Y0D01*
X36750000Y0D02*
X20750000Y0D01*
X20750000Y0D02*
X20750000Y12000000D01*
X20750000Y12000000D02*
X36750000Y12000000D01*
X36750000Y12000000D02*
X36750000Y0D01*
X67800000Y60000000D02*
X47700000Y60000000D01*
X47700000Y60000000D02*
X47700000Y37200000D01*
X47700000Y37200000D02*
X67800000Y37200000D01*
X67800000Y37200000D02*
X67800000Y60000000D01*
X62750000Y64500000D02*
X62250000Y64500000D01*
X62250000Y64500000D02*
X62250000Y68200000D01*
X62250000Y68200000D02*
X53250000Y68200000D01*
X53250000Y68200000D02*
X53250000Y64500000D01*
X53250000Y64500000D02*
X52750000Y64500000D01*
X62750000Y64500000D02*
X63300000Y64500000D01*
X63300000Y64500000D02*
X63300000Y60000000D01*
X52750000Y64500000D02*
X52200000Y64500000D01*
X52200000Y64500000D02*
X52200000Y60000000D01*
X62250000Y64500000D02*
X53250000Y64500000D01*
X63300000Y60600000D02*
X52200000Y60000000D01*
X63300000Y61100000D02*
X52200000Y60600000D01*
X63250000Y61600000D02*
X52250000Y61100000D01*
X63250000Y62100000D02*
X52250000Y61600000D01*
X52250000Y62100000D02*
X63250000Y62600000D01*
X63250000Y63100000D02*
X52250000Y62600000D01*
X52250000Y63100000D02*
X63250000Y63600000D01*
X63250000Y64100000D02*
X52250000Y63600000D01*
X52250000Y64100000D02*
X62250000Y64500000D01*
X47300000Y60000000D02*
X27200000Y60000000D01*
X27200000Y60000000D02*
X27200000Y37200000D01*
X27200000Y37200000D02*
X47300000Y37200000D01*
X47300000Y37200000D02*
X47300000Y60000000D01*
X42250000Y64500000D02*
X41750000Y64500000D01*
X41750000Y64500000D02*
X41750000Y68200000D01*
X41750000Y68200000D02*
X32750000Y68200000D01*
X32750000Y68200000D02*
X32750000Y64500000D01*
X32750000Y64500000D02*
X32250000Y64500000D01*
X42250000Y64500000D02*
X42800000Y64500000D01*
X42800000Y64500000D02*
X42800000Y60000000D01*
X32250000Y64500000D02*
X31700000Y64500000D01*
X31700000Y64500000D02*
X31700000Y60000000D01*
X41750000Y64500000D02*
X32750000Y64500000D01*
X42800000Y60600000D02*
X31700000Y60000000D01*
X42800000Y61100000D02*
X31700000Y60600000D01*
X42750000Y61600000D02*
X31750000Y61100000D01*
X42750000Y62100000D02*
X31750000Y61600000D01*
X31750000Y62100000D02*
X42750000Y62600000D01*
X42750000Y63100000D02*
X31750000Y62600000D01*
X31750000Y63100000D02*
X42750000Y63600000D01*
X42750000Y64100000D02*
X31750000Y63600000D01*
X31750000Y64100000D02*
X41750000Y64500000D01*
X91700000Y62700000D02*
X91700000Y60000000D01*
X69800000Y62700000D02*
X91700000Y62700000D01*
X69800000Y60000000D02*
X69800000Y62700000D01*
X93250000Y60000000D02*
X68250000Y60000000D01*
X93250000Y40500000D02*
X93250000Y60000000D01*
X68250000Y40500000D02*
X93250000Y40500000D01*
X68250000Y60000000D02*
X68250000Y40500000D01*
X25200000Y62700000D02*
X25200000Y60000000D01*
X3300000Y62700000D02*
X25200000Y62700000D01*
X3300000Y60000000D02*
X3300000Y62700000D01*
X26750000Y60000000D02*
X1750000Y60000000D01*
X26750000Y40500000D02*
X26750000Y60000000D01*
X1750000Y40500000D02*
X26750000Y40500000D01*
X1750000Y60000000D02*
X1750000Y40500000D01*
D10*
X38150000Y22250000D02*
G75*
G03X38150000Y22250000I-3150000J0D01*
G01*
X35000000Y25700000D02*
X35000000Y24500000D01*
X35650000Y25100000D02*
X34350000Y25100000D01*
X31150000Y18250000D02*
G75*
G03X31150000Y18250000I-3150000J0D01*
G01*
X28000000Y21700000D02*
X28000000Y20500000D01*
X28650000Y21100000D02*
X27350000Y21100000D01*
X206020000Y22615000D02*
X206020000Y17265000D01*
X206020000Y17265000D02*
X195860000Y17265000D01*
X195860000Y17265000D02*
X195860000Y23615000D01*
X195860000Y23615000D02*
X205020000Y23615000D01*
X205020000Y23615000D02*
X206020000Y22615000D01*
X175770000Y23365000D02*
X176770000Y22365000D01*
X166610000Y23365000D02*
X175770000Y23365000D01*
X166610000Y17015000D02*
X166610000Y23365000D01*
X176770000Y17015000D02*
X166610000Y17015000D01*
X176770000Y22365000D02*
X176770000Y17015000D01*
X86520000Y22365000D02*
X86520000Y17015000D01*
X86520000Y17015000D02*
X76360000Y17015000D01*
X76360000Y17015000D02*
X76360000Y23365000D01*
X76360000Y23365000D02*
X85520000Y23365000D01*
X85520000Y23365000D02*
X86520000Y22365000D01*
X19770000Y22365000D02*
X19770000Y17015000D01*
X19770000Y17015000D02*
X9610000Y17015000D01*
X9610000Y17015000D02*
X9610000Y23365000D01*
X9610000Y23365000D02*
X18770000Y23365000D01*
X18770000Y23365000D02*
X19770000Y22365000D01*
X53900000Y15300000D02*
X59650000Y15300000D01*
X59650000Y15300000D02*
X59650000Y25200000D01*
X59650000Y25200000D02*
X53900000Y25200000D01*
X53900000Y25200000D02*
X53900000Y15300000D01*
X53500000Y17400000D02*
X53500000Y14900000D01*
X53500000Y14900000D02*
X56000000Y14900000D01*
X43900000Y15300000D02*
X49650000Y15300000D01*
X49650000Y15300000D02*
X49650000Y25200000D01*
X49650000Y25200000D02*
X43900000Y25200000D01*
X43900000Y25200000D02*
X43900000Y15300000D01*
X43500000Y17400000D02*
X43500000Y14900000D01*
X43500000Y14900000D02*
X46000000Y14900000D01*
X205700000Y7450000D02*
X208300000Y7450000D01*
X208300000Y7450000D02*
X208300000Y11250000D01*
X208300000Y11250000D02*
X205700000Y11250000D01*
X205700000Y11250000D02*
X205700000Y7450000D01*
X176450000Y11400000D02*
X176450000Y7600000D01*
X179050000Y11400000D02*
X176450000Y11400000D01*
X179050000Y7600000D02*
X179050000Y11400000D01*
X176450000Y7600000D02*
X179050000Y7600000D01*
X183000000Y5900000D02*
X185500000Y5900000D01*
X185500000Y5900000D02*
X185500000Y13100000D01*
X185500000Y13100000D02*
X183000000Y13100000D01*
X183000000Y13100000D02*
X183000000Y5900000D01*
X208300000Y33400000D02*
X205700000Y33400000D01*
X205700000Y33400000D02*
X205700000Y29600000D01*
X205700000Y29600000D02*
X208300000Y29600000D01*
X208300000Y29600000D02*
X208300000Y33400000D01*
X179050000Y29100000D02*
X179050000Y32900000D01*
X176450000Y29100000D02*
X179050000Y29100000D01*
X176450000Y32900000D02*
X176450000Y29100000D01*
X179050000Y32900000D02*
X176450000Y32900000D01*
X185500000Y35100000D02*
X183000000Y35100000D01*
X183000000Y35100000D02*
X183000000Y27900000D01*
X183000000Y27900000D02*
X185500000Y27900000D01*
X185500000Y27900000D02*
X185500000Y35100000D01*
X192750000Y18150000D02*
X195250000Y18150000D01*
X195250000Y18150000D02*
X195250000Y22850000D01*
X195250000Y22850000D02*
X192750000Y22850000D01*
X192750000Y22850000D02*
X192750000Y18150000D01*
X163500000Y22600000D02*
X163500000Y17900000D01*
X166000000Y22600000D02*
X163500000Y22600000D01*
X166000000Y17900000D02*
X166000000Y22600000D01*
X163500000Y17900000D02*
X166000000Y17900000D01*
X75750000Y22350000D02*
X73250000Y22350000D01*
X73250000Y22350000D02*
X73250000Y17650000D01*
X73250000Y17650000D02*
X75750000Y17650000D01*
X75750000Y17650000D02*
X75750000Y22350000D01*
X9000000Y22600000D02*
X6500000Y22600000D01*
X6500000Y22600000D02*
X6500000Y17900000D01*
X6500000Y17900000D02*
X9000000Y17900000D01*
X9000000Y17900000D02*
X9000000Y22600000D01*
X79700000Y28600000D02*
X82300000Y28600000D01*
X82300000Y28600000D02*
X82300000Y32400000D01*
X82300000Y32400000D02*
X79700000Y32400000D01*
X79700000Y32400000D02*
X79700000Y28600000D01*
X15550000Y32400000D02*
X12950000Y32400000D01*
X12950000Y32400000D02*
X12950000Y28600000D01*
X12950000Y28600000D02*
X15550000Y28600000D01*
X15550000Y28600000D02*
X15550000Y32400000D01*
D11*
X197702380Y8707143D02*
X197226190Y8373810D01*
X197702380Y8135715D02*
X196702380Y8135715D01*
X196702380Y8516667D01*
X196750000Y8611905D01*
X196797619Y8659524D01*
X196892857Y8707143D01*
X197035714Y8707143D01*
X197130952Y8659524D01*
X197178571Y8611905D01*
X197226190Y8516667D01*
X197226190Y8135715D01*
X196702380Y9040477D02*
X196702380Y9659524D01*
X197083333Y9326191D01*
X197083333Y9469048D01*
X197130952Y9564286D01*
X197178571Y9611905D01*
X197273809Y9659524D01*
X197511904Y9659524D01*
X197607142Y9611905D01*
X197654761Y9564286D01*
X197702380Y9469048D01*
X197702380Y9183334D01*
X197654761Y9088096D01*
X197607142Y9040477D01*
X196702380Y10278572D02*
X196702380Y10373810D01*
X196750000Y10469048D01*
X196797619Y10516667D01*
X196892857Y10564286D01*
X197083333Y10611905D01*
X197321428Y10611905D01*
X197511904Y10564286D01*
X197607142Y10516667D01*
X197654761Y10469048D01*
X197702380Y10373810D01*
X197702380Y10278572D01*
X197654761Y10183334D01*
X197607142Y10135715D01*
X197511904Y10088096D01*
X197321428Y10040477D01*
X197083333Y10040477D01*
X196892857Y10088096D01*
X196797619Y10135715D01*
X196750000Y10183334D01*
X196702380Y10278572D01*
X168452380Y8707143D02*
X167976190Y8373810D01*
X168452380Y8135715D02*
X167452380Y8135715D01*
X167452380Y8516667D01*
X167500000Y8611905D01*
X167547619Y8659524D01*
X167642857Y8707143D01*
X167785714Y8707143D01*
X167880952Y8659524D01*
X167928571Y8611905D01*
X167976190Y8516667D01*
X167976190Y8135715D01*
X167547619Y9088096D02*
X167500000Y9135715D01*
X167452380Y9230953D01*
X167452380Y9469048D01*
X167500000Y9564286D01*
X167547619Y9611905D01*
X167642857Y9659524D01*
X167738095Y9659524D01*
X167880952Y9611905D01*
X168452380Y9040477D01*
X168452380Y9659524D01*
X168452380Y10135715D02*
X168452380Y10326191D01*
X168404761Y10421429D01*
X168357142Y10469048D01*
X168214285Y10564286D01*
X168023809Y10611905D01*
X167642857Y10611905D01*
X167547619Y10564286D01*
X167500000Y10516667D01*
X167452380Y10421429D01*
X167452380Y10230953D01*
X167500000Y10135715D01*
X167547619Y10088096D01*
X167642857Y10040477D01*
X167880952Y10040477D01*
X167976190Y10088096D01*
X168023809Y10135715D01*
X168071428Y10230953D01*
X168071428Y10421429D01*
X168023809Y10516667D01*
X167976190Y10564286D01*
X167880952Y10611905D01*
X194452380Y8857143D02*
X193976190Y8523810D01*
X194452380Y8285715D02*
X193452380Y8285715D01*
X193452380Y8666667D01*
X193500000Y8761905D01*
X193547619Y8809524D01*
X193642857Y8857143D01*
X193785714Y8857143D01*
X193880952Y8809524D01*
X193928571Y8761905D01*
X193976190Y8666667D01*
X193976190Y8285715D01*
X193547619Y9238096D02*
X193500000Y9285715D01*
X193452380Y9380953D01*
X193452380Y9619048D01*
X193500000Y9714286D01*
X193547619Y9761905D01*
X193642857Y9809524D01*
X193738095Y9809524D01*
X193880952Y9761905D01*
X194452380Y9190477D01*
X194452380Y9809524D01*
X193880952Y10380953D02*
X193833333Y10285715D01*
X193785714Y10238096D01*
X193690476Y10190477D01*
X193642857Y10190477D01*
X193547619Y10238096D01*
X193500000Y10285715D01*
X193452380Y10380953D01*
X193452380Y10571429D01*
X193500000Y10666667D01*
X193547619Y10714286D01*
X193642857Y10761905D01*
X193690476Y10761905D01*
X193785714Y10714286D01*
X193833333Y10666667D01*
X193880952Y10571429D01*
X193880952Y10380953D01*
X193928571Y10285715D01*
X193976190Y10238096D01*
X194071428Y10190477D01*
X194261904Y10190477D01*
X194357142Y10238096D01*
X194404761Y10285715D01*
X194452380Y10380953D01*
X194452380Y10571429D01*
X194404761Y10666667D01*
X194357142Y10714286D01*
X194261904Y10761905D01*
X194071428Y10761905D01*
X193976190Y10714286D01*
X193928571Y10666667D01*
X193880952Y10571429D01*
X165202380Y8857143D02*
X164726190Y8523810D01*
X165202380Y8285715D02*
X164202380Y8285715D01*
X164202380Y8666667D01*
X164250000Y8761905D01*
X164297619Y8809524D01*
X164392857Y8857143D01*
X164535714Y8857143D01*
X164630952Y8809524D01*
X164678571Y8761905D01*
X164726190Y8666667D01*
X164726190Y8285715D01*
X164297619Y9238096D02*
X164250000Y9285715D01*
X164202380Y9380953D01*
X164202380Y9619048D01*
X164250000Y9714286D01*
X164297619Y9761905D01*
X164392857Y9809524D01*
X164488095Y9809524D01*
X164630952Y9761905D01*
X165202380Y9190477D01*
X165202380Y9809524D01*
X164202380Y10142858D02*
X164202380Y10809524D01*
X165202380Y10380953D01*
X197702380Y30857143D02*
X197226190Y30523810D01*
X197702380Y30285715D02*
X196702380Y30285715D01*
X196702380Y30666667D01*
X196750000Y30761905D01*
X196797619Y30809524D01*
X196892857Y30857143D01*
X197035714Y30857143D01*
X197130952Y30809524D01*
X197178571Y30761905D01*
X197226190Y30666667D01*
X197226190Y30285715D01*
X196797619Y31238096D02*
X196750000Y31285715D01*
X196702380Y31380953D01*
X196702380Y31619048D01*
X196750000Y31714286D01*
X196797619Y31761905D01*
X196892857Y31809524D01*
X196988095Y31809524D01*
X197130952Y31761905D01*
X197702380Y31190477D01*
X197702380Y31809524D01*
X196702380Y32666667D02*
X196702380Y32476191D01*
X196750000Y32380953D01*
X196797619Y32333334D01*
X196940476Y32238096D01*
X197130952Y32190477D01*
X197511904Y32190477D01*
X197607142Y32238096D01*
X197654761Y32285715D01*
X197702380Y32380953D01*
X197702380Y32571429D01*
X197654761Y32666667D01*
X197607142Y32714286D01*
X197511904Y32761905D01*
X197273809Y32761905D01*
X197178571Y32714286D01*
X197130952Y32666667D01*
X197083333Y32571429D01*
X197083333Y32380953D01*
X197130952Y32285715D01*
X197178571Y32238096D01*
X197273809Y32190477D01*
X168452380Y30357143D02*
X167976190Y30023810D01*
X168452380Y29785715D02*
X167452380Y29785715D01*
X167452380Y30166667D01*
X167500000Y30261905D01*
X167547619Y30309524D01*
X167642857Y30357143D01*
X167785714Y30357143D01*
X167880952Y30309524D01*
X167928571Y30261905D01*
X167976190Y30166667D01*
X167976190Y29785715D01*
X167547619Y30738096D02*
X167500000Y30785715D01*
X167452380Y30880953D01*
X167452380Y31119048D01*
X167500000Y31214286D01*
X167547619Y31261905D01*
X167642857Y31309524D01*
X167738095Y31309524D01*
X167880952Y31261905D01*
X168452380Y30690477D01*
X168452380Y31309524D01*
X167452380Y32214286D02*
X167452380Y31738096D01*
X167928571Y31690477D01*
X167880952Y31738096D01*
X167833333Y31833334D01*
X167833333Y32071429D01*
X167880952Y32166667D01*
X167928571Y32214286D01*
X168023809Y32261905D01*
X168261904Y32261905D01*
X168357142Y32214286D01*
X168404761Y32166667D01*
X168452380Y32071429D01*
X168452380Y31833334D01*
X168404761Y31738096D01*
X168357142Y31690477D01*
X194452380Y30707143D02*
X193976190Y30373810D01*
X194452380Y30135715D02*
X193452380Y30135715D01*
X193452380Y30516667D01*
X193500000Y30611905D01*
X193547619Y30659524D01*
X193642857Y30707143D01*
X193785714Y30707143D01*
X193880952Y30659524D01*
X193928571Y30611905D01*
X193976190Y30516667D01*
X193976190Y30135715D01*
X193547619Y31088096D02*
X193500000Y31135715D01*
X193452380Y31230953D01*
X193452380Y31469048D01*
X193500000Y31564286D01*
X193547619Y31611905D01*
X193642857Y31659524D01*
X193738095Y31659524D01*
X193880952Y31611905D01*
X194452380Y31040477D01*
X194452380Y31659524D01*
X193785714Y32516667D02*
X194452380Y32516667D01*
X193404761Y32278572D02*
X194119047Y32040477D01*
X194119047Y32659524D01*
X165202380Y30207143D02*
X164726190Y29873810D01*
X165202380Y29635715D02*
X164202380Y29635715D01*
X164202380Y30016667D01*
X164250000Y30111905D01*
X164297619Y30159524D01*
X164392857Y30207143D01*
X164535714Y30207143D01*
X164630952Y30159524D01*
X164678571Y30111905D01*
X164726190Y30016667D01*
X164726190Y29635715D01*
X164297619Y30588096D02*
X164250000Y30635715D01*
X164202380Y30730953D01*
X164202380Y30969048D01*
X164250000Y31064286D01*
X164297619Y31111905D01*
X164392857Y31159524D01*
X164488095Y31159524D01*
X164630952Y31111905D01*
X165202380Y30540477D01*
X165202380Y31159524D01*
X164202380Y31492858D02*
X164202380Y32111905D01*
X164583333Y31778572D01*
X164583333Y31921429D01*
X164630952Y32016667D01*
X164678571Y32064286D01*
X164773809Y32111905D01*
X165011904Y32111905D01*
X165107142Y32064286D01*
X165154761Y32016667D01*
X165202380Y31921429D01*
X165202380Y31635715D01*
X165154761Y31540477D01*
X165107142Y31492858D01*
X204202380Y8707143D02*
X203726190Y8373810D01*
X204202380Y8135715D02*
X203202380Y8135715D01*
X203202380Y8516667D01*
X203250000Y8611905D01*
X203297619Y8659524D01*
X203392857Y8707143D01*
X203535714Y8707143D01*
X203630952Y8659524D01*
X203678571Y8611905D01*
X203726190Y8516667D01*
X203726190Y8135715D01*
X203297619Y9088096D02*
X203250000Y9135715D01*
X203202380Y9230953D01*
X203202380Y9469048D01*
X203250000Y9564286D01*
X203297619Y9611905D01*
X203392857Y9659524D01*
X203488095Y9659524D01*
X203630952Y9611905D01*
X204202380Y9040477D01*
X204202380Y9659524D01*
X203297619Y10040477D02*
X203250000Y10088096D01*
X203202380Y10183334D01*
X203202380Y10421429D01*
X203250000Y10516667D01*
X203297619Y10564286D01*
X203392857Y10611905D01*
X203488095Y10611905D01*
X203630952Y10564286D01*
X204202380Y9992858D01*
X204202380Y10611905D01*
X174952380Y8707143D02*
X174476190Y8373810D01*
X174952380Y8135715D02*
X173952380Y8135715D01*
X173952380Y8516667D01*
X174000000Y8611905D01*
X174047619Y8659524D01*
X174142857Y8707143D01*
X174285714Y8707143D01*
X174380952Y8659524D01*
X174428571Y8611905D01*
X174476190Y8516667D01*
X174476190Y8135715D01*
X174047619Y9088096D02*
X174000000Y9135715D01*
X173952380Y9230953D01*
X173952380Y9469048D01*
X174000000Y9564286D01*
X174047619Y9611905D01*
X174142857Y9659524D01*
X174238095Y9659524D01*
X174380952Y9611905D01*
X174952380Y9040477D01*
X174952380Y9659524D01*
X174952380Y10611905D02*
X174952380Y10040477D01*
X174952380Y10326191D02*
X173952380Y10326191D01*
X174095238Y10230953D01*
X174190476Y10135715D01*
X174238095Y10040477D01*
X210702380Y8707143D02*
X210226190Y8373810D01*
X210702380Y8135715D02*
X209702380Y8135715D01*
X209702380Y8516667D01*
X209750000Y8611905D01*
X209797619Y8659524D01*
X209892857Y8707143D01*
X210035714Y8707143D01*
X210130952Y8659524D01*
X210178571Y8611905D01*
X210226190Y8516667D01*
X210226190Y8135715D01*
X209797619Y9088096D02*
X209750000Y9135715D01*
X209702380Y9230953D01*
X209702380Y9469048D01*
X209750000Y9564286D01*
X209797619Y9611905D01*
X209892857Y9659524D01*
X209988095Y9659524D01*
X210130952Y9611905D01*
X210702380Y9040477D01*
X210702380Y9659524D01*
X209702380Y10278572D02*
X209702380Y10373810D01*
X209750000Y10469048D01*
X209797619Y10516667D01*
X209892857Y10564286D01*
X210083333Y10611905D01*
X210321428Y10611905D01*
X210511904Y10564286D01*
X210607142Y10516667D01*
X210654761Y10469048D01*
X210702380Y10373810D01*
X210702380Y10278572D01*
X210654761Y10183334D01*
X210607142Y10135715D01*
X210511904Y10088096D01*
X210321428Y10040477D01*
X210083333Y10040477D01*
X209892857Y10088096D01*
X209797619Y10135715D01*
X209750000Y10183334D01*
X209702380Y10278572D01*
X200952380Y8707143D02*
X200476190Y8373810D01*
X200952380Y8135715D02*
X199952380Y8135715D01*
X199952380Y8516667D01*
X200000000Y8611905D01*
X200047619Y8659524D01*
X200142857Y8707143D01*
X200285714Y8707143D01*
X200380952Y8659524D01*
X200428571Y8611905D01*
X200476190Y8516667D01*
X200476190Y8135715D01*
X200952380Y9659524D02*
X200952380Y9088096D01*
X200952380Y9373810D02*
X199952380Y9373810D01*
X200095238Y9278572D01*
X200190476Y9183334D01*
X200238095Y9088096D01*
X200952380Y10135715D02*
X200952380Y10326191D01*
X200904761Y10421429D01*
X200857142Y10469048D01*
X200714285Y10564286D01*
X200523809Y10611905D01*
X200142857Y10611905D01*
X200047619Y10564286D01*
X200000000Y10516667D01*
X199952380Y10421429D01*
X199952380Y10230953D01*
X200000000Y10135715D01*
X200047619Y10088096D01*
X200142857Y10040477D01*
X200380952Y10040477D01*
X200476190Y10088096D01*
X200523809Y10135715D01*
X200571428Y10230953D01*
X200571428Y10421429D01*
X200523809Y10516667D01*
X200476190Y10564286D01*
X200380952Y10611905D01*
X181452380Y8707143D02*
X180976190Y8373810D01*
X181452380Y8135715D02*
X180452380Y8135715D01*
X180452380Y8516667D01*
X180500000Y8611905D01*
X180547619Y8659524D01*
X180642857Y8707143D01*
X180785714Y8707143D01*
X180880952Y8659524D01*
X180928571Y8611905D01*
X180976190Y8516667D01*
X180976190Y8135715D01*
X181452380Y9659524D02*
X181452380Y9088096D01*
X181452380Y9373810D02*
X180452380Y9373810D01*
X180595238Y9278572D01*
X180690476Y9183334D01*
X180738095Y9088096D01*
X180880952Y10230953D02*
X180833333Y10135715D01*
X180785714Y10088096D01*
X180690476Y10040477D01*
X180642857Y10040477D01*
X180547619Y10088096D01*
X180500000Y10135715D01*
X180452380Y10230953D01*
X180452380Y10421429D01*
X180500000Y10516667D01*
X180547619Y10564286D01*
X180642857Y10611905D01*
X180690476Y10611905D01*
X180785714Y10564286D01*
X180833333Y10516667D01*
X180880952Y10421429D01*
X180880952Y10230953D01*
X180928571Y10135715D01*
X180976190Y10088096D01*
X181071428Y10040477D01*
X181261904Y10040477D01*
X181357142Y10088096D01*
X181404761Y10135715D01*
X181452380Y10230953D01*
X181452380Y10421429D01*
X181404761Y10516667D01*
X181357142Y10564286D01*
X181261904Y10611905D01*
X181071428Y10611905D01*
X180976190Y10564286D01*
X180928571Y10516667D01*
X180880952Y10421429D01*
X171702380Y8707143D02*
X171226190Y8373810D01*
X171702380Y8135715D02*
X170702380Y8135715D01*
X170702380Y8516667D01*
X170750000Y8611905D01*
X170797619Y8659524D01*
X170892857Y8707143D01*
X171035714Y8707143D01*
X171130952Y8659524D01*
X171178571Y8611905D01*
X171226190Y8516667D01*
X171226190Y8135715D01*
X171702380Y9659524D02*
X171702380Y9088096D01*
X171702380Y9373810D02*
X170702380Y9373810D01*
X170845238Y9278572D01*
X170940476Y9183334D01*
X170988095Y9088096D01*
X170702380Y9992858D02*
X170702380Y10659524D01*
X171702380Y10230953D01*
X187952380Y8707143D02*
X187476190Y8373810D01*
X187952380Y8135715D02*
X186952380Y8135715D01*
X186952380Y8516667D01*
X187000000Y8611905D01*
X187047619Y8659524D01*
X187142857Y8707143D01*
X187285714Y8707143D01*
X187380952Y8659524D01*
X187428571Y8611905D01*
X187476190Y8516667D01*
X187476190Y8135715D01*
X187952380Y9659524D02*
X187952380Y9088096D01*
X187952380Y9373810D02*
X186952380Y9373810D01*
X187095238Y9278572D01*
X187190476Y9183334D01*
X187238095Y9088096D01*
X186952380Y10516667D02*
X186952380Y10326191D01*
X187000000Y10230953D01*
X187047619Y10183334D01*
X187190476Y10088096D01*
X187380952Y10040477D01*
X187761904Y10040477D01*
X187857142Y10088096D01*
X187904761Y10135715D01*
X187952380Y10230953D01*
X187952380Y10421429D01*
X187904761Y10516667D01*
X187857142Y10564286D01*
X187761904Y10611905D01*
X187523809Y10611905D01*
X187428571Y10564286D01*
X187380952Y10516667D01*
X187333333Y10421429D01*
X187333333Y10230953D01*
X187380952Y10135715D01*
X187428571Y10088096D01*
X187523809Y10040477D01*
X191202380Y8707143D02*
X190726190Y8373810D01*
X191202380Y8135715D02*
X190202380Y8135715D01*
X190202380Y8516667D01*
X190250000Y8611905D01*
X190297619Y8659524D01*
X190392857Y8707143D01*
X190535714Y8707143D01*
X190630952Y8659524D01*
X190678571Y8611905D01*
X190726190Y8516667D01*
X190726190Y8135715D01*
X191202380Y9659524D02*
X191202380Y9088096D01*
X191202380Y9373810D02*
X190202380Y9373810D01*
X190345238Y9278572D01*
X190440476Y9183334D01*
X190488095Y9088096D01*
X190202380Y10564286D02*
X190202380Y10088096D01*
X190678571Y10040477D01*
X190630952Y10088096D01*
X190583333Y10183334D01*
X190583333Y10421429D01*
X190630952Y10516667D01*
X190678571Y10564286D01*
X190773809Y10611905D01*
X191011904Y10611905D01*
X191107142Y10564286D01*
X191154761Y10516667D01*
X191202380Y10421429D01*
X191202380Y10183334D01*
X191154761Y10088096D01*
X191107142Y10040477D01*
X204202380Y30857143D02*
X203726190Y30523810D01*
X204202380Y30285715D02*
X203202380Y30285715D01*
X203202380Y30666667D01*
X203250000Y30761905D01*
X203297619Y30809524D01*
X203392857Y30857143D01*
X203535714Y30857143D01*
X203630952Y30809524D01*
X203678571Y30761905D01*
X203726190Y30666667D01*
X203726190Y30285715D01*
X204202380Y31809524D02*
X204202380Y31238096D01*
X204202380Y31523810D02*
X203202380Y31523810D01*
X203345238Y31428572D01*
X203440476Y31333334D01*
X203488095Y31238096D01*
X203535714Y32666667D02*
X204202380Y32666667D01*
X203154761Y32428572D02*
X203869047Y32190477D01*
X203869047Y32809524D01*
X174952380Y30357143D02*
X174476190Y30023810D01*
X174952380Y29785715D02*
X173952380Y29785715D01*
X173952380Y30166667D01*
X174000000Y30261905D01*
X174047619Y30309524D01*
X174142857Y30357143D01*
X174285714Y30357143D01*
X174380952Y30309524D01*
X174428571Y30261905D01*
X174476190Y30166667D01*
X174476190Y29785715D01*
X174952380Y31309524D02*
X174952380Y30738096D01*
X174952380Y31023810D02*
X173952380Y31023810D01*
X174095238Y30928572D01*
X174190476Y30833334D01*
X174238095Y30738096D01*
X173952380Y31642858D02*
X173952380Y32261905D01*
X174333333Y31928572D01*
X174333333Y32071429D01*
X174380952Y32166667D01*
X174428571Y32214286D01*
X174523809Y32261905D01*
X174761904Y32261905D01*
X174857142Y32214286D01*
X174904761Y32166667D01*
X174952380Y32071429D01*
X174952380Y31785715D01*
X174904761Y31690477D01*
X174857142Y31642858D01*
X210702380Y30857143D02*
X210226190Y30523810D01*
X210702380Y30285715D02*
X209702380Y30285715D01*
X209702380Y30666667D01*
X209750000Y30761905D01*
X209797619Y30809524D01*
X209892857Y30857143D01*
X210035714Y30857143D01*
X210130952Y30809524D01*
X210178571Y30761905D01*
X210226190Y30666667D01*
X210226190Y30285715D01*
X210702380Y31809524D02*
X210702380Y31238096D01*
X210702380Y31523810D02*
X209702380Y31523810D01*
X209845238Y31428572D01*
X209940476Y31333334D01*
X209988095Y31238096D01*
X209797619Y32190477D02*
X209750000Y32238096D01*
X209702380Y32333334D01*
X209702380Y32571429D01*
X209750000Y32666667D01*
X209797619Y32714286D01*
X209892857Y32761905D01*
X209988095Y32761905D01*
X210130952Y32714286D01*
X210702380Y32142858D01*
X210702380Y32761905D01*
X200952380Y30857143D02*
X200476190Y30523810D01*
X200952380Y30285715D02*
X199952380Y30285715D01*
X199952380Y30666667D01*
X200000000Y30761905D01*
X200047619Y30809524D01*
X200142857Y30857143D01*
X200285714Y30857143D01*
X200380952Y30809524D01*
X200428571Y30761905D01*
X200476190Y30666667D01*
X200476190Y30285715D01*
X200952380Y31809524D02*
X200952380Y31238096D01*
X200952380Y31523810D02*
X199952380Y31523810D01*
X200095238Y31428572D01*
X200190476Y31333334D01*
X200238095Y31238096D01*
X200952380Y32761905D02*
X200952380Y32190477D01*
X200952380Y32476191D02*
X199952380Y32476191D01*
X200095238Y32380953D01*
X200190476Y32285715D01*
X200238095Y32190477D01*
X181452380Y30357143D02*
X180976190Y30023810D01*
X181452380Y29785715D02*
X180452380Y29785715D01*
X180452380Y30166667D01*
X180500000Y30261905D01*
X180547619Y30309524D01*
X180642857Y30357143D01*
X180785714Y30357143D01*
X180880952Y30309524D01*
X180928571Y30261905D01*
X180976190Y30166667D01*
X180976190Y29785715D01*
X181452380Y31309524D02*
X181452380Y30738096D01*
X181452380Y31023810D02*
X180452380Y31023810D01*
X180595238Y30928572D01*
X180690476Y30833334D01*
X180738095Y30738096D01*
X180452380Y31928572D02*
X180452380Y32023810D01*
X180500000Y32119048D01*
X180547619Y32166667D01*
X180642857Y32214286D01*
X180833333Y32261905D01*
X181071428Y32261905D01*
X181261904Y32214286D01*
X181357142Y32166667D01*
X181404761Y32119048D01*
X181452380Y32023810D01*
X181452380Y31928572D01*
X181404761Y31833334D01*
X181357142Y31785715D01*
X181261904Y31738096D01*
X181071428Y31690477D01*
X180833333Y31690477D01*
X180642857Y31738096D01*
X180547619Y31785715D01*
X180500000Y31833334D01*
X180452380Y31928572D01*
X171702380Y30833334D02*
X171226190Y30500000D01*
X171702380Y30261905D02*
X170702380Y30261905D01*
X170702380Y30642858D01*
X170750000Y30738096D01*
X170797619Y30785715D01*
X170892857Y30833334D01*
X171035714Y30833334D01*
X171130952Y30785715D01*
X171178571Y30738096D01*
X171226190Y30642858D01*
X171226190Y30261905D01*
X171702380Y31309524D02*
X171702380Y31500000D01*
X171654761Y31595239D01*
X171607142Y31642858D01*
X171464285Y31738096D01*
X171273809Y31785715D01*
X170892857Y31785715D01*
X170797619Y31738096D01*
X170750000Y31690477D01*
X170702380Y31595239D01*
X170702380Y31404762D01*
X170750000Y31309524D01*
X170797619Y31261905D01*
X170892857Y31214286D01*
X171130952Y31214286D01*
X171226190Y31261905D01*
X171273809Y31309524D01*
X171321428Y31404762D01*
X171321428Y31595239D01*
X171273809Y31690477D01*
X171226190Y31738096D01*
X171130952Y31785715D01*
X187952380Y31333334D02*
X187476190Y31000000D01*
X187952380Y30761905D02*
X186952380Y30761905D01*
X186952380Y31142858D01*
X187000000Y31238096D01*
X187047619Y31285715D01*
X187142857Y31333334D01*
X187285714Y31333334D01*
X187380952Y31285715D01*
X187428571Y31238096D01*
X187476190Y31142858D01*
X187476190Y30761905D01*
X187380952Y31904762D02*
X187333333Y31809524D01*
X187285714Y31761905D01*
X187190476Y31714286D01*
X187142857Y31714286D01*
X187047619Y31761905D01*
X187000000Y31809524D01*
X186952380Y31904762D01*
X186952380Y32095239D01*
X187000000Y32190477D01*
X187047619Y32238096D01*
X187142857Y32285715D01*
X187190476Y32285715D01*
X187285714Y32238096D01*
X187333333Y32190477D01*
X187380952Y32095239D01*
X187380952Y31904762D01*
X187428571Y31809524D01*
X187476190Y31761905D01*
X187571428Y31714286D01*
X187761904Y31714286D01*
X187857142Y31761905D01*
X187904761Y31809524D01*
X187952380Y31904762D01*
X187952380Y32095239D01*
X187904761Y32190477D01*
X187857142Y32238096D01*
X187761904Y32285715D01*
X187571428Y32285715D01*
X187476190Y32238096D01*
X187428571Y32190477D01*
X187380952Y32095239D01*
X191202380Y31333334D02*
X190726190Y31000000D01*
X191202380Y30761905D02*
X190202380Y30761905D01*
X190202380Y31142858D01*
X190250000Y31238096D01*
X190297619Y31285715D01*
X190392857Y31333334D01*
X190535714Y31333334D01*
X190630952Y31285715D01*
X190678571Y31238096D01*
X190726190Y31142858D01*
X190726190Y30761905D01*
X190202380Y31666667D02*
X190202380Y32333334D01*
X191202380Y31904762D01*
X85702380Y9583334D02*
X85226190Y9250000D01*
X85702380Y9011905D02*
X84702380Y9011905D01*
X84702380Y9392858D01*
X84750000Y9488096D01*
X84797619Y9535715D01*
X84892857Y9583334D01*
X85035714Y9583334D01*
X85130952Y9535715D01*
X85178571Y9488096D01*
X85226190Y9392858D01*
X85226190Y9011905D01*
X84702380Y10440477D02*
X84702380Y10250000D01*
X84750000Y10154762D01*
X84797619Y10107143D01*
X84940476Y10011905D01*
X85130952Y9964286D01*
X85511904Y9964286D01*
X85607142Y10011905D01*
X85654761Y10059524D01*
X85702380Y10154762D01*
X85702380Y10345239D01*
X85654761Y10440477D01*
X85607142Y10488096D01*
X85511904Y10535715D01*
X85273809Y10535715D01*
X85178571Y10488096D01*
X85130952Y10440477D01*
X85083333Y10345239D01*
X85083333Y10154762D01*
X85130952Y10059524D01*
X85178571Y10011905D01*
X85273809Y9964286D01*
X18952380Y9583334D02*
X18476190Y9250000D01*
X18952380Y9011905D02*
X17952380Y9011905D01*
X17952380Y9392858D01*
X18000000Y9488096D01*
X18047619Y9535715D01*
X18142857Y9583334D01*
X18285714Y9583334D01*
X18380952Y9535715D01*
X18428571Y9488096D01*
X18476190Y9392858D01*
X18476190Y9011905D01*
X17952380Y10488096D02*
X17952380Y10011905D01*
X18428571Y9964286D01*
X18380952Y10011905D01*
X18333333Y10107143D01*
X18333333Y10345239D01*
X18380952Y10440477D01*
X18428571Y10488096D01*
X18523809Y10535715D01*
X18761904Y10535715D01*
X18857142Y10488096D01*
X18904761Y10440477D01*
X18952380Y10345239D01*
X18952380Y10107143D01*
X18904761Y10011905D01*
X18857142Y9964286D01*
X84702380Y30333334D02*
X84226190Y30000000D01*
X84702380Y29761905D02*
X83702380Y29761905D01*
X83702380Y30142858D01*
X83750000Y30238096D01*
X83797619Y30285715D01*
X83892857Y30333334D01*
X84035714Y30333334D01*
X84130952Y30285715D01*
X84178571Y30238096D01*
X84226190Y30142858D01*
X84226190Y29761905D01*
X84035714Y31190477D02*
X84702380Y31190477D01*
X83654761Y30952381D02*
X84369047Y30714286D01*
X84369047Y31333334D01*
X78202380Y30333334D02*
X77726190Y30000000D01*
X78202380Y29761905D02*
X77202380Y29761905D01*
X77202380Y30142858D01*
X77250000Y30238096D01*
X77297619Y30285715D01*
X77392857Y30333334D01*
X77535714Y30333334D01*
X77630952Y30285715D01*
X77678571Y30238096D01*
X77726190Y30142858D01*
X77726190Y29761905D01*
X77202380Y30666667D02*
X77202380Y31285715D01*
X77583333Y30952381D01*
X77583333Y31095239D01*
X77630952Y31190477D01*
X77678571Y31238096D01*
X77773809Y31285715D01*
X78011904Y31285715D01*
X78107142Y31238096D01*
X78154761Y31190477D01*
X78202380Y31095239D01*
X78202380Y30809524D01*
X78154761Y30714286D01*
X78107142Y30666667D01*
X17952380Y30333334D02*
X17476190Y30000000D01*
X17952380Y29761905D02*
X16952380Y29761905D01*
X16952380Y30142858D01*
X17000000Y30238096D01*
X17047619Y30285715D01*
X17142857Y30333334D01*
X17285714Y30333334D01*
X17380952Y30285715D01*
X17428571Y30238096D01*
X17476190Y30142858D01*
X17476190Y29761905D01*
X17047619Y30714286D02*
X17000000Y30761905D01*
X16952380Y30857143D01*
X16952380Y31095239D01*
X17000000Y31190477D01*
X17047619Y31238096D01*
X17142857Y31285715D01*
X17238095Y31285715D01*
X17380952Y31238096D01*
X17952380Y30666667D01*
X17952380Y31285715D01*
X11452380Y30333334D02*
X10976190Y30000000D01*
X11452380Y29761905D02*
X10452380Y29761905D01*
X10452380Y30142858D01*
X10500000Y30238096D01*
X10547619Y30285715D01*
X10642857Y30333334D01*
X10785714Y30333334D01*
X10880952Y30285715D01*
X10928571Y30238096D01*
X10976190Y30142858D01*
X10976190Y29761905D01*
X11452380Y31285715D02*
X11452380Y30714286D01*
X11452380Y31000000D02*
X10452380Y31000000D01*
X10595238Y30904762D01*
X10690476Y30809524D01*
X10738095Y30714286D01*
X241690476Y49147620D02*
X241690476Y48433334D01*
X241642857Y48290477D01*
X241547619Y48195239D01*
X241404761Y48147620D01*
X241309523Y48147620D01*
X242690476Y48147620D02*
X242119047Y48147620D01*
X242404761Y48147620D02*
X242404761Y49147620D01*
X242309523Y49004762D01*
X242214285Y48909524D01*
X242119047Y48861905D01*
X243547619Y49147620D02*
X243357142Y49147620D01*
X243261904Y49100000D01*
X243214285Y49052381D01*
X243119047Y48909524D01*
X243071428Y48719048D01*
X243071428Y48338096D01*
X243119047Y48242858D01*
X243166666Y48195239D01*
X243261904Y48147620D01*
X243452380Y48147620D01*
X243547619Y48195239D01*
X243595238Y48242858D01*
X243642857Y48338096D01*
X243642857Y48576191D01*
X243595238Y48671429D01*
X243547619Y48719048D01*
X243452380Y48766667D01*
X243261904Y48766667D01*
X243166666Y48719048D01*
X243119047Y48671429D01*
X243071428Y48576191D01*
X221190476Y49147620D02*
X221190476Y48433334D01*
X221142857Y48290477D01*
X221047619Y48195239D01*
X220904761Y48147620D01*
X220809523Y48147620D01*
X222190476Y48147620D02*
X221619047Y48147620D01*
X221904761Y48147620D02*
X221904761Y49147620D01*
X221809523Y49004762D01*
X221714285Y48909524D01*
X221619047Y48861905D01*
X223095238Y49147620D02*
X222619047Y49147620D01*
X222571428Y48671429D01*
X222619047Y48719048D01*
X222714285Y48766667D01*
X222952380Y48766667D01*
X223047619Y48719048D01*
X223095238Y48671429D01*
X223142857Y48576191D01*
X223142857Y48338096D01*
X223095238Y48242858D01*
X223047619Y48195239D01*
X222952380Y48147620D01*
X222714285Y48147620D01*
X222619047Y48195239D01*
X222571428Y48242858D01*
X264690476Y51297620D02*
X264690476Y50583334D01*
X264642857Y50440477D01*
X264547619Y50345239D01*
X264404761Y50297620D01*
X264309523Y50297620D01*
X265690476Y50297620D02*
X265119047Y50297620D01*
X265404761Y50297620D02*
X265404761Y51297620D01*
X265309523Y51154762D01*
X265214285Y51059524D01*
X265119047Y51011905D01*
X266547619Y50964286D02*
X266547619Y50297620D01*
X266309523Y51345239D02*
X266071428Y50630953D01*
X266690476Y50630953D01*
X197940476Y51297620D02*
X197940476Y50583334D01*
X197892857Y50440477D01*
X197797619Y50345239D01*
X197654761Y50297620D01*
X197559523Y50297620D01*
X198940476Y50297620D02*
X198369047Y50297620D01*
X198654761Y50297620D02*
X198654761Y51297620D01*
X198559523Y51154762D01*
X198464285Y51059524D01*
X198369047Y51011905D01*
X199273809Y51297620D02*
X199892857Y51297620D01*
X199559523Y50916667D01*
X199702380Y50916667D01*
X199797619Y50869048D01*
X199845238Y50821429D01*
X199892857Y50726191D01*
X199892857Y50488096D01*
X199845238Y50392858D01*
X199797619Y50345239D01*
X199702380Y50297620D01*
X199416666Y50297620D01*
X199321428Y50345239D01*
X199273809Y50392858D01*
X149190476Y49147620D02*
X149190476Y48433334D01*
X149142857Y48290477D01*
X149047619Y48195239D01*
X148904761Y48147620D01*
X148809523Y48147620D01*
X150190476Y48147620D02*
X149619047Y48147620D01*
X149904761Y48147620D02*
X149904761Y49147620D01*
X149809523Y49004762D01*
X149714285Y48909524D01*
X149619047Y48861905D01*
X150571428Y49052381D02*
X150619047Y49100000D01*
X150714285Y49147620D01*
X150952380Y49147620D01*
X151047619Y49100000D01*
X151095238Y49052381D01*
X151142857Y48957143D01*
X151142857Y48861905D01*
X151095238Y48719048D01*
X150523809Y48147620D01*
X151142857Y48147620D01*
X128690476Y49147620D02*
X128690476Y48433334D01*
X128642857Y48290477D01*
X128547619Y48195239D01*
X128404761Y48147620D01*
X128309523Y48147620D01*
X129690476Y48147620D02*
X129119047Y48147620D01*
X129404761Y48147620D02*
X129404761Y49147620D01*
X129309523Y49004762D01*
X129214285Y48909524D01*
X129119047Y48861905D01*
X130642857Y48147620D02*
X130071428Y48147620D01*
X130357142Y48147620D02*
X130357142Y49147620D01*
X130261904Y49004762D01*
X130166666Y48909524D01*
X130071428Y48861905D01*
X172190476Y51297620D02*
X172190476Y50583334D01*
X172142857Y50440477D01*
X172047619Y50345239D01*
X171904761Y50297620D01*
X171809523Y50297620D01*
X173190476Y50297620D02*
X172619047Y50297620D01*
X172904761Y50297620D02*
X172904761Y51297620D01*
X172809523Y51154762D01*
X172714285Y51059524D01*
X172619047Y51011905D01*
X173809523Y51297620D02*
X173904761Y51297620D01*
X174000000Y51250000D01*
X174047619Y51202381D01*
X174095238Y51107143D01*
X174142857Y50916667D01*
X174142857Y50678572D01*
X174095238Y50488096D01*
X174047619Y50392858D01*
X174000000Y50345239D01*
X173904761Y50297620D01*
X173809523Y50297620D01*
X173714285Y50345239D01*
X173666666Y50392858D01*
X173619047Y50488096D01*
X173571428Y50678572D01*
X173571428Y50916667D01*
X173619047Y51107143D01*
X173666666Y51202381D01*
X173714285Y51250000D01*
X173809523Y51297620D01*
X105916666Y51297620D02*
X105916666Y50583334D01*
X105869047Y50440477D01*
X105773809Y50345239D01*
X105630952Y50297620D01*
X105535714Y50297620D01*
X106440476Y50297620D02*
X106630952Y50297620D01*
X106726190Y50345239D01*
X106773809Y50392858D01*
X106869047Y50535715D01*
X106916666Y50726191D01*
X106916666Y51107143D01*
X106869047Y51202381D01*
X106821428Y51250000D01*
X106726190Y51297620D01*
X106535714Y51297620D01*
X106440476Y51250000D01*
X106392857Y51202381D01*
X106345238Y51107143D01*
X106345238Y50869048D01*
X106392857Y50773810D01*
X106440476Y50726191D01*
X106535714Y50678572D01*
X106726190Y50678572D01*
X106821428Y50726191D01*
X106869047Y50773810D01*
X106916666Y50869048D01*
X158166666Y13547620D02*
X158166666Y12833334D01*
X158119047Y12690477D01*
X158023809Y12595239D01*
X157880952Y12547620D01*
X157785714Y12547620D01*
X158785714Y13119048D02*
X158690476Y13166667D01*
X158642857Y13214286D01*
X158595238Y13309524D01*
X158595238Y13357143D01*
X158642857Y13452381D01*
X158690476Y13500000D01*
X158785714Y13547620D01*
X158976190Y13547620D01*
X159071428Y13500000D01*
X159119047Y13452381D01*
X159166666Y13357143D01*
X159166666Y13309524D01*
X159119047Y13214286D01*
X159071428Y13166667D01*
X158976190Y13119048D01*
X158785714Y13119048D01*
X158690476Y13071429D01*
X158642857Y13023810D01*
X158595238Y12928572D01*
X158595238Y12738096D01*
X158642857Y12642858D01*
X158690476Y12595239D01*
X158785714Y12547620D01*
X158976190Y12547620D01*
X159071428Y12595239D01*
X159119047Y12642858D01*
X159166666Y12738096D01*
X159166666Y12928572D01*
X159119047Y13023810D01*
X159071428Y13071429D01*
X158976190Y13119048D01*
X141666666Y13547620D02*
X141666666Y12833334D01*
X141619047Y12690477D01*
X141523809Y12595239D01*
X141380952Y12547620D01*
X141285714Y12547620D01*
X142047619Y13547620D02*
X142714285Y13547620D01*
X142285714Y12547620D01*
X99166666Y13547620D02*
X99166666Y12833334D01*
X99119047Y12690477D01*
X99023809Y12595239D01*
X98880952Y12547620D01*
X98785714Y12547620D01*
X100071428Y13547620D02*
X99880952Y13547620D01*
X99785714Y13500000D01*
X99738095Y13452381D01*
X99642857Y13309524D01*
X99595238Y13119048D01*
X99595238Y12738096D01*
X99642857Y12642858D01*
X99690476Y12595239D01*
X99785714Y12547620D01*
X99976190Y12547620D01*
X100071428Y12595239D01*
X100119047Y12642858D01*
X100166666Y12738096D01*
X100166666Y12976191D01*
X100119047Y13071429D01*
X100071428Y13119048D01*
X99976190Y13166667D01*
X99785714Y13166667D01*
X99690476Y13119048D01*
X99642857Y13071429D01*
X99595238Y12976191D01*
X32416666Y13547620D02*
X32416666Y12833334D01*
X32369047Y12690477D01*
X32273809Y12595239D01*
X32130952Y12547620D01*
X32035714Y12547620D01*
X33369047Y13547620D02*
X32892857Y13547620D01*
X32845238Y13071429D01*
X32892857Y13119048D01*
X32988095Y13166667D01*
X33226190Y13166667D01*
X33321428Y13119048D01*
X33369047Y13071429D01*
X33416666Y12976191D01*
X33416666Y12738096D01*
X33369047Y12642858D01*
X33321428Y12595239D01*
X33226190Y12547620D01*
X32988095Y12547620D01*
X32892857Y12595239D01*
X32845238Y12642858D01*
X57416666Y49147620D02*
X57416666Y48433334D01*
X57369047Y48290477D01*
X57273809Y48195239D01*
X57130952Y48147620D01*
X57035714Y48147620D01*
X58321428Y48814286D02*
X58321428Y48147620D01*
X58083333Y49195239D02*
X57845238Y48480953D01*
X58464285Y48480953D01*
X36916666Y49147620D02*
X36916666Y48433334D01*
X36869047Y48290477D01*
X36773809Y48195239D01*
X36630952Y48147620D01*
X36535714Y48147620D01*
X37297619Y49147620D02*
X37916666Y49147620D01*
X37583333Y48766667D01*
X37726190Y48766667D01*
X37821428Y48719048D01*
X37869047Y48671429D01*
X37916666Y48576191D01*
X37916666Y48338096D01*
X37869047Y48242858D01*
X37821428Y48195239D01*
X37726190Y48147620D01*
X37440476Y48147620D01*
X37345238Y48195239D01*
X37297619Y48242858D01*
X80416666Y50797620D02*
X80416666Y50083334D01*
X80369047Y49940477D01*
X80273809Y49845239D01*
X80130952Y49797620D01*
X80035714Y49797620D01*
X80845238Y50702381D02*
X80892857Y50750000D01*
X80988095Y50797620D01*
X81226190Y50797620D01*
X81321428Y50750000D01*
X81369047Y50702381D01*
X81416666Y50607143D01*
X81416666Y50511905D01*
X81369047Y50369048D01*
X80797619Y49797620D01*
X81416666Y49797620D01*
X13916666Y50797620D02*
X13916666Y50083334D01*
X13869047Y49940477D01*
X13773809Y49845239D01*
X13630952Y49797620D01*
X13535714Y49797620D01*
X14916666Y49797620D02*
X14345238Y49797620D01*
X14630952Y49797620D02*
X14630952Y50797620D01*
X14535714Y50654762D01*
X14440476Y50559524D01*
X14345238Y50511905D01*
X35357142Y21607143D02*
X35404761Y21559524D01*
X35452380Y21416667D01*
X35452380Y21321429D01*
X35404761Y21178572D01*
X35309523Y21083334D01*
X35214285Y21035715D01*
X35023809Y20988096D01*
X34880952Y20988096D01*
X34690476Y21035715D01*
X34595238Y21083334D01*
X34500000Y21178572D01*
X34452380Y21321429D01*
X34452380Y21416667D01*
X34500000Y21559524D01*
X34547619Y21607143D01*
X35452380Y22559524D02*
X35452380Y21988096D01*
X35452380Y22273810D02*
X34452380Y22273810D01*
X34595238Y22178572D01*
X34690476Y22083334D01*
X34738095Y21988096D01*
X34785714Y23416667D02*
X35452380Y23416667D01*
X34404761Y23178572D02*
X35119047Y22940477D01*
X35119047Y23559524D01*
X28357142Y17607143D02*
X28404761Y17559524D01*
X28452380Y17416667D01*
X28452380Y17321429D01*
X28404761Y17178572D01*
X28309523Y17083334D01*
X28214285Y17035715D01*
X28023809Y16988096D01*
X27880952Y16988096D01*
X27690476Y17035715D01*
X27595238Y17083334D01*
X27500000Y17178572D01*
X27452380Y17321429D01*
X27452380Y17416667D01*
X27500000Y17559524D01*
X27547619Y17607143D01*
X28452380Y18559524D02*
X28452380Y17988096D01*
X28452380Y18273810D02*
X27452380Y18273810D01*
X27595238Y18178572D01*
X27690476Y18083334D01*
X27738095Y17988096D01*
X27452380Y18892858D02*
X27452380Y19511905D01*
X27833333Y19178572D01*
X27833333Y19321429D01*
X27880952Y19416667D01*
X27928571Y19464286D01*
X28023809Y19511905D01*
X28261904Y19511905D01*
X28357142Y19464286D01*
X28404761Y19416667D01*
X28452380Y19321429D01*
X28452380Y19035715D01*
X28404761Y18940477D01*
X28357142Y18892858D01*
X200392380Y19678096D02*
X201201904Y19678096D01*
X201297142Y19725715D01*
X201344761Y19773334D01*
X201392380Y19868572D01*
X201392380Y20059048D01*
X201344761Y20154286D01*
X201297142Y20201905D01*
X201201904Y20249524D01*
X200392380Y20249524D01*
X200725714Y21154286D02*
X201392380Y21154286D01*
X200344761Y20916191D02*
X201059047Y20678096D01*
X201059047Y21297143D01*
X171142380Y19428096D02*
X171951904Y19428096D01*
X172047142Y19475715D01*
X172094761Y19523334D01*
X172142380Y19618572D01*
X172142380Y19809048D01*
X172094761Y19904286D01*
X172047142Y19951905D01*
X171951904Y19999524D01*
X171142380Y19999524D01*
X171142380Y20380477D02*
X171142380Y20999524D01*
X171523333Y20666191D01*
X171523333Y20809048D01*
X171570952Y20904286D01*
X171618571Y20951905D01*
X171713809Y20999524D01*
X171951904Y20999524D01*
X172047142Y20951905D01*
X172094761Y20904286D01*
X172142380Y20809048D01*
X172142380Y20523334D01*
X172094761Y20428096D01*
X172047142Y20380477D01*
X80892380Y19428096D02*
X81701904Y19428096D01*
X81797142Y19475715D01*
X81844761Y19523334D01*
X81892380Y19618572D01*
X81892380Y19809048D01*
X81844761Y19904286D01*
X81797142Y19951905D01*
X81701904Y19999524D01*
X80892380Y19999524D01*
X80987619Y20428096D02*
X80940000Y20475715D01*
X80892380Y20570953D01*
X80892380Y20809048D01*
X80940000Y20904286D01*
X80987619Y20951905D01*
X81082857Y20999524D01*
X81178095Y20999524D01*
X81320952Y20951905D01*
X81892380Y20380477D01*
X81892380Y20999524D01*
X14142380Y19428096D02*
X14951904Y19428096D01*
X15047142Y19475715D01*
X15094761Y19523334D01*
X15142380Y19618572D01*
X15142380Y19809048D01*
X15094761Y19904286D01*
X15047142Y19951905D01*
X14951904Y19999524D01*
X14142380Y19999524D01*
X15142380Y20999524D02*
X15142380Y20428096D01*
X15142380Y20713810D02*
X14142380Y20713810D01*
X14285238Y20618572D01*
X14380476Y20523334D01*
X14428095Y20428096D01*
X58202380Y19440477D02*
X58916666Y19440477D01*
X59059523Y19392858D01*
X59154761Y19297620D01*
X59202380Y19154762D01*
X59202380Y19059524D01*
X59202380Y20440477D02*
X59202380Y19869048D01*
X59202380Y20154762D02*
X58202380Y20154762D01*
X58345238Y20059524D01*
X58440476Y19964286D01*
X58488095Y19869048D01*
X58630952Y21011905D02*
X58583333Y20916667D01*
X58535714Y20869048D01*
X58440476Y20821429D01*
X58392857Y20821429D01*
X58297619Y20869048D01*
X58250000Y20916667D01*
X58202380Y21011905D01*
X58202380Y21202381D01*
X58250000Y21297620D01*
X58297619Y21345239D01*
X58392857Y21392858D01*
X58440476Y21392858D01*
X58535714Y21345239D01*
X58583333Y21297620D01*
X58630952Y21202381D01*
X58630952Y21011905D01*
X58678571Y20916667D01*
X58726190Y20869048D01*
X58821428Y20821429D01*
X59011904Y20821429D01*
X59107142Y20869048D01*
X59154761Y20916667D01*
X59202380Y21011905D01*
X59202380Y21202381D01*
X59154761Y21297620D01*
X59107142Y21345239D01*
X59011904Y21392858D01*
X58821428Y21392858D01*
X58726190Y21345239D01*
X58678571Y21297620D01*
X58630952Y21202381D01*
X48202380Y19440477D02*
X48916666Y19440477D01*
X49059523Y19392858D01*
X49154761Y19297620D01*
X49202380Y19154762D01*
X49202380Y19059524D01*
X49202380Y20440477D02*
X49202380Y19869048D01*
X49202380Y20154762D02*
X48202380Y20154762D01*
X48345238Y20059524D01*
X48440476Y19964286D01*
X48488095Y19869048D01*
X48202380Y20773810D02*
X48202380Y21440477D01*
X49202380Y21011905D01*
X207357142Y8707143D02*
X207404761Y8659524D01*
X207452380Y8516667D01*
X207452380Y8421429D01*
X207404761Y8278572D01*
X207309523Y8183334D01*
X207214285Y8135715D01*
X207023809Y8088096D01*
X206880952Y8088096D01*
X206690476Y8135715D01*
X206595238Y8183334D01*
X206500000Y8278572D01*
X206452380Y8421429D01*
X206452380Y8516667D01*
X206500000Y8659524D01*
X206547619Y8707143D01*
X207452380Y9659524D02*
X207452380Y9088096D01*
X207452380Y9373810D02*
X206452380Y9373810D01*
X206595238Y9278572D01*
X206690476Y9183334D01*
X206738095Y9088096D01*
X206547619Y10040477D02*
X206500000Y10088096D01*
X206452380Y10183334D01*
X206452380Y10421429D01*
X206500000Y10516667D01*
X206547619Y10564286D01*
X206642857Y10611905D01*
X206738095Y10611905D01*
X206880952Y10564286D01*
X207452380Y9992858D01*
X207452380Y10611905D01*
X178107142Y8857143D02*
X178154761Y8809524D01*
X178202380Y8666667D01*
X178202380Y8571429D01*
X178154761Y8428572D01*
X178059523Y8333334D01*
X177964285Y8285715D01*
X177773809Y8238096D01*
X177630952Y8238096D01*
X177440476Y8285715D01*
X177345238Y8333334D01*
X177250000Y8428572D01*
X177202380Y8571429D01*
X177202380Y8666667D01*
X177250000Y8809524D01*
X177297619Y8857143D01*
X178202380Y9809524D02*
X178202380Y9238096D01*
X178202380Y9523810D02*
X177202380Y9523810D01*
X177345238Y9428572D01*
X177440476Y9333334D01*
X177488095Y9238096D01*
X178202380Y10761905D02*
X178202380Y10190477D01*
X178202380Y10476191D02*
X177202380Y10476191D01*
X177345238Y10380953D01*
X177440476Y10285715D01*
X177488095Y10190477D01*
X184607142Y8857143D02*
X184654761Y8809524D01*
X184702380Y8666667D01*
X184702380Y8571429D01*
X184654761Y8428572D01*
X184559523Y8333334D01*
X184464285Y8285715D01*
X184273809Y8238096D01*
X184130952Y8238096D01*
X183940476Y8285715D01*
X183845238Y8333334D01*
X183750000Y8428572D01*
X183702380Y8571429D01*
X183702380Y8666667D01*
X183750000Y8809524D01*
X183797619Y8857143D01*
X184702380Y9809524D02*
X184702380Y9238096D01*
X184702380Y9523810D02*
X183702380Y9523810D01*
X183845238Y9428572D01*
X183940476Y9333334D01*
X183988095Y9238096D01*
X183702380Y10428572D02*
X183702380Y10523810D01*
X183750000Y10619048D01*
X183797619Y10666667D01*
X183892857Y10714286D01*
X184083333Y10761905D01*
X184321428Y10761905D01*
X184511904Y10714286D01*
X184607142Y10666667D01*
X184654761Y10619048D01*
X184702380Y10523810D01*
X184702380Y10428572D01*
X184654761Y10333334D01*
X184607142Y10285715D01*
X184511904Y10238096D01*
X184321428Y10190477D01*
X184083333Y10190477D01*
X183892857Y10238096D01*
X183797619Y10285715D01*
X183750000Y10333334D01*
X183702380Y10428572D01*
X207357142Y31333334D02*
X207404761Y31285715D01*
X207452380Y31142858D01*
X207452380Y31047620D01*
X207404761Y30904762D01*
X207309523Y30809524D01*
X207214285Y30761905D01*
X207023809Y30714286D01*
X206880952Y30714286D01*
X206690476Y30761905D01*
X206595238Y30809524D01*
X206500000Y30904762D01*
X206452380Y31047620D01*
X206452380Y31142858D01*
X206500000Y31285715D01*
X206547619Y31333334D01*
X207452380Y31809524D02*
X207452380Y32000000D01*
X207404761Y32095239D01*
X207357142Y32142858D01*
X207214285Y32238096D01*
X207023809Y32285715D01*
X206642857Y32285715D01*
X206547619Y32238096D01*
X206500000Y32190477D01*
X206452380Y32095239D01*
X206452380Y31904762D01*
X206500000Y31809524D01*
X206547619Y31761905D01*
X206642857Y31714286D01*
X206880952Y31714286D01*
X206976190Y31761905D01*
X207023809Y31809524D01*
X207071428Y31904762D01*
X207071428Y32095239D01*
X207023809Y32190477D01*
X206976190Y32238096D01*
X206880952Y32285715D01*
X178107142Y30833334D02*
X178154761Y30785715D01*
X178202380Y30642858D01*
X178202380Y30547620D01*
X178154761Y30404762D01*
X178059523Y30309524D01*
X177964285Y30261905D01*
X177773809Y30214286D01*
X177630952Y30214286D01*
X177440476Y30261905D01*
X177345238Y30309524D01*
X177250000Y30404762D01*
X177202380Y30547620D01*
X177202380Y30642858D01*
X177250000Y30785715D01*
X177297619Y30833334D01*
X177630952Y31404762D02*
X177583333Y31309524D01*
X177535714Y31261905D01*
X177440476Y31214286D01*
X177392857Y31214286D01*
X177297619Y31261905D01*
X177250000Y31309524D01*
X177202380Y31404762D01*
X177202380Y31595239D01*
X177250000Y31690477D01*
X177297619Y31738096D01*
X177392857Y31785715D01*
X177440476Y31785715D01*
X177535714Y31738096D01*
X177583333Y31690477D01*
X177630952Y31595239D01*
X177630952Y31404762D01*
X177678571Y31309524D01*
X177726190Y31261905D01*
X177821428Y31214286D01*
X178011904Y31214286D01*
X178107142Y31261905D01*
X178154761Y31309524D01*
X178202380Y31404762D01*
X178202380Y31595239D01*
X178154761Y31690477D01*
X178107142Y31738096D01*
X178011904Y31785715D01*
X177821428Y31785715D01*
X177726190Y31738096D01*
X177678571Y31690477D01*
X177630952Y31595239D01*
X184607142Y31333334D02*
X184654761Y31285715D01*
X184702380Y31142858D01*
X184702380Y31047620D01*
X184654761Y30904762D01*
X184559523Y30809524D01*
X184464285Y30761905D01*
X184273809Y30714286D01*
X184130952Y30714286D01*
X183940476Y30761905D01*
X183845238Y30809524D01*
X183750000Y30904762D01*
X183702380Y31047620D01*
X183702380Y31142858D01*
X183750000Y31285715D01*
X183797619Y31333334D01*
X183702380Y31666667D02*
X183702380Y32333334D01*
X184702380Y31904762D01*
X194357142Y20333334D02*
X194404761Y20285715D01*
X194452380Y20142858D01*
X194452380Y20047620D01*
X194404761Y19904762D01*
X194309523Y19809524D01*
X194214285Y19761905D01*
X194023809Y19714286D01*
X193880952Y19714286D01*
X193690476Y19761905D01*
X193595238Y19809524D01*
X193500000Y19904762D01*
X193452380Y20047620D01*
X193452380Y20142858D01*
X193500000Y20285715D01*
X193547619Y20333334D01*
X193452380Y21190477D02*
X193452380Y21000000D01*
X193500000Y20904762D01*
X193547619Y20857143D01*
X193690476Y20761905D01*
X193880952Y20714286D01*
X194261904Y20714286D01*
X194357142Y20761905D01*
X194404761Y20809524D01*
X194452380Y20904762D01*
X194452380Y21095239D01*
X194404761Y21190477D01*
X194357142Y21238096D01*
X194261904Y21285715D01*
X194023809Y21285715D01*
X193928571Y21238096D01*
X193880952Y21190477D01*
X193833333Y21095239D01*
X193833333Y20904762D01*
X193880952Y20809524D01*
X193928571Y20761905D01*
X194023809Y20714286D01*
X165107142Y20083334D02*
X165154761Y20035715D01*
X165202380Y19892858D01*
X165202380Y19797620D01*
X165154761Y19654762D01*
X165059523Y19559524D01*
X164964285Y19511905D01*
X164773809Y19464286D01*
X164630952Y19464286D01*
X164440476Y19511905D01*
X164345238Y19559524D01*
X164250000Y19654762D01*
X164202380Y19797620D01*
X164202380Y19892858D01*
X164250000Y20035715D01*
X164297619Y20083334D01*
X164202380Y20988096D02*
X164202380Y20511905D01*
X164678571Y20464286D01*
X164630952Y20511905D01*
X164583333Y20607143D01*
X164583333Y20845239D01*
X164630952Y20940477D01*
X164678571Y20988096D01*
X164773809Y21035715D01*
X165011904Y21035715D01*
X165107142Y20988096D01*
X165154761Y20940477D01*
X165202380Y20845239D01*
X165202380Y20607143D01*
X165154761Y20511905D01*
X165107142Y20464286D01*
X74857142Y19833334D02*
X74904761Y19785715D01*
X74952380Y19642858D01*
X74952380Y19547620D01*
X74904761Y19404762D01*
X74809523Y19309524D01*
X74714285Y19261905D01*
X74523809Y19214286D01*
X74380952Y19214286D01*
X74190476Y19261905D01*
X74095238Y19309524D01*
X74000000Y19404762D01*
X73952380Y19547620D01*
X73952380Y19642858D01*
X74000000Y19785715D01*
X74047619Y19833334D01*
X74285714Y20690477D02*
X74952380Y20690477D01*
X73904761Y20452381D02*
X74619047Y20214286D01*
X74619047Y20833334D01*
X8107142Y20083334D02*
X8154761Y20035715D01*
X8202380Y19892858D01*
X8202380Y19797620D01*
X8154761Y19654762D01*
X8059523Y19559524D01*
X7964285Y19511905D01*
X7773809Y19464286D01*
X7630952Y19464286D01*
X7440476Y19511905D01*
X7345238Y19559524D01*
X7250000Y19654762D01*
X7202380Y19797620D01*
X7202380Y19892858D01*
X7250000Y20035715D01*
X7297619Y20083334D01*
X7202380Y20416667D02*
X7202380Y21035715D01*
X7583333Y20702381D01*
X7583333Y20845239D01*
X7630952Y20940477D01*
X7678571Y20988096D01*
X7773809Y21035715D01*
X8011904Y21035715D01*
X8107142Y20988096D01*
X8154761Y20940477D01*
X8202380Y20845239D01*
X8202380Y20559524D01*
X8154761Y20464286D01*
X8107142Y20416667D01*
X81357142Y30333334D02*
X81404761Y30285715D01*
X81452380Y30142858D01*
X81452380Y30047620D01*
X81404761Y29904762D01*
X81309523Y29809524D01*
X81214285Y29761905D01*
X81023809Y29714286D01*
X80880952Y29714286D01*
X80690476Y29761905D01*
X80595238Y29809524D01*
X80500000Y29904762D01*
X80452380Y30047620D01*
X80452380Y30142858D01*
X80500000Y30285715D01*
X80547619Y30333334D01*
X80547619Y30714286D02*
X80500000Y30761905D01*
X80452380Y30857143D01*
X80452380Y31095239D01*
X80500000Y31190477D01*
X80547619Y31238096D01*
X80642857Y31285715D01*
X80738095Y31285715D01*
X80880952Y31238096D01*
X81452380Y30666667D01*
X81452380Y31285715D01*
X14607142Y30333334D02*
X14654761Y30285715D01*
X14702380Y30142858D01*
X14702380Y30047620D01*
X14654761Y29904762D01*
X14559523Y29809524D01*
X14464285Y29761905D01*
X14273809Y29714286D01*
X14130952Y29714286D01*
X13940476Y29761905D01*
X13845238Y29809524D01*
X13750000Y29904762D01*
X13702380Y30047620D01*
X13702380Y30142858D01*
X13750000Y30285715D01*
X13797619Y30333334D01*
X14702380Y31285715D02*
X14702380Y30714286D01*
X14702380Y31000000D02*
X13702380Y31000000D01*
X13845238Y30904762D01*
X13940476Y30809524D01*
X13988095Y30714286D01*
M02*
